<svg version="1.1" baseProfile="full" xmlns="http://www.w3.org/2000/svg"
width="1024" height="1024"
viewBox="-14 -4 23 23"
>
<rect x="-14" y="-4" width="100%" height="100%" fill="white" />
<path stroke="green" stroke-width="0.04" stroke-linecap="round" fill="none"
transform="scale(1 -1)"
d="	M 0 0
	L 0 1
	L 0 2
	L 1 2
	L 1 3
	L 2 3
	L 2 2
	L 2 1
	L 2 3.59e-09
	L 2 -1
	L 1 -1
	L 1 -2
	L 1.795e-08 -2
	L 1.077e-08 -1
	L 3.59e-09 -7.18e-09
	L 1 1.795e-09
	L 2 1.077e-08
	L 2 -1
	L 3 -1
	L 3 -2
	L 2 -2
	L 1 -2
	L 1 -3
	L 1 -4
	L 4.667e-08 -4
	L 5.744e-08 -5
	L -1 -5
	L -1 -4
	L -1 -3
	L 2.872e-08 -3
	L 1 -3
	L 1 -4
	L 2 -4
	L 2 -5
	L 1 -5
	L 6.462e-08 -5
	L 4.308e-08 -4
	L 2.154e-08 -3
	L 1 -3
	L 1 -2
	L 2 -2
	L 2 -3
	L 2 -4
	L 2 -5
	L 2 -6
	L 1 -6
	L 1 -7
	L 1.256e-07 -7
	L 9.692e-08 -6
	L 6.821e-08 -5
	L 3.949e-08 -4
	L 1.077e-08 -3
	L 1 -3
	L 1 -2
	L 2 -2
	L 2 -3
	L 2 -4
	L 2 -5
	L 2 -6
	L 1 -6
	L 1 -7
	L 1.436e-07 -7
	L 1.077e-07 -6
	L 7.18e-08 -5
	L 1 -5
	L 2 -5
	L 2 -6
	L 3 -6
	L 3 -7
	L 2 -7
	L 1 -7
	L 1 -8
	L 1 -9
	L 2.297e-07 -9
	L 2.692e-07 -10
	L -1 -10
	L -1 -9
	L -1 -8
	L 1.831e-07 -8
	L 1 -8
	L 1 -9
	L 2 -9
	L 2 -10
	L 1 -10
	L 2.764e-07 -10
	L 2.262e-07 -9
	L 1.759e-07 -8
	L 1 -8
	L 1 -7
	L 2 -7
	L 2 -8
	L 2 -9
	L 2 -10
	L 2 -11
	L 1 -11
	L 1 -12
	L 3.949e-07 -12
	L 3.374e-07 -11
	L 2.8e-07 -10
	L 1 -10
	L 2 -10
	L 2 -11
	L 3 -11
	L 3 -12
	L 2 -12
	L 1 -12
	L 4.021e-07 -12
	L -1 -12
	L -1 -11
	L -2 -11
	L -2 -10
	L -1 -10
	L 2.728e-07 -10
	L 3.41e-07 -11
	L 4.092e-07 -12
	L -1 -12
	L -1 -13
	L -2 -13
	L -2 -12
	L -2 -11
	L -3 -11
	L -4 -11
	L -4 -10
	L -5 -10
	L -5 -9
	L -4 -9
	L -3 -9
	L -3 -10
	L -3 -11
	L -4 -11
	L -4 -12
	L -5 -12
	L -5 -11
	L -5 -10
	L -4 -10
	L -3 -10
	L -3 -11
	L -2 -11
	L -2 -12
	L -3 -12
	L -4 -12
	L -5 -12
	L -6 -12
	L -6 -11
	L -7 -11
	L -7 -10
	L -6 -10
	L -5 -10
	L -5 -9
	L -5 -8
	L -4 -8
	L -4 -7
	L -3 -7
	L -3 -8
	L -3 -9
	L -3 -10
	L -3 -11
	L -4 -11
	L -4 -12
	L -5 -12
	L -5 -11
	L -5 -10
	L -4 -10
	L -3 -10
	L -3 -11
	L -2 -11
	L -2 -12
	L -3 -12
	L -4 -12
	L -4 -13
	L -4 -14
	L -5 -14
	L -5 -15
	L -6 -15
	L -6 -14
	L -6 -13
	L -5 -13
	L -4 -13
	L -4 -14
	L -3 -14
	L -3 -15
	L -4 -15
	L -5 -15
	L -5 -14
	L -5 -13
	L -4 -13
	L -4 -12
	L -3 -12
	L -3 -13
	L -3 -14
	L -3 -15
	L -3 -16
	L -4 -16
	L -4 -17
	L -5 -17
	L -5 -16
	L -5 -15
	L -4 -15
	L -3 -15
	L -3 -16
	L -2 -16
	L -2 -17
	L -3 -17
	L -4 -17
	L -5 -17
	L -6 -17
	L -6 -16
	L -7 -16
	L -7 -15
	L -6 -15
	L -5 -15
	L -5 -16
	L -5 -17
	L -6 -17
	L -6 -18
	L -7 -18
	L -7 -17
	L -7 -16
	L -8 -16
	L -9 -16
	L -9 -15
	L -10 -15
	L -10 -14
	L -9 -14
	L -8 -14
	L -8 -15
	L -8 -16
	L -9 -16
	L -9 -17
	L -10 -17
	L -10 -16
	L -10 -15
	L -9 -15
	L -8 -15
	L -8 -16
	L -7 -16
	L -7 -17
	L -8 -17
	L -9 -17
	L -10 -17
	L -11 -17
	L -11 -16
	L -12 -16
	L -12 -15
	L -11 -15
	L -10 -15
	L -10 -16
	L -10 -17
	L -11 -17
	L -11 -18
	L -12 -18
	L -12 -17
	L -12 -16
	L -12 -15
	L -12 -14
	L -11 -14
	L -11 -13
	L -10 -13
	L -10 -14
	L -10 -15
	L -11 -15
	L -12 -15
	L -12 -14
	L -13 -14
	L -13 -13
	L -12 -13
	L -11 -13
	L -11 -12
	L -11 -11
	L -10 -11
	L -10 -10
	L -9 -10
	L -9 -11
	L -9 -12
	L -10 -12
	L -11 -12
	L -11 -11
	L -12 -11
	L -12 -10
	L -11 -10
	L -10 -10
	L -10 -11
	L -10 -12
	L -11 -12
	L -11 -13
	L -12 -13
	L -12 -12
	L -12 -11
	L -12 -10
	L -12 -9
	L -11 -9
	L -11 -8
	L -10 -8
	L -10 -9
	L -10 -10
	L -10 -11
	L -10 -12
	L -11 -12
	L -11 -13
	L -12 -13
	L -12 -12
	L -12 -11
	L -12 -10
	L -12 -9
	L -11 -9
	L -11 -8
	L -10 -8
	L -10 -9
	L -10 -10
	L -11 -10
	L -12 -10
	L -12 -9
	L -13 -9
	L -13 -8
	L -12 -8
	L -11 -8
	L -11 -7
	L -11 -6
	L -10 -6
	L -10 -5
	L -9 -5
	L -9 -6
	L -9 -7
	L -10 -7
	L -11 -7
	L -11 -6
	L -12 -6
	L -12 -5
	L -11 -5
	L -10 -5
	L -10 -6
	L -10 -7
	L -11 -7
	L -11 -8
	L -12 -8
	L -12 -7
	L -12 -6
	L -12 -5
	L -12 -4
	L -11 -4
	L -11 -3
	L -10 -3
	L -10 -4
	L -10 -5
	L -11 -5
	L -12 -5
	L -12 -4
	L -13 -4
	L -13 -3
	L -12 -3
	L -11 -3
	L -10 -3
	L -9 -3
	L -9 -4
	L -8 -4
	L -8 -5
	L -9 -5
	L -10 -5
	L -10 -4
	L -10 -3
	L -9 -3
	L -9 -2
	L -8 -2
	L -8 -3
	L -8 -4
	L -7 -4
	L -6 -4
	L -6 -5
	L -5 -5
	L -5 -6
	L -6 -6
	L -7 -6
	L -7 -5
	L -7 -4
	L -6 -4
	L -6 -3
	L -5 -3
	L -5 -4
	L -5 -5
	L -6 -5
	L -7 -5
	L -7 -4
	L -8 -4
	L -8 -3
	L -7 -3
	L -6 -3
	L -5 -3
	L -4 -3
	L -4 -4
	L -3 -4
	L -3 -5
	L -4 -5
	L -5 -5
	L -6 -5
	L -7 -5
	L -7 -4
	L -8 -4
	L -8 -3
	L -7 -3
	L -6 -3
	L -5 -3
	L -4 -3
	L -4 -4
	L -3 -4
	L -3 -5
	L -4 -5
	L -5 -5
	L -5 -4
	L -5 -3
	L -4 -3
	L -4 -2
	L -3 -2
	L -3 -3
	L -3 -4
	L -2 -4
	L -1 -4
	L -1 -5
	L -9.836e-07 -5
	L -7.359e-07 -6
	L -1 -6
	L -2 -6
	L -2 -5
	L -2 -4
	L -1 -4
	L -1 -3
	L -1.49e-06 -3
	L -1.235e-06 -4
	L -9.8e-07 -5
	L -1 -5
	L -2 -5
	L -2 -4
	L -3 -4
	L -3 -3
	L -2 -3
	L -1 -3
	L -1.497e-06 -3
	L 1 -3
	L 1 -4
	L 2 -4
	L 2 -5
	L 1 -5
	L -9.728e-07 -5
	L -1.238e-06 -4
	L -1.504e-06 -3
	L 1 -3
	L 1 -2
	L 2 -2
	L 2 -3
	L 2 -4
	L 2 -5
	L 2 -6
	L 1 -6
	L 1 -7
	L -4.236e-07 -7
	L -6.964e-07 -6
	L -9.692e-07 -5
	L 1 -5
	L 2 -5
	L 2 -6
	L 3 -6
	L 3 -7
	L 2 -7
	L 1 -7
	L 1 -8
	L 1 -9
	L 1.364e-07 -9
	L 4.128e-07 -10
	L -1 -10
	L -1 -9
	L -1 -8
	L -1.472e-07 -8
	L 1 -8
	L 1 -9
	L 2 -9
	L 2 -10
	L 1 -10
	L 4.2e-07 -10
	L 1.328e-07 -9
	L -1.544e-07 -8
	L 1 -8
	L 1 -7
	L 2 -7
	L 2 -8
	L 2 -9
	L 2 -10
	L 2 -11
	L 1 -11
	L 1 -12
	L 1.012e-06 -12
	L 7.18e-07 -11
	L 4.236e-07 -10
	L -1 -10
	L -2 -10
	L -2 -9
	L -3 -9
	L -3 -8
	L -2 -8
	L -1 -8
	L -1.651e-07 -8
	L 1 -8
	L 1 -9
	L 2 -9
	L 2 -10
	L 1 -10
	L 4.308e-07 -10
	L 1.292e-07 -9
	L -1.723e-07 -8
	L 1 -8
	L 1 -7
	L 2 -7
	L 2 -8
	L 2 -9
	L 3 -9
	L 4 -9
	L 4 -10
	L 5 -10
	L 5 -11
	L 4 -11
	L 3 -11
	L 3 -10
	L 3 -9
	L 4 -9
	L 4 -8
	L 5 -8
	L 5 -9
	L 5 -10
	L 4 -10
	L 3 -10
	L 3 -9
	L 2 -9
	L 2 -8
	L 3 -8
	L 4 -8
	L 5 -8
	L 6 -8
	L 6 -9
	L 7 -9
	L 7 -10
	L 6 -10
	L 5 -10
	L 5 -9
	L 5 -8
	L 6 -8
	L 6 -7
	L 7 -7
	L 7 -8
	L 7 -9
	L 7 -10
	L 7 -11
	L 6 -11
	L 6 -12
	L 5 -12
	L 5 -11
	L 5 -10
	L 6 -10
	L 7 -10
	L 7 -11
	L 8 -11
	L 8 -12
	L 7 -12
	L 6 -12
	L 6 -13
	L 6 -14
	L 5 -14
	L 5 -15
	L 4 -15
	L 4 -14
	L 4 -13
	L 5 -13
	L 6 -13
	L 6 -14
	L 7 -14
	L 7 -15
	L 6 -15
	L 5 -15
	L 5 -14
	L 5 -13
	L 6 -13
	L 6 -12
	L 7 -12
	L 7 -13
	L 7 -14
	L 7 -15
	L 7 -16
	L 6 -16
	L 6 -17
	L 5 -17
	L 5 -16
	L 5 -15
	L 6 -15
	L 7 -15
	L 7 -16
	L 8 -16
	L 8 -17
	L 7 -17
	L 6 -17
	L 5 -17
	L 4 -17
	L 4 -16
	L 3 -16
	L 3 -15
	L 4 -15
	L 5 -15
	L 5 -16
	L 5 -17
	L 4 -17
	L 4 -18
	L 3 -18
	L 3 -17
	L 3 -16
	L 2 -16
	L 1 -16
	L 1 -15
	L 2.118e-06 -15
	L 1.752e-06 -14
	L 1 -14
	L 2 -14
	L 2 -15
	L 2 -16
	L 1 -16
	L 1 -17
	L 2.861e-06 -17
	L 2.488e-06 -16
	L 2.114e-06 -15
	L 1 -15
	L 2 -15
	L 2 -16
	L 3 -16
	L 3 -17
	L 2 -17
	L 1 -17
	L 2.868e-06 -17
	L -1 -17
	L -1 -16
	L -2 -16
	L -2 -15
	L -1 -15
	L 2.107e-06 -15
	L 1 -15
	L 2 -15
	L 2 -16
	L 3 -16
	L 3 -17
	L 2 -17
	L 1 -17
	L 2.875e-06 -17
	L -1 -17
	L -1 -16
	L -2 -16
	L -2 -15
	L -1 -15
	L 2.1e-06 -15
	L 2.491e-06 -16
	L 2.883e-06 -17
	L -1 -17
	L -1 -18
	L -2 -18
	L -2 -17
	L -2 -16
	L -3 -16
	L -4 -16
	L -4 -15
	L -5 -15
	L -5 -14
	L -4 -14
	L -3 -14
	L -3 -15
	L -3 -16
	L -4 -16
	L -4 -17
	L -5 -17
	L -5 -16
	L -5 -15
	L -4 -15
	L -3 -15
	L -3 -16
	L -2 -16
	L -2 -17
	L -3 -17
	L -4 -17
	L -5 -17
	L -6 -17
	L -6 -16
	L -7 -16
	L -7 -15
	L -6 -15
	L -5 -15
	L -5 -16
	L -5 -17
	L -6 -17
	L -6 -18
	L -7 -18
	L -7 -17
	L -7 -16
	L -7 -15
	L -7 -14
	L -6 -14
	L -6 -13
	L -5 -13
	L -5 -14
	L -5 -15
	L -6 -15
	L -7 -15
	L -7 -14
	L -8 -14
	L -8 -13
	L -7 -13
	L -6 -13
	L -6 -12
	L -6 -11
	L -5 -11
	L -5 -10
	L -4 -10
	L -4 -11
	L -4 -12
	L -5 -12
	L -6 -12
	L -6 -11
	L -7 -11
	L -7 -10
	L -6 -10
	L -5 -10
	L -5 -11
	L -5 -12
	L -6 -12
	L -6 -13
	L -7 -13
	L -7 -12
	L -7 -11
	L -7 -10
	L -7 -9
	L -6 -9
	L -6 -8
	L -5 -8
	L -5 -9
	L -5 -10
	L -5 -11
	L -5 -12
	L -6 -12
	L -6 -13
	L -7 -13
	L -7 -12
	L -7 -11
	L -7 -10
	L -7 -9
	L -6 -9
	L -6 -8
	L -5 -8
	L -5 -9
	L -5 -10
	L -6 -10
	L -7 -10
	L -7 -9
	L -8 -9
	L -8 -8
	L -7 -8
	L -6 -8
	L -6 -7
	L -6 -6
	L -5 -6
	L -5 -5
	L -4 -5
	L -4 -6
	L -4 -7
	L -5 -7
	L -6 -7
	L -6 -6
	L -7 -6
	L -7 -5
	L -6 -5
	L -5 -5
	L -5 -6
	L -5 -7
	L -6 -7
	L -6 -8
	L -7 -8
	L -7 -7
	L -7 -6
	L -7 -5
	L -7 -4
	L -6 -4
	L -6 -3
	L -5 -3
	L -5 -4
	L -5 -5
	L -6 -5
	L -7 -5
	L -7 -4
	L -8 -4
	L -8 -3
	L -7 -3
	L -6 -3
	L -5 -3
	L -4 -3
	L -4 -4
	L -3 -4
	L -3 -5
	L -4 -5
	L -5 -5
	L -5 -4
	L -5 -3
	L -4 -3
	L -4 -2
	L -3 -2
	L -3 -3
	L -3 -4
	L -2 -4
	L -1 -4
	L -1 -5
	L -2.312e-06 -5
	L -1.827e-06 -6
	L -1 -6
	L -2 -6
	L -2 -5
	L -2 -4
	L -1 -4
	L -1 -3
	L -3.292e-06 -3
	L -2.8e-06 -4
	L -2.308e-06 -5
	L -1 -5
	L -2 -5
	L -2 -4
	L -3 -4
	L -3 -3
	L -2 -3
	L -1 -3
	L -3.299e-06 -3
	L 1 -3
	L 1 -4
	L 2 -4
	L 2 -5
	L 1 -5
	L -2.301e-06 -5
	L -1.802e-06 -6
	L -1.303e-06 -7
	L -1 -7
	L -1 -8
	L -2 -8
	L -2 -7
	L -2 -6
	L -2 -5
	L -2 -4
	L -1 -4
	L -1 -3
	L -3.317e-06 -3
	L -2.811e-06 -4
	L -2.305e-06 -5
	L -1 -5
	L -2 -5
	L -2 -4
	L -3 -4
	L -3 -3
	L -2 -3
	L -1 -3
	L -1 -2
	L -1 -1
	L -4.344e-06 -1
	L -4.853e-06 1.461e-06
	L 1 1.973e-06
	L 1 -1
	L 1 -2
	L -3.827e-06 -2
	L -1 -2
	L -1 -1
	L -2 -1
	L -2 4.272e-07
	L -1 9.459e-07
	L -4.861e-06 1.465e-06
	L -4.34e-06 -1
	L -3.82e-06 -2
	L -1 -2
	L -1 -3
	L -2 -3
	L -2 -2
	L -2 -1
	L -2 4.2e-07
	L -2 1
	L -1 1
	L -1 2
	L -5.92e-06 2
	L -5.392e-06 1
	L -4.864e-06 1.472e-06
	L -1 9.423e-07
	L -2 4.128e-07
	L -2 1
	L -3 1
	L -3 2
	L -2 2
	L -1 2
	L -5.927e-06 2
	L 1 2
	L 1 1
	L 2 1
	L 2 2.549e-06
	L 1 2.012e-06
	L -4.857e-06 1.475e-06
	L -5.395e-06 1
	L -5.934e-06 2
	L 1 2
	L 1 3
	L 2 3
	L 2 2
	L 2 1
	L 3 1
	L 4 1
	L 4 3.636e-06
	L 5 4.177e-06
	L 5 -1
	L 4 -1
	L 3 -1
	L 3 3.089e-06
	L 3 1
	L 4 1
	L 4 2
	L 5 2
	L 5 1
	L 5 4.184e-06
	L 4 3.633e-06
	L 3 3.082e-06
	L 3 1
	L 2 1
	L 2 2
	L 3 2
	L 4 2
	L 5 2
	L 6 2
	L 6 1
	L 7 1
	L 7 5.304e-06
	L 6 4.746e-06
	L 5 4.187e-06
	L 5 1
	L 5 2
	L 6 2
	L 6 3
	L 7 3
	L 7 2
	L 7 1
	L 7 5.311e-06
	L 7 -1
	L 6 -1
	L 6 -2
	L 5 -2
	L 5 -1
	L 5 4.18e-06
	L 6 4.749e-06
	L 7 5.318e-06
	L 7 -1
	L 8 -1
	L 8 -2
	L 7 -2
	L 6 -2
	L 6 -3
	L 6 -4
	L 5 -4
	L 5 -5
	L 4 -5
	L 4 -4
	L 4 -3
	L 5 -3
	L 6 -3
	L 6 -4
	L 7 -4
	L 7 -5
	L 6 -5
	L 5 -5
	L 5 -4
	L 5 -3
	L 6 -3
	L 6 -2
	L 7 -2
	L 7 -3
	L 7 -4
	L 7 -5
	L 7 -6
	L 6 -6
	L 6 -7
	L 5 -7
	L 5 -6
	L 5 -5
	L 5 -4
	L 5 -3
	L 6 -3
	L 6 -2
	L 7 -2
	L 7 -3
	L 7 -4
	L 7 -5
	L 7 -6
	L 6 -6
	L 6 -7
	L 5 -7
	L 5 -6
	L 5 -5
	L 6 -5
	L 7 -5
	L 7 -6
	L 8 -6
	L 8 -7
	L 7 -7
	L 6 -7
	L 6 -8
	L 6 -9
	L 5 -9
	L 5 -10
	L 4 -10
	L 4 -9
	L 4 -8
	L 5 -8
	L 6 -8
	L 6 -9
	L 7 -9
	L 7 -10
	L 6 -10
	L 5 -10
	L 5 -9
	L 5 -8
	L 6 -8
	L 6 -7
	L 7 -7
	L 7 -8
	L 7 -9
	L 7 -10
	L 7 -11
	L 6 -11
	L 6 -12
	L 5 -12
	L 5 -11
	L 5 -10
	L 6 -10
	L 7 -10
	L 7 -11
	L 8 -11
	L 8 -12
	L 7 -12
	L 6 -12
	L 5 -12
	L 4 -12
	L 4 -11
	L 3 -11
	L 3 -10
	L 4 -10
	L 5 -10
	L 5 -11
	L 5 -12
	L 4 -12
	L 4 -13
	L 3 -13
	L 3 -12
	L 3 -11
	L 2 -11
	L 1 -11
	L 1 -10
	L 1.027e-06 -10
	L 3.949e-07 -9
	L 1 -9
	L 2 -9
	L 2 -10
	L 2 -11
	L 1 -11
	L 1 -12
	L 2.301e-06 -12
	L 1.662e-06 -11
	L 1.023e-06 -10
	L 1 -10
	L 2 -10
	L 2 -11
	L 3 -11
	L 3 -12
	L 2 -12
	L 1 -12
	L 2.308e-06 -12
	L -1 -12
	L -1 -11
	L -2 -11
	L -2 -10
	L -1 -10
	L 1.016e-06 -10
	L 1 -10
	L 2 -10
	L 2 -11
	L 3 -11
	L 3 -12
	L 2 -12
	L 1 -12
	L 2.315e-06 -12
	L -1 -12
	L -1 -11
	L -2 -11
	L -2 -10
	L -1 -10
	L 1.009e-06 -10
	L 1.666e-06 -11
	L 2.323e-06 -12
	L -1 -12
	L -1 -13
	L -2 -13
	L -2 -12
	L -2 -11
	L -3 -11
	L -4 -11
	L -4 -10
	L -5 -10
	L -5 -9
	L -4 -9
	L -3 -9
	L -3 -10
	L -3 -11
	L -4 -11
	L -4 -12
	L -5 -12
	L -5 -11
	L -5 -10
	L -4 -10
	L -3 -10
	L -3 -11
	L -2 -11
	L -2 -12
	L -3 -12
	L -4 -12
	L -5 -12
	L -6 -12
	L -6 -11
	L -7 -11
	L -7 -10
	L -6 -10
	L -5 -10
	L -5 -11
	L -5 -12
	L -6 -12
	L -6 -13
	L -7 -13
	L -7 -12
	L -7 -11
	L -7 -10
	L -7 -9
	L -6 -9
	L -6 -8
	L -5 -8
	L -5 -9
	L -5 -10
	L -6 -10
	L -7 -10
	L -7 -9
	L -8 -9
	L -8 -8
	L -7 -8
	L -6 -8
	L -6 -7
	L -6 -6
	L -5 -6
	L -5 -5
	L -4 -5
	L -4 -6
	L -4 -7
	L -5 -7
	L -6 -7
	L -6 -6
	L -7 -6
	L -7 -5
	L -6 -5
	L -5 -5
	L -5 -6
	L -5 -7
	L -6 -7
	L -6 -8
	L -7 -8
	L -7 -7
	L -7 -6
	L -7 -5
	L -7 -4
	L -6 -4
	L -6 -3
	L -5 -3
	L -5 -4
	L -5 -5
	L -4 -5
	L -3 -5
	L -3 -6
	L -2 -6
	L -2 -7
	L -3 -7
	L -4 -7
	L -5 -7
	L -6 -7
	L -6 -6
	L -7 -6
	L -7 -5
	L -6 -5
	L -5 -5
	L -5 -6
	L -5 -7
	L -6 -7
	L -6 -8
	L -7 -8
	L -7 -7
	L -7 -6
	L -8 -6
	L -9 -6
	L -9 -5
	L -10 -5
	L -10 -4
	L -9 -4
	L -8 -4
	L -8 -5
	L -8 -6
	L -9 -6
	L -9 -7
	L -10 -7
	L -10 -6
	L -10 -5
	L -9 -5
	L -8 -5
	L -8 -6
	L -7 -6
	L -7 -7
	L -8 -7
	L -9 -7
	L -10 -7
	L -11 -7
	L -11 -6
	L -12 -6
	L -12 -5
	L -11 -5
	L -10 -5
	L -10 -6
	L -10 -7
	L -11 -7
	L -11 -8
	L -12 -8
	L -12 -7
	L -12 -6
	L -12 -5
	L -12 -4
	L -11 -4
	L -11 -3
	L -10 -3
	L -10 -4
	L -10 -5
	L -11 -5
	L -12 -5
	L -12 -4
	L -13 -4
	L -13 -3
	L -12 -3
	L -11 -3
	L -11 -2
	L -11 -1
	L -10 -1
	L -10 -5.891e-06
	L -9 -5.142e-06
	L -9 -1
	L -9 -2
	L -10 -2
	L -11 -2
	L -11 -1
	L -12 -1
	L -12 -7.399e-06
	L -11 -6.643e-06
	L -10 -5.887e-06
	L -10 -1
	L -10 -2
	L -11 -2
	L -11 -3
	L -12 -3
	L -12 -2
	L -12 -1
	L -12 -7.406e-06
	L -12 1
	L -11 1
	L -11 2
	L -10 2
	L -10 1
	L -10 -5.88e-06
	L -11 -6.647e-06
	L -12 -7.413e-06
	L -12 1
	L -13 1
	L -13 2
	L -12 2
	L -11 2
	L -10 2
	L -9 2
	L -9 1
	L -8 1
	L -8 -4.329e-06
	L -9 -5.103e-06
	L -10 -5.876e-06
	L -10 1
	L -10 2
	L -9 2
	L -9 3
	L -8 3
	L -8 2
	L -8 1
	L -7 1
	L -6 1
	L -6 -2.768e-06
	L -5 -1.991e-06
	L -5 -1
	L -6 -1
	L -7 -1
	L -7 -3.552e-06
	L -7 1
	L -6 1
	L -6 2
	L -5 2
	L -5 1
	L -5 -1.983e-06
	L -6 -2.771e-06
	L -7 -3.559e-06
	L -7 1
	L -8 1
	L -8 2
	L -7 2
	L -6 2
	L -5 2
	L -4 2
	L -4 1
	L -3 1
	L -3 -3.895e-07
	L -4 -1.185e-06
	L -5 -1.98e-06
	L -6 -2.775e-06
	L -7 -3.57e-06
	L -7 1
	L -8 1
	L -8 2
	L -7 2
	L -6 2
	L -5 2
	L -4 2
	L -4 1
	L -3 1
	L -3 -3.715e-07
	L -4 -1.174e-06
	L -5 -1.976e-06
	L -5 1
	L -5 2
	L -4 2
	L -4 3
	L -3 3
	L -3 2
	L -3 1
	L -2 1
	L -1 1
	L -1 1.247e-06
	L -6.203e-06 2.053e-06
	L -5.395e-06 -1
	L -1 -1
	L -2 -1
	L -2 4.344e-07
	L -2 1
	L -1 1
	L -1 2
	L -7.829e-06 2
	L -7.014e-06 1
	L -6.2e-06 2.061e-06
	L -1 1.244e-06
	L -2 4.272e-07
	L -2 1
	L -3 1
	L -3 2
	L -2 2
	L -1 2
	L -7.837e-06 2
	L 1 2
	L 1 1
	L 2 1
	L 2 3.712e-06
	L 1 2.888e-06
	L -6.192e-06 2.064e-06
"/>
</svg>
