<svg version="1.1" baseProfile="full" xmlns="http://www.w3.org/2000/svg"
width="1024" height="609.7"
viewBox="-23.09 -101.6 231.9 138.1"
>
<rect x="-23.09" y="-101.6" width="100%" height="100%" fill="white" />
<path stroke="green" stroke-width="0.04" stroke-linecap="round" fill="none"
transform="scale(1 -1)"
d="	M 0 0
	L 0.9877 0.1564
	L 1.975 0.3129
	L 2.926 0.6219
	L 3.877 0.9309
	L 4.829 1.24
	L 5.78 1.549
	L 6.671 2.003
	L 7.562 2.457
	L 8.453 2.911
	L 9.344 3.365
	L 10.29 3.674
	L 11.25 3.983
	L 12.2 4.292
	L 13.15 4.601
	L 14.14 4.757
	L 15.12 4.914
	L 16.11 5.07
	L 17.1 5.227
	L 18.05 5.536
	L 19 5.845
	L 19.95 6.154
	L 20.9 6.463
	L 21.79 6.917
	L 22.68 7.371
	L 23.58 7.825
	L 24.47 8.279
	L 24.01 9.17
	L 23.2 9.758
	M 24.01 9.17
	L 23.56 10.06
	L 23.56 11.06
	M 23.56 10.06
	L 23.1 10.95
	L 23.1 11.95
	L 23.56 12.84
	M 23.1 11.95
	L 23.1 12.95
	M 23.1 10.95
	L 22.65 11.84
	L 21.84 12.43
	M 22.65 11.84
	L 22.2 12.73
	L 22.2 13.73
	M 22.2 12.73
	L 21.74 13.62
	L 21.74 14.62
	L 22.2 15.52
	M 21.74 14.62
	L 21.74 15.62
	L 21.29 16.52
	L 20.48 17.1
	M 21.29 16.52
	L 20.83 17.41
	M 21.74 15.62
	L 21.74 16.62
	L 21.29 17.52
	M 21.74 16.62
	L 21.74 17.62
	L 22.2 18.52
	L 22.2 19.52
	M 22.2 18.52
	L 22.65 19.41
	M 21.74 17.62
	L 21.74 18.62
	L 21.29 19.52
	M 21.74 18.62
	L 21.74 19.62
	L 22.2 20.52
	M 21.74 19.62
	L 21.74 20.62
	M 21.74 13.62
	L 21.29 14.52
	L 20.48 15.1
	M 21.29 14.52
	L 20.83 15.41
	L 20.03 15.99
	L 19.04 16.15
	M 20.03 15.99
	L 19.22 16.58
	L 18.76 17.47
	M 19.22 16.58
	L 18.41 17.17
	M 20.83 15.41
	L 20.38 16.3
	L 20.38 17.3
	M 20.38 16.3
	L 19.93 17.19
	L 19.93 18.19
	L 19.47 19.08
	M 19.93 18.19
	L 19.93 19.19
	L 20.38 20.08
	M 19.93 19.19
	L 19.93 20.19
	M 19.93 17.19
	L 19.47 18.08
	L 19.47 19.08
	M 19.47 18.08
	L 19.02 18.97
	L 19.02 19.97
	L 18.56 20.86
	M 19.02 19.97
	L 19.02 20.97
	L 19.47 21.86
	L 19.47 22.86
	M 19.47 21.86
	L 19.93 22.75
	M 19.02 20.97
	L 19.02 21.97
	L 18.56 22.86
	M 19.02 21.97
	L 19.02 22.97
	L 19.47 23.86
	M 19.02 22.97
	L 19.02 23.97
	L 19.47 24.86
	L 19.47 25.86
	M 19.47 24.86
	L 19.93 25.75
	L 19.93 26.75
	L 19.47 27.64
	M 19.93 26.75
	L 19.93 27.75
	M 19.93 25.75
	L 20.38 26.64
	L 20.38 27.64
	M 20.38 26.64
	L 20.83 27.53
	L 21.64 28.12
	M 20.83 27.53
	L 21.29 28.43
	M 19.02 23.97
	L 19.02 24.97
	L 18.56 25.86
	M 19.02 24.97
	L 19.02 25.97
	L 18.56 26.86
	L 17.76 27.45
	M 18.56 26.86
	L 18.11 27.75
	L 18.11 28.75
	M 18.11 27.75
	L 17.66 28.64
	M 19.02 25.97
	L 19.02 26.97
	L 18.56 27.86
	M 19.02 26.97
	L 19.02 27.97
	L 19.47 28.86
	M 19.02 27.97
	L 19.02 28.97
	L 19.47 29.86
	L 19.47 30.86
	M 19.47 29.86
	L 19.93 30.75
	M 19.02 28.97
	L 19.02 29.97
	L 18.56 30.86
	M 19.02 29.97
	L 19.02 30.97
	M 19.02 18.97
	L 18.56 19.86
	L 18.56 20.86
	M 18.56 19.86
	L 18.11 20.75
	L 17.3 21.34
	L 16.31 21.5
	M 17.3 21.34
	L 16.49 21.93
	L 16.04 22.82
	M 16.49 21.93
	L 15.68 22.52
	M 18.11 20.75
	L 17.66 21.64
	L 16.85 22.23
	M 17.66 21.64
	L 17.2 22.53
	L 17.2 23.53
	M 17.2 22.53
	L 16.75 23.43
	L 15.94 24.01
	L 15.49 24.9
	M 15.94 24.01
	L 15.13 24.6
	L 14.68 25.49
	L 14.68 26.49
	M 14.68 25.49
	L 14.22 26.38
	M 15.13 24.6
	L 14.32 25.19
	L 13.33 25.35
	M 14.32 25.19
	L 13.51 25.78
	M 16.75 23.43
	L 16.3 24.32
	L 15.49 24.9
	M 16.3 24.32
	L 15.84 25.21
	L 15.84 26.21
	L 15.39 27.1
	M 15.84 26.21
	L 15.84 27.21
	L 16.3 28.1
	M 15.84 27.21
	L 15.84 28.21
	M 15.84 25.21
	L 15.39 26.1
	L 15.39 27.1
	M 15.39 26.1
	L 14.93 26.99
	L 14.12 27.58
	L 13.14 27.73
	M 14.12 27.58
	L 13.32 28.17
	L 12.86 29.06
	M 13.32 28.17
	L 12.51 28.75
	L 12.05 29.64
	L 11.24 30.23
	M 12.05 29.64
	L 11.6 30.54
	M 12.51 28.75
	L 11.7 29.34
	L 10.71 29.5
	M 11.7 29.34
	L 10.89 29.93
	L 9.9 30.09
	L 9.091 30.67
	M 9.9 30.09
	L 8.913 30.24
	L 8.104 30.83
	L 7.116 30.99
	M 8.104 30.83
	L 7.295 31.42
	L 6.841 32.31
	M 7.295 31.42
	L 6.486 32.01
	M 8.913 30.24
	L 7.925 30.4
	L 6.974 30.09
	M 7.925 30.4
	L 6.937 30.55
	M 10.89 29.93
	L 10.08 30.52
	L 9.091 30.67
	M 10.08 30.52
	L 9.27 31.1
	L 8.282 31.26
	L 7.331 30.95
	M 8.282 31.26
	L 7.295 31.42
	M 9.27 31.1
	L 8.461 31.69
	L 7.473 31.85
	M 8.461 31.69
	L 7.652 32.28
	L 7.198 33.17
	M 7.652 32.28
	L 6.843 32.87
	L 6.389 33.76
	L 6.389 34.76
	M 6.389 33.76
	L 5.935 34.65
	L 5.126 35.24
	L 4.138 35.39
	M 5.126 35.24
	L 4.317 35.83
	M 5.935 34.65
	L 5.481 35.54
	L 4.672 36.13
	M 5.481 35.54
	L 5.027 36.43
	L 5.027 37.43
	M 5.027 36.43
	L 4.573 37.32
	L 4.573 38.32
	L 4.119 39.21
	M 4.573 38.32
	L 4.573 39.32
	L 5.027 40.21
	M 4.573 39.32
	L 4.573 40.32
	M 4.573 37.32
	L 4.119 38.21
	L 3.31 38.8
	M 4.119 38.21
	L 3.665 39.1
	L 3.665 40.1
	M 3.665 39.1
	L 3.211 40
	M 6.843 32.87
	L 6.034 33.46
	L 5.58 34.35
	M 6.034 33.46
	L 5.225 34.04
	L 4.237 34.2
	L 3.428 34.79
	M 4.237 34.2
	L 3.249 34.36
	M 5.225 34.04
	L 4.416 34.63
	L 3.962 35.52
	M 4.416 34.63
	L 3.607 35.22
	L 2.619 35.38
	L 1.668 35.07
	M 2.619 35.38
	L 1.631 35.53
	L 0.6804 35.22
	L -0.3073 35.38
	M 0.6804 35.22
	L -0.2707 34.91
	M 1.631 35.53
	L 0.6438 35.69
	L -0.3073 35.38
	M 0.6438 35.69
	L -0.3439 35.84
	L -1.153 36.43
	M -0.3439 35.84
	L -1.332 36
	L -2.283 35.69
	L -2.99 34.98
	M -2.283 35.69
	L -3.234 35.38
	L -4.221 35.54
	M -3.234 35.38
	L -4.185 35.07
	L -4.892 34.37
	L -5.201 33.42
	M -4.892 34.37
	L -5.599 33.66
	L -6.55 33.35
	M -5.599 33.66
	L -6.306 32.95
	M -4.185 35.07
	L -5.136 34.76
	L -5.843 34.06
	M -5.136 34.76
	L -6.087 34.46
	L -7.075 34.61
	M -6.087 34.46
	L -7.038 34.15
	M -1.332 36
	L -2.319 36.16
	L -3.128 36.75
	M -2.319 36.16
	L -3.307 36.31
	L -4.116 36.9
	L -4.57 37.79
	M -4.116 36.9
	L -4.925 37.49
	M -3.307 36.31
	L -4.295 36.47
	L -5.246 36.16
	M -4.295 36.47
	L -5.282 36.63
	L -6.091 37.21
	M -5.282 36.63
	L -6.27 36.78
	L -7.079 37.37
	L -7.533 38.26
	M -7.079 37.37
	L -7.888 37.96
	L -8.876 38.12
	L -9.685 38.7
	M -8.876 38.12
	L -9.863 38.27
	M -7.888 37.96
	L -8.697 38.55
	L -9.685 38.7
	M -8.697 38.55
	L -9.506 39.13
	L -9.96 40.03
	L -9.96 41.03
	M -9.96 40.03
	L -10.41 40.92
	M -9.506 39.13
	L -10.32 39.72
	L -11.3 39.88
	M -10.32 39.72
	L -11.12 40.31
	L -11.58 41.2
	M -11.12 40.31
	L -11.93 40.9
	M -6.27 36.78
	L -7.258 36.94
	L -8.209 36.63
	M -7.258 36.94
	L -8.245 37.1
	L -9.054 37.68
	L -10.04 37.84
	M -9.054 37.68
	L -9.863 38.27
	M -8.245 37.1
	L -9.233 37.25
	L -10.18 36.94
	M -9.233 37.25
	L -10.22 37.41
	L -11.03 38
	M -10.22 37.41
	L -11.21 37.57
	M 3.607 35.22
	L 2.798 35.81
	L 1.81 35.96
	M 2.798 35.81
	L 1.989 36.39
	L 1.535 37.29
	L 0.7258 37.87
	M 1.535 37.29
	L 1.081 38.18
	L 1.081 39.18
	M 1.081 38.18
	L 0.6268 39.07
	M 1.989 36.39
	L 1.18 36.98
	L 0.7258 37.87
	M 1.18 36.98
	L 0.3708 37.57
	L -0.6169 37.73
	L -1.568 37.42
	M -0.6169 37.73
	L -1.605 37.88
	L -2.414 38.47
	L -3.401 38.63
	M -2.414 38.47
	L -3.223 39.06
	M -1.605 37.88
	L -2.592 38.04
	L -3.543 37.73
	M -2.592 38.04
	L -3.58 38.2
	M 0.3708 37.57
	L -0.4383 38.16
	L -1.426 38.31
	M -0.4383 38.16
	L -1.247 38.75
	L -2.235 38.9
	L -3.044 39.49
	M -2.235 38.9
	L -3.223 39.06
	M -1.247 38.75
	L -2.056 39.33
	L -3.044 39.49
	M -2.056 39.33
	L -2.865 39.92
	L -3.319 40.81
	M -2.865 39.92
	L -3.674 40.51
	L -4.128 41.4
	L -4.128 42.4
	M -4.128 41.4
	L -4.582 42.29
	M -3.674 40.51
	L -4.483 41.1
	L -5.471 41.25
	M -4.483 41.1
	L -5.292 41.68
	L -5.746 42.58
	L -6.555 43.16
	M -5.746 42.58
	L -6.2 43.47
	L -6.2 44.47
	L -5.746 45.36
	M -6.2 44.47
	L -6.2 45.47
	M -6.2 43.47
	L -6.654 44.36
	L -7.463 44.95
	M -6.654 44.36
	L -7.108 45.25
	L -7.108 46.25
	M -7.108 45.25
	L -7.562 46.14
	M -5.292 41.68
	L -6.101 42.27
	L -7.089 42.43
	M -6.101 42.27
	L -6.91 42.86
	L -7.364 43.75
	L -8.173 44.34
	M -7.364 43.75
	L -7.818 44.64
	M -6.91 42.86
	L -7.719 43.45
	L -8.173 44.34
	M -7.719 43.45
	L -8.528 44.04
	L -8.982 44.93
	L -8.982 45.93
	M -8.982 44.93
	L -9.436 45.82
	L -10.25 46.41
	L -10.7 47.3
	M -10.25 46.41
	L -11.05 46.99
	M -9.436 45.82
	L -9.89 46.71
	L -10.7 47.3
	M -9.89 46.71
	L -10.34 47.6
	L -11.15 48.19
	L -11.61 49.08
	M -11.15 48.19
	L -11.96 48.78
	L -12.95 48.93
	L -13.9 48.62
	M -12.95 48.93
	L -13.94 49.09
	L -14.75 49.68
	M -13.94 49.09
	L -14.93 49.24
	M -11.96 48.78
	L -12.77 49.36
	L -13.76 49.52
	M -12.77 49.36
	L -13.58 49.95
	L -14.03 50.84
	L -14.03 51.84
	M -14.03 50.84
	L -14.49 51.73
	M -13.58 49.95
	L -14.39 50.54
	L -15.38 50.7
	M -14.39 50.54
	L -15.2 51.13
	L -15.65 52.02
	M -15.2 51.13
	L -16.01 51.71
	M -10.34 47.6
	L -10.8 48.49
	L -11.61 49.08
	M -10.8 48.49
	L -11.25 49.38
	L -11.25 50.38
	L -11.71 51.27
	M -11.25 50.38
	L -11.25 51.38
	M -11.25 49.38
	L -11.71 50.27
	L -11.71 51.27
	M -11.71 50.27
	L -12.16 51.16
	M -8.528 44.04
	L -9.337 44.62
	L -10.33 44.78
	M -9.337 44.62
	L -10.15 45.21
	L -10.6 46.1
	M -10.15 45.21
	L -10.96 45.8
	L -11.94 45.96
	L -12.75 46.54
	M -11.94 45.96
	L -12.93 46.11
	M -10.96 45.8
	L -11.76 46.39
	L -12.22 47.28
	M -11.76 46.39
	L -12.57 46.97
	L -13.03 47.87
	L -13.03 48.87
	M -13.03 47.87
	L -13.48 48.76
	M -12.57 46.97
	L -13.38 47.56
	L -14.37 47.72
	M -13.38 47.56
	L -14.19 48.15
	L -15.18 48.31
	L -16.13 48
	M -15.18 48.31
	L -16.17 48.46
	L -17.12 48.15
	L -18.11 48.31
	M -17.12 48.15
	L -18.07 47.84
	M -16.17 48.46
	L -17.15 48.62
	L -18.11 48.31
	M -17.15 48.62
	L -18.14 48.78
	L -18.95 49.36
	M -18.14 48.78
	L -19.13 48.93
	L -19.94 49.52
	L -20.93 49.68
	M -19.94 49.52
	L -20.75 50.11
	L -21.2 51
	M -20.75 50.11
	L -21.56 50.7
	M -19.13 48.93
	L -20.12 49.09
	L -21.07 48.78
	M -20.12 49.09
	L -21.11 49.25
	L -21.91 49.83
	M -21.11 49.25
	L -22.09 49.4
	M -14.19 48.15
	L -15 48.74
	L -15.99 48.89
	M -15 48.74
	L -15.81 49.33
	L -16.26 50.22
	L -16.26 51.22
	M -16.26 50.22
	L -16.72 51.11
	M -15.81 49.33
	L -16.62 49.91
	L -17.07 50.8
	M -16.62 49.91
	L -17.43 50.5
	M 14.93 26.99
	L 14.48 27.88
	L 14.48 28.88
	M 14.48 27.88
	L 14.03 28.77
	L 14.03 29.77
	L 13.57 30.66
	M 14.03 29.77
	L 14.03 30.77
	M 14.03 28.77
	L 13.57 29.66
	L 12.76 30.25
	M 13.57 29.66
	L 13.12 30.55
	L 13.12 31.55
	M 13.12 30.55
	L 12.66 31.44
	L 11.85 32.03
	L 11.4 32.92
	M 11.85 32.03
	L 11.05 32.62
	L 10.59 33.51
	L 9.782 34.1
	M 10.59 33.51
	L 10.14 34.4
	M 11.05 32.62
	L 10.24 33.21
	L 9.248 33.36
	M 10.24 33.21
	L 9.427 33.8
	L 8.973 34.69
	M 9.427 33.8
	L 8.618 34.38
	M 12.66 31.44
	L 12.21 32.34
	L 11.4 32.92
	M 12.21 32.34
	L 11.76 33.23
	L 11.76 34.23
	L 12.21 35.12
	M 11.76 34.23
	L 11.76 35.23
	M 11.76 33.23
	L 11.3 34.12
	L 10.49 34.71
	M 11.3 34.12
	L 10.85 35.01
	L 10.85 36.01
	M 10.85 35.01
	L 10.39 35.9
	L 10.39 36.9
	L 9.939 37.79
	M 10.39 36.9
	L 10.39 37.9
	L 10.85 38.79
	L 10.85 39.79
	M 10.85 38.79
	L 11.3 39.68
	L 12.11 40.27
	M 11.3 39.68
	L 11.76 40.57
	M 10.39 37.9
	L 10.39 38.9
	L 9.939 39.79
	M 10.39 38.9
	L 10.39 39.9
	L 10.85 40.79
	M 10.39 39.9
	L 10.39 40.9
	L 9.939 41.79
	L 9.13 42.38
	M 9.939 41.79
	L 9.485 42.68
	L 8.676 43.27
	L 7.688 43.43
	M 8.676 43.27
	L 7.867 43.86
	L 7.413 44.75
	M 7.867 43.86
	L 7.058 44.45
	M 9.485 42.68
	L 9.031 43.57
	L 8.222 44.16
	M 9.031 43.57
	L 8.577 44.46
	L 8.577 45.46
	L 9.031 46.35
	M 8.577 45.46
	L 8.577 46.46
	M 8.577 44.46
	L 8.123 45.35
	L 7.314 45.94
	M 8.123 45.35
	L 7.669 46.25
	L 7.669 47.25
	M 7.669 46.25
	L 7.215 47.14
	M 10.39 40.9
	L 10.39 41.9
	L 9.939 42.79
	M 10.39 41.9
	L 10.39 42.9
	L 9.939 43.79
	L 9.939 44.79
	M 9.939 43.79
	L 9.485 44.68
	M 10.39 42.9
	L 10.39 43.9
	L 10.85 44.79
	M 10.39 43.9
	L 10.39 44.9
	L 10.85 45.79
	L 10.85 46.79
	M 10.85 45.79
	L 11.3 46.68
	L 12.11 47.27
	M 11.3 46.68
	L 11.76 47.57
	M 10.39 44.9
	L 10.39 45.9
	L 9.939 46.79
	M 10.39 45.9
	L 10.39 46.9
	L 10.85 47.79
	M 10.39 46.9
	L 10.39 47.9
	M 10.39 35.9
	L 9.939 36.79
	L 9.13 37.38
	M 9.939 36.79
	L 9.485 37.68
	L 9.485 38.68
	M 9.485 37.68
	L 9.031 38.57
	L 8.222 39.16
	L 7.768 40.05
	M 8.222 39.16
	L 7.413 39.75
	M 9.031 38.57
	L 8.577 39.46
	L 8.577 40.46
	M 8.577 39.46
	L 8.123 40.35
	L 8.123 41.35
	L 7.669 42.25
	M 8.123 41.35
	L 8.123 42.35
	L 7.669 43.25
	L 7.669 44.25
	M 7.669 43.25
	L 7.215 44.14
	M 8.123 42.35
	L 8.123 43.35
	L 7.669 44.25
	M 8.123 43.35
	L 8.123 44.35
	L 8.577 45.25
	L 8.577 46.25
	M 8.577 45.25
	L 9.031 46.14
	L 9.84 46.72
	M 9.031 46.14
	L 9.485 47.03
	M 8.123 44.35
	L 8.123 45.35
	L 7.669 46.25
	M 8.123 45.35
	L 8.123 46.35
	M 8.123 40.35
	L 7.669 41.25
	L 6.86 41.83
	M 7.669 41.25
	L 7.215 42.14
	L 6.406 42.72
	L 5.419 42.88
	M 6.406 42.72
	L 5.597 43.31
	M 7.215 42.14
	L 6.761 43.03
	L 5.952 43.62
	M 6.761 43.03
	L 6.307 43.92
	M 24.47 8.279
	L 25.36 8.733
	L 26.25 9.187
	L 27.14 9.641
	L 28.03 10.09
	L 28.98 10.4
	L 29.93 10.71
	L 30.88 11.02
	L 31.84 11.33
	L 32.82 11.49
	L 33.81 11.64
	L 34.8 11.8
	L 35.79 11.96
	L 36.79 11.96
	L 37.79 11.96
	L 38.79 11.96
	L 39.79 11.96
	L 40.77 12.11
	L 41.76 12.27
	L 42.75 12.43
	L 43.74 12.58
	L 44.74 12.58
	L 45.74 12.58
	L 46.74 12.58
	L 47.74 12.58
	L 47.74 13.58
	L 47.28 14.47
	M 47.74 13.58
	L 47.74 14.58
	L 48.19 15.47
	M 47.74 14.58
	L 47.74 15.58
	L 47.28 16.47
	L 47.28 17.47
	M 47.28 16.47
	L 46.83 17.36
	M 47.74 15.58
	L 47.74 16.58
	L 47.28 17.47
	M 47.74 16.58
	L 47.74 17.58
	L 48.19 18.47
	M 47.74 17.58
	L 47.74 18.58
	L 48.19 19.47
	L 48.19 20.47
	M 48.19 19.47
	L 48.64 20.36
	L 49.45 20.95
	M 48.64 20.36
	L 49.1 21.26
	L 49.1 22.26
	L 48.64 23.15
	M 49.1 22.26
	L 49.1 23.26
	M 49.1 21.26
	L 49.55 22.15
	L 50.36 22.73
	M 49.55 22.15
	L 50.01 23.04
	M 47.74 18.58
	L 47.74 19.58
	L 48.19 20.47
	M 47.74 19.58
	L 47.74 20.58
	L 48.19 21.47
	L 48.19 22.47
	M 48.19 21.47
	L 48.64 22.36
	M 47.74 20.58
	L 47.74 21.58
	L 47.28 22.47
	M 47.74 21.58
	L 47.74 22.58
	L 48.19 23.47
	L 48.19 24.47
	M 48.19 23.47
	L 48.64 24.36
	L 48.64 25.36
	L 49.1 26.26
	M 48.64 25.36
	L 48.64 26.36
	M 48.64 24.36
	L 49.1 25.26
	L 49.1 26.26
	M 49.1 25.26
	L 49.55 26.15
	L 50.36 26.73
	M 49.55 26.15
	L 50.01 27.04
	L 50.01 28.04
	L 50.46 28.93
	M 50.01 28.04
	L 50.01 29.04
	L 49.55 29.93
	L 49.55 30.93
	M 49.55 29.93
	L 49.1 30.82
	M 50.01 29.04
	L 50.01 30.04
	L 49.55 30.93
	M 50.01 30.04
	L 50.01 31.04
	L 50.46 31.93
	M 50.01 31.04
	L 50.01 32.04
	M 50.01 27.04
	L 50.46 27.93
	L 51.27 28.52
	M 50.46 27.93
	L 50.91 28.82
	L 50.91 29.82
	L 50.46 30.71
	M 50.91 29.82
	L 50.91 30.82
	M 50.91 28.82
	L 51.37 29.71
	L 52.18 30.3
	M 51.37 29.71
	L 51.82 30.6
	M 47.74 22.58
	L 47.74 23.58
	L 48.19 24.47
	M 47.74 23.58
	L 47.74 24.58
	L 47.28 25.47
	L 46.47 26.06
	M 47.28 25.47
	L 46.83 26.36
	L 46.83 27.36
	M 46.83 26.36
	L 46.37 27.26
	M 47.74 24.58
	L 47.74 25.58
	L 47.28 26.47
	M 47.74 25.58
	L 47.74 26.58
	L 47.28 27.47
	L 47.28 28.47
	M 47.28 27.47
	L 46.83 28.36
	L 46.02 28.95
	L 45.03 29.11
	M 46.02 28.95
	L 45.21 29.54
	M 46.83 28.36
	L 46.37 29.26
	L 45.57 29.84
	M 46.37 29.26
	L 45.92 30.15
	M 47.74 26.58
	L 47.74 27.58
	L 47.28 28.47
	M 47.74 27.58
	L 47.74 28.58
	L 48.19 29.47
	M 47.74 28.58
	L 47.74 29.58
	L 47.28 30.47
	L 46.47 31.06
	M 47.28 30.47
	L 46.83 31.36
	M 47.74 29.58
	L 47.74 30.58
	L 47.28 31.47
	M 47.74 30.58
	L 47.74 31.58
	L 48.19 32.47
	M 47.74 31.58
	L 47.74 32.58
	L 48.19 33.47
	L 49 34.06
	M 48.19 33.47
	L 48.64 34.36
	L 48.64 35.36
	L 48.19 36.26
	M 48.64 35.36
	L 48.64 36.36
	M 48.64 34.36
	L 49.1 35.26
	L 49.91 35.84
	M 49.1 35.26
	L 49.55 36.15
	L 50.36 36.73
	L 51.35 36.89
	M 50.36 36.73
	L 51.17 37.32
	M 49.55 36.15
	L 50.01 37.04
	L 50.01 38.04
	M 50.01 37.04
	L 50.46 37.93
	M 47.74 32.58
	L 47.74 33.58
	L 47.28 34.47
	M 47.74 33.58
	L 47.74 34.58
	L 48.19 35.47
	M 47.74 34.58
	L 47.74 35.58
	L 47.28 36.47
	L 46.47 37.06
	M 47.28 36.47
	L 46.83 37.36
	M 47.74 35.58
	L 47.74 36.58
	L 48.19 37.47
	M 47.74 36.58
	L 47.74 37.58
	L 47.28 38.47
	L 47.28 39.47
	M 47.28 38.47
	L 46.83 39.36
	L 46.02 39.95
	L 45.57 40.84
	M 46.02 39.95
	L 45.21 40.54
	M 46.83 39.36
	L 46.37 40.26
	L 45.57 40.84
	M 46.37 40.26
	L 45.92 41.15
	L 45.92 42.15
	M 45.92 41.15
	L 45.47 42.04
	L 45.47 43.04
	L 45.01 43.93
	M 45.47 43.04
	L 45.47 44.04
	M 45.47 42.04
	L 45.01 42.93
	L 44.2 43.52
	M 45.01 42.93
	L 44.56 43.82
	L 43.75 44.41
	L 42.76 44.56
	M 43.75 44.41
	L 42.94 44.99
	L 42.49 45.89
	M 42.94 44.99
	L 42.13 45.58
	L 41.14 45.74
	L 40.19 45.43
	M 41.14 45.74
	L 40.16 45.9
	L 39.35 46.48
	M 40.16 45.9
	L 39.17 46.05
	M 42.13 45.58
	L 41.32 46.17
	L 40.33 46.33
	M 41.32 46.17
	L 40.51 46.76
	L 40.06 47.65
	L 40.06 48.65
	M 40.06 47.65
	L 39.61 48.54
	M 40.51 46.76
	L 39.7 47.35
	L 39.25 48.24
	M 39.7 47.35
	L 38.9 47.93
	M 44.56 43.82
	L 44.1 44.71
	L 43.3 45.3
	M 44.1 44.71
	L 43.65 45.6
	L 43.65 46.6
	M 43.65 45.6
	L 43.2 46.49
	L 42.39 47.08
	L 41.4 47.24
	M 42.39 47.08
	L 41.58 47.67
	M 43.2 46.49
	L 42.74 47.38
	L 42.74 48.38
	M 42.74 47.38
	L 42.29 48.27
	L 42.29 49.27
	L 41.83 50.17
	M 42.29 49.27
	L 42.29 50.27
	M 42.29 48.27
	L 41.83 49.17
	L 41.03 49.75
	M 41.83 49.17
	L 41.38 50.06
	L 41.38 51.06
	M 41.38 50.06
	L 40.93 50.95
	L 40.93 51.95
	L 41.38 52.84
	M 40.93 51.95
	L 40.93 52.95
	L 40.47 53.84
	L 40.47 54.84
	M 40.47 53.84
	L 40.02 54.73
	M 40.93 52.95
	L 40.93 53.95
	L 41.38 54.84
	M 40.93 53.95
	L 40.93 54.95
	L 41.38 55.84
	L 41.38 56.84
	M 41.38 55.84
	L 41.83 56.73
	L 42.64 57.32
	M 41.83 56.73
	L 42.29 57.62
	M 40.93 54.95
	L 40.93 55.95
	L 41.38 56.84
	M 40.93 55.95
	L 40.93 56.95
	M 40.93 50.95
	L 40.47 51.84
	L 39.66 52.43
	M 40.47 51.84
	L 40.02 52.73
	L 40.02 53.73
	M 40.02 52.73
	L 39.56 53.62
	L 38.76 54.21
	L 37.77 54.36
	M 38.76 54.21
	L 37.95 54.8
	M 39.56 53.62
	L 39.11 54.51
	L 38.3 55.1
	M 39.11 54.51
	L 38.66 55.4
	L 38.66 56.4
	M 38.66 55.4
	L 38.2 56.29
	L 38.2 57.29
	L 37.75 58.18
	M 38.2 57.29
	L 38.2 58.29
	M 38.2 56.29
	L 37.75 57.18
	L 37.75 58.18
	M 37.75 57.18
	L 37.29 58.08
	L 36.49 58.66
	L 35.5 58.82
	M 36.49 58.66
	L 35.68 59.25
	L 35.22 60.14
	M 35.68 59.25
	L 34.87 59.84
	L 33.88 60
	L 33.07 60.58
	M 33.88 60
	L 32.89 60.15
	M 34.87 59.84
	L 34.06 60.43
	L 33.07 60.58
	M 34.06 60.43
	L 33.25 61.01
	L 32.8 61.91
	L 31.99 62.49
	M 32.8 61.91
	L 32.34 62.8
	M 33.25 61.01
	L 32.44 61.6
	L 31.45 61.76
	M 32.44 61.6
	L 31.63 62.19
	L 31.18 63.08
	L 30.37 63.67
	M 31.18 63.08
	L 30.72 63.97
	L 29.91 64.56
	L 28.93 64.72
	M 29.91 64.56
	L 29.11 65.15
	L 28.65 66.04
	M 29.11 65.15
	L 28.3 65.74
	M 30.72 63.97
	L 30.27 64.86
	L 29.46 65.45
	M 30.27 64.86
	L 29.82 65.75
	M 31.63 62.19
	L 30.82 62.78
	L 29.84 62.93
	M 30.82 62.78
	L 30.01 63.37
	L 29.56 64.26
	M 30.01 63.37
	L 29.2 63.95
	L 28.22 64.11
	L 27.41 64.7
	M 28.22 64.11
	L 27.23 64.27
	M 29.2 63.95
	L 28.4 64.54
	L 27.41 64.7
	M 28.4 64.54
	L 27.59 65.13
	L 27.13 66.02
	M 27.59 65.13
	L 26.78 65.72
	M 37.29 58.08
	L 36.84 58.97
	L 36.84 59.97
	M 36.84 58.97
	L 36.39 59.86
	L 35.58 60.45
	L 34.59 60.6
	M 35.58 60.45
	L 34.77 61.03
	M 36.39 59.86
	L 35.93 60.75
	L 35.93 61.75
	M 35.93 60.75
	L 35.48 61.64
	L 35.48 62.64
	L 35.02 63.53
	M 35.48 62.64
	L 35.48 63.64
	M 35.48 61.64
	L 35.02 62.53
	L 34.22 63.12
	M 35.02 62.53
	L 34.57 63.42
	L 34.57 64.42
	L 34.12 65.31
	M 34.57 64.42
	L 34.57 65.42
	L 35.02 66.31
	M 34.57 65.42
	L 34.57 66.42
	L 35.02 67.31
	L 35.02 68.31
	M 35.02 67.31
	L 35.48 68.2
	L 36.29 68.79
	M 35.48 68.2
	L 35.93 69.09
	M 34.57 66.42
	L 34.57 67.42
	L 34.12 68.31
	M 34.57 67.42
	L 34.57 68.42
	M 34.57 63.42
	L 34.12 64.31
	L 33.31 64.9
	M 34.12 64.31
	L 33.66 65.2
	L 32.85 65.79
	L 32.4 66.68
	M 32.85 65.79
	L 32.04 66.38
	M 33.66 65.2
	L 33.21 66.09
	L 32.4 66.68
	M 33.21 66.09
	L 32.75 66.99
	L 32.75 67.99
	M 32.75 66.99
	L 32.3 67.88
	L 32.3 68.88
	L 31.85 69.77
	M 32.3 68.88
	L 32.3 69.88
	L 32.75 70.77
	M 32.3 69.88
	L 32.3 70.88
	L 32.75 71.77
	L 32.75 72.77
	M 32.75 71.77
	L 33.21 72.66
	M 32.3 70.88
	L 32.3 71.88
	L 31.85 72.77
	M 32.3 71.88
	L 32.3 72.88
	L 32.75 73.77
	M 32.3 72.88
	L 32.3 73.88
	L 31.85 74.77
	L 31.04 75.36
	M 31.85 74.77
	L 31.39 75.66
	L 31.39 76.66
	M 31.39 75.66
	L 30.94 76.55
	L 30.13 77.14
	L 29.14 77.29
	M 30.13 77.14
	L 29.32 77.73
	M 30.94 76.55
	L 30.48 77.44
	L 30.48 78.44
	M 30.48 77.44
	L 30.03 78.33
	M 32.3 73.88
	L 32.3 74.88
	L 31.85 75.77
	M 32.3 74.88
	L 32.3 75.88
	L 32.75 76.77
	M 32.3 75.88
	L 32.3 76.88
	L 32.75 77.77
	L 32.75 78.77
	M 32.75 77.77
	L 33.21 78.66
	M 32.3 76.88
	L 32.3 77.88
	L 31.85 78.77
	M 32.3 77.88
	L 32.3 78.88
	L 32.75 79.77
	L 33.56 80.36
	M 32.75 79.77
	L 33.21 80.66
	L 34.02 81.25
	L 35.01 81.4
	M 34.02 81.25
	L 34.83 81.83
	M 33.21 80.66
	L 33.66 81.55
	L 33.66 82.55
	M 33.66 81.55
	L 34.12 82.44
	L 34.93 83.03
	M 34.12 82.44
	L 34.57 83.33
	M 32.3 78.88
	L 32.3 79.88
	L 32.75 80.77
	M 32.3 79.88
	L 32.3 80.88
	L 31.85 81.77
	L 31.85 82.77
	M 31.85 81.77
	L 31.39 82.66
	M 32.3 80.88
	L 32.3 81.88
	L 32.75 82.77
	M 32.3 81.88
	L 32.3 82.88
	M 32.3 67.88
	L 31.85 68.77
	L 31.85 69.77
	M 31.85 68.77
	L 31.39 69.66
	L 31.39 70.66
	L 30.94 71.55
	M 31.39 70.66
	L 31.39 71.66
	M 31.39 69.66
	L 30.94 70.55
	L 30.94 71.55
	M 30.94 70.55
	L 30.48 71.44
	L 29.68 72.03
	L 28.69 72.18
	M 29.68 72.03
	L 28.87 72.62
	L 28.41 73.51
	L 27.6 74.09
	M 28.41 73.51
	L 27.96 74.4
	L 27.96 75.4
	M 27.96 74.4
	L 27.5 75.29
	M 28.87 72.62
	L 28.06 73.2
	L 27.07 73.36
	M 28.06 73.2
	L 27.25 73.79
	L 26.79 74.68
	M 27.25 73.79
	L 26.44 74.38
	M 30.48 71.44
	L 30.03 72.33
	L 29.22 72.92
	M 30.03 72.33
	L 29.58 73.22
	L 29.58 74.22
	M 29.58 73.22
	L 29.12 74.11
	L 29.12 75.11
	L 28.67 76
	M 29.12 75.11
	L 29.12 76.11
	L 29.58 77
	M 29.12 76.11
	L 29.12 77.11
	M 29.12 74.11
	L 28.67 75
	L 27.86 75.59
	M 28.67 75
	L 28.22 75.9
	L 28.22 76.9
	M 28.22 75.9
	L 27.76 76.79
	L 27.76 77.79
	L 27.31 78.68
	M 27.76 77.79
	L 27.76 78.79
	L 28.22 79.68
	M 27.76 78.79
	L 27.76 79.79
	L 27.31 80.68
	L 26.5 81.27
	M 27.31 80.68
	L 26.85 81.57
	M 27.76 79.79
	L 27.76 80.79
	L 28.22 81.68
	M 27.76 80.79
	L 27.76 81.79
	L 28.22 82.68
	L 28.22 83.68
	M 28.22 82.68
	L 28.67 83.57
	M 27.76 81.79
	L 27.76 82.79
	L 27.31 83.68
	M 27.76 82.79
	L 27.76 83.79
	L 28.22 84.68
	M 27.76 83.79
	L 27.76 84.79
	M 27.76 76.79
	L 27.31 77.68
	L 27.31 78.68
	M 27.31 77.68
	L 26.85 78.57
	L 26.85 79.57
	L 26.4 80.46
	M 26.85 79.57
	L 26.85 80.57
	L 27.31 81.46
	M 26.85 80.57
	L 26.85 81.57
	M 26.85 78.57
	L 26.4 79.46
	L 26.4 80.46
	M 26.4 79.46
	L 25.95 80.35
	M 47.74 37.58
	L 47.74 38.58
	L 48.19 39.47
	M 47.74 38.58
	L 47.74 39.58
	L 47.28 40.47
	L 47.28 41.47
	M 47.28 40.47
	L 46.83 41.36
	M 47.74 39.58
	L 47.74 40.58
	L 47.28 41.47
	M 47.74 40.58
	L 47.74 41.58
	L 48.19 42.47
	M 47.74 41.58
	L 47.74 42.58
	L 47.28 43.47
	L 47.28 44.47
	M 47.28 43.47
	L 46.83 44.36
	L 46.02 44.95
	L 45.03 45.11
	M 46.02 44.95
	L 45.21 45.54
	M 46.83 44.36
	L 46.37 45.26
	L 46.37 46.26
	M 46.37 45.26
	L 45.92 46.15
	M 47.74 42.58
	L 47.74 43.58
	L 47.28 44.47
	M 47.74 43.58
	L 47.74 44.58
	L 48.19 45.47
	M 47.74 44.58
	L 47.74 45.58
	L 47.28 46.47
	L 46.47 47.06
	M 47.28 46.47
	L 46.83 47.36
	M 47.74 45.58
	L 47.74 46.58
	L 47.28 47.47
	M 47.74 46.58
	L 47.74 47.58
	L 48.19 48.47
	L 49 49.06
	M 48.19 48.47
	L 48.64 49.36
	L 49.45 49.95
	L 50.44 50.11
	M 49.45 49.95
	L 50.26 50.54
	M 48.64 49.36
	L 49.1 50.26
	L 49.1 51.26
	M 49.1 50.26
	L 49.55 51.15
	L 50.36 51.73
	M 49.55 51.15
	L 50.01 52.04
	M 47.74 47.58
	L 47.74 48.58
	L 47.28 49.47
	M 47.74 48.58
	L 47.74 49.58
	L 48.19 50.47
	M 47.74 49.58
	L 47.74 50.58
	L 47.28 51.47
	L 46.47 52.06
	M 47.28 51.47
	L 46.83 52.36
	L 46.83 53.36
	M 46.83 52.36
	L 46.37 53.26
	M 47.74 50.58
	L 47.74 51.58
	L 47.28 52.47
	M 47.74 51.58
	L 47.74 52.58
	L 48.19 53.47
	M 47.74 52.58
	L 47.74 53.58
	L 48.19 54.47
	L 49 55.06
	M 48.19 54.47
	L 48.64 55.36
	M 47.74 53.58
	L 47.74 54.58
	L 47.28 55.47
	M 47.74 54.58
	L 47.74 55.58
	L 48.19 56.47
	M 47.74 55.58
	L 47.74 56.58
	L 47.28 57.47
	L 47.28 58.47
	M 47.28 57.47
	L 46.83 58.36
	L 46.02 58.95
	L 45.03 59.11
	M 46.02 58.95
	L 45.21 59.54
	L 44.76 60.43
	M 45.21 59.54
	L 44.4 60.13
	M 46.83 58.36
	L 46.37 59.26
	L 46.37 60.26
	M 46.37 59.26
	L 45.92 60.15
	L 45.92 61.15
	L 45.47 62.04
	M 45.92 61.15
	L 45.92 62.15
	M 45.92 60.15
	L 45.47 61.04
	L 44.66 61.63
	M 45.47 61.04
	L 45.01 61.93
	L 44.2 62.52
	L 43.22 62.67
	M 44.2 62.52
	L 43.39 63.1
	L 42.94 63.99
	L 42.13 64.58
	M 42.94 63.99
	L 42.49 64.89
	L 42.49 65.89
	M 42.49 64.89
	L 42.03 65.78
	M 43.39 63.1
	L 42.59 63.69
	L 41.6 63.85
	M 42.59 63.69
	L 41.78 64.28
	L 41.32 65.17
	M 41.78 64.28
	L 40.97 64.87
	M 45.01 61.93
	L 44.56 62.82
	L 43.75 63.41
	M 44.56 62.82
	L 44.1 63.71
	L 43.3 64.3
	L 42.31 64.45
	M 43.3 64.3
	L 42.49 64.89
	M 44.1 63.71
	L 43.65 64.6
	L 42.84 65.19
	M 43.65 64.6
	L 43.2 65.49
	L 43.2 66.49
	M 43.2 65.49
	L 42.74 66.38
	M 47.74 56.58
	L 47.74 57.58
	L 47.28 58.47
	M 47.74 57.58
	L 47.74 58.58
	L 48.19 59.47
	M 47.74 58.58
	L 47.74 59.58
	L 47.28 60.47
	L 47.28 61.47
	M 47.28 60.47
	L 46.83 61.36
	M 47.74 59.58
	L 47.74 60.58
	L 47.28 61.47
	M 47.74 60.58
	L 47.74 61.58
	L 48.19 62.47
	M 47.74 61.58
	L 47.74 62.58
	L 48.19 63.47
	L 49 64.06
	M 48.19 63.47
	L 48.64 64.36
	M 47.74 62.58
	L 47.74 63.58
	L 47.28 64.47
	M 47.74 63.58
	L 47.74 64.58
	L 47.28 65.47
	L 46.47 66.06
	M 47.28 65.47
	L 46.83 66.36
	L 46.83 67.36
	L 46.37 68.26
	M 46.83 67.36
	L 46.83 68.36
	L 47.28 69.26
	M 46.83 68.36
	L 46.83 69.36
	M 46.83 66.36
	L 46.37 67.26
	L 45.57 67.84
	M 46.37 67.26
	L 45.92 68.15
	L 45.92 69.15
	M 45.92 68.15
	L 45.47 69.04
	M 47.74 64.58
	L 47.74 65.58
	L 48.19 66.47
	M 47.74 65.58
	L 47.74 66.58
	L 48.19 67.47
	L 48.19 68.47
	M 48.19 67.47
	L 48.64 68.36
	M 47.74 66.58
	L 47.74 67.58
	L 48.19 68.47
	M 47.74 67.58
	L 47.74 68.58
	L 48.19 69.47
	L 48.19 70.47
	M 48.19 69.47
	L 48.64 70.36
	L 49.45 70.95
	M 48.64 70.36
	L 49.1 71.26
	L 49.91 71.84
	L 50.9 72
	M 49.91 71.84
	L 50.72 72.43
	M 49.1 71.26
	L 49.55 72.15
	L 49.55 73.15
	M 49.55 72.15
	L 50.01 73.04
	L 50.01 74.04
	L 49.55 74.93
	M 50.01 74.04
	L 50.01 75.04
	L 50.46 75.93
	M 50.01 75.04
	L 50.01 76.04
	L 49.55 76.93
	L 48.74 77.52
	M 49.55 76.93
	L 49.1 77.82
	L 49.1 78.82
	M 49.1 77.82
	L 48.64 78.71
	M 50.01 76.04
	L 50.01 77.04
	L 49.55 77.93
	M 50.01 77.04
	L 50.01 78.04
	M 50.01 73.04
	L 50.46 73.93
	L 51.27 74.52
	M 50.46 73.93
	L 50.91 74.82
	L 50.91 75.82
	L 50.46 76.71
	M 50.91 75.82
	L 50.91 76.82
	L 51.37 77.71
	M 50.91 76.82
	L 50.91 77.82
	M 50.91 74.82
	L 51.37 75.71
	L 51.37 76.71
	M 51.37 75.71
	L 51.82 76.6
	L 52.63 77.19
	M 51.82 76.6
	L 52.28 77.49
	L 53.09 78.08
	L 53.54 78.97
	M 53.09 78.08
	L 53.89 78.67
	L 54.88 78.82
	M 53.89 78.67
	L 54.7 79.26
	M 52.28 77.49
	L 52.73 78.38
	L 52.73 79.38
	M 52.73 78.38
	L 53.18 79.27
	L 53.99 79.86
	M 53.18 79.27
	L 53.64 80.17
	L 54.45 80.75
	L 54.9 81.64
	M 54.45 80.75
	L 55.26 81.34
	L 56.24 81.5
	M 55.26 81.34
	L 56.07 81.93
	L 56.52 82.82
	L 56.52 83.82
	M 56.52 82.82
	L 56.97 83.71
	M 56.07 81.93
	L 56.87 82.52
	L 57.33 83.41
	M 56.87 82.52
	L 57.68 83.1
	M 53.64 80.17
	L 54.09 81.06
	L 54.9 81.64
	M 54.09 81.06
	L 54.55 81.95
	L 54.55 82.95
	L 54.09 83.84
	M 54.55 82.95
	L 54.55 83.95
	L 55 84.84
	M 54.55 83.95
	L 54.55 84.95
	M 54.55 81.95
	L 55 82.84
	L 55 83.84
	M 55 82.84
	L 55.45 83.73
	L 56.26 84.32
	L 56.72 85.21
	M 56.26 84.32
	L 57.07 84.9
	L 58.06 85.06
	M 57.07 84.9
	L 57.88 85.49
	M 55.45 83.73
	L 55.91 84.62
	L 55.91 85.62
	M 55.91 84.62
	L 56.36 85.51
	L 57.17 86.1
	M 56.36 85.51
	L 56.82 86.4
	L 57.63 86.99
	L 58.08 87.88
	M 57.63 86.99
	L 58.43 87.58
	L 59.42 87.73
	M 58.43 87.58
	L 59.24 88.17
	L 59.7 89.06
	L 60.51 89.64
	M 59.7 89.06
	L 60.15 89.95
	M 59.24 88.17
	L 60.05 88.75
	L 60.51 89.64
	M 60.05 88.75
	L 60.86 89.34
	L 61.85 89.5
	M 60.86 89.34
	L 61.67 89.93
	L 62.66 90.09
	L 63.61 89.78
	M 62.66 90.09
	L 63.65 90.24
	L 64.45 90.83
	L 65.44 90.99
	M 64.45 90.83
	L 65.26 91.42
	M 63.65 90.24
	L 64.63 90.4
	L 65.58 90.09
	M 64.63 90.4
	L 65.62 90.55
	L 66.57 90.25
	L 67.56 90.4
	M 66.57 90.25
	L 67.52 89.94
	L 68.23 89.23
	M 67.52 89.94
	L 68.47 89.63
	M 65.62 90.55
	L 66.61 90.71
	L 67.56 90.4
	M 66.61 90.71
	L 67.6 90.87
	M 61.67 89.93
	L 62.48 90.52
	L 62.93 91.41
	M 62.48 90.52
	L 63.29 91.1
	L 64.28 91.26
	M 63.29 91.1
	L 64.1 91.69
	L 64.55 92.58
	L 65.36 93.17
	M 64.55 92.58
	L 65.01 93.47
	M 64.1 91.69
	L 64.91 92.28
	L 65.36 93.17
	M 64.91 92.28
	L 65.72 92.87
	L 66.7 93.02
	M 65.72 92.87
	L 66.52 93.46
	L 67.51 93.61
	L 68.32 94.2
	M 67.51 93.61
	L 68.5 93.77
	L 69.45 93.46
	M 68.5 93.77
	L 69.49 93.93
	M 66.52 93.46
	L 67.33 94.04
	L 67.79 94.93
	M 67.33 94.04
	L 68.14 94.63
	M 56.82 86.4
	L 57.27 87.29
	L 58.08 87.88
	M 57.27 87.29
	L 57.72 88.18
	L 57.72 89.18
	L 57.27 90.08
	M 57.72 89.18
	L 57.72 90.18
	L 58.18 91.08
	M 57.72 90.18
	L 57.72 91.18
	M 57.72 88.18
	L 58.18 89.08
	L 58.18 90.08
	M 58.18 89.08
	L 58.63 89.97
	L 59.44 90.55
	L 59.9 91.45
	M 59.44 90.55
	L 60.25 91.14
	L 61.24 91.3
	M 60.25 91.14
	L 61.06 91.73
	M 58.63 89.97
	L 59.09 90.86
	L 59.09 91.86
	M 59.09 90.86
	L 59.54 91.75
	L 60.35 92.34
	M 59.54 91.75
	L 59.99 92.64
	L 59.99 93.64
	L 59.54 94.53
	M 59.99 93.64
	L 59.99 94.64
	L 60.45 95.53
	M 59.99 94.64
	L 59.99 95.64
	L 60.45 96.53
	L 60.45 97.53
	M 60.45 96.53
	L 60.9 97.42
	L 61.71 98.01
	M 60.9 97.42
	L 61.36 98.31
	M 59.99 95.64
	L 59.99 96.64
	L 60.45 97.53
	M 59.99 96.64
	L 59.99 97.64
	M 59.99 92.64
	L 60.45 93.53
	L 60.45 94.53
	M 60.45 93.53
	L 60.9 94.42
	L 61.71 95.01
	M 60.9 94.42
	L 61.36 95.31
	L 62.17 95.9
	L 62.62 96.79
	M 62.17 95.9
	L 62.97 96.49
	L 63.96 96.64
	M 62.97 96.49
	L 63.78 97.08
	M 61.36 95.31
	L 61.81 96.2
	L 61.81 97.2
	M 61.81 96.2
	L 62.26 97.09
	M 47.74 68.58
	L 47.74 69.58
	L 47.28 70.47
	M 47.74 69.58
	L 47.74 70.58
	L 48.19 71.47
	M 47.74 70.58
	L 47.74 71.58
	L 47.28 72.47
	L 46.47 73.06
	M 47.28 72.47
	L 46.83 73.36
	L 46.83 74.36
	M 46.83 73.36
	L 46.37 74.26
	M 47.74 71.58
	L 47.74 72.58
	L 47.28 73.47
	M 47.74 72.58
	L 47.74 73.58
	L 48.19 74.47
	L 48.19 75.47
	M 48.19 74.47
	L 48.64 75.36
	L 49.45 75.95
	M 48.64 75.36
	L 49.1 76.26
	M 47.74 73.58
	L 47.74 74.58
	L 47.28 75.47
	M 47.74 74.58
	L 47.74 75.58
	L 48.19 76.47
	M 47.74 75.58
	L 47.74 76.58
	L 47.28 77.47
	L 47.28 78.47
	M 47.28 77.47
	L 46.83 78.36
	L 46.02 78.95
	L 45.57 79.84
	M 46.02 78.95
	L 45.21 79.54
	M 46.83 78.36
	L 46.37 79.26
	L 46.37 80.26
	M 46.37 79.26
	L 45.92 80.15
	M 47.74 76.58
	L 47.74 77.58
	L 47.28 78.47
	M 47.74 77.58
	L 47.74 78.58
	L 47.28 79.47
	L 46.47 80.06
	M 47.28 79.47
	L 46.83 80.36
	L 46.83 81.36
	M 46.83 80.36
	L 46.37 81.26
	M 47.74 78.58
	L 47.74 79.58
	L 47.28 80.47
	M 47.74 79.58
	L 47.74 80.58
	L 48.19 81.47
	L 48.19 82.47
	M 48.19 81.47
	L 48.64 82.36
	L 49.45 82.95
	M 48.64 82.36
	L 49.1 83.26
	L 49.91 83.84
	L 50.9 84
	M 49.91 83.84
	L 50.72 84.43
	M 49.1 83.26
	L 49.55 84.15
	L 49.55 85.15
	M 49.55 84.15
	L 50.01 85.04
	L 50.01 86.04
	L 49.55 86.93
	M 50.01 86.04
	L 50.01 87.04
	L 49.55 87.93
	L 48.74 88.52
	M 49.55 87.93
	L 49.1 88.82
	M 50.01 87.04
	L 50.01 88.04
	L 50.46 88.93
	M 50.01 88.04
	L 50.01 89.04
	M 50.01 85.04
	L 50.46 85.93
	L 50.46 86.93
	M 50.46 85.93
	L 50.91 86.82
	L 50.91 87.82
	L 51.37 88.71
	M 50.91 87.82
	L 50.91 88.82
	M 50.91 86.82
	L 51.37 87.71
	L 51.37 88.71
	M 51.37 87.71
	L 51.82 88.6
	L 52.63 89.19
	M 51.82 88.6
	L 52.28 89.49
	L 53.09 90.08
	L 53.54 90.97
	M 53.09 90.08
	L 53.89 90.67
	L 54.35 91.56
	L 54.35 92.56
	M 54.35 91.56
	L 54.8 92.45
	M 53.89 90.67
	L 54.7 91.26
	L 55.69 91.41
	M 54.7 91.26
	L 55.51 91.84
	L 56.5 92
	L 57.31 92.59
	M 56.5 92
	L 57.49 92.16
	M 55.51 91.84
	L 56.32 92.43
	L 56.78 93.32
	M 56.32 92.43
	L 57.13 93.02
	M 52.28 89.49
	L 52.73 90.38
	L 52.73 91.38
	M 52.73 90.38
	L 53.18 91.27
	L 53.99 91.86
	M 53.18 91.27
	L 53.64 92.17
	L 54.45 92.75
	L 54.9 93.64
	M 54.45 92.75
	L 55.26 93.34
	M 53.64 92.17
	L 54.09 93.06
	L 54.9 93.64
	M 54.09 93.06
	L 54.55 93.95
	M 47.74 80.58
	L 47.74 81.58
	L 48.19 82.47
	M 47.74 81.58
	L 47.74 82.58
	L 47.28 83.47
	L 46.47 84.06
	M 47.28 83.47
	L 46.83 84.36
	M 47.74 82.58
	L 47.74 83.58
	L 47.28 84.47
	M 47.74 83.58
	L 47.74 84.58
	L 48.19 85.47
	M 47.74 84.58
	L 47.74 85.58
	L 47.28 86.47
	L 47.28 87.47
	M 47.28 86.47
	L 46.83 87.36
	L 46.83 88.36
	L 46.37 89.26
	M 46.83 88.36
	L 46.83 89.36
	L 47.28 90.26
	M 46.83 89.36
	L 46.83 90.36
	M 46.83 87.36
	L 46.37 88.26
	L 46.37 89.26
	M 46.37 88.26
	L 45.92 89.15
	M 47.74 85.58
	L 47.74 86.58
	L 47.28 87.47
	M 47.74 86.58
	L 47.74 87.58
	L 47.28 88.47
	L 47.28 89.47
	M 47.28 88.47
	L 46.83 89.36
	M 47.74 87.58
	L 47.74 88.58
	L 47.28 89.47
	M 47.74 88.58
	L 47.74 89.58
	L 48.19 90.47
	M 47.74 89.58
	L 47.74 90.58
	L 48.19 91.47
	L 48.19 92.47
	M 48.19 91.47
	L 48.64 92.36
	L 49.45 92.95
	M 48.64 92.36
	L 49.1 93.26
	M 47.74 90.58
	L 47.74 91.58
	L 48.19 92.47
	M 47.74 91.58
	L 47.74 92.58
	L 48.19 93.47
	L 48.19 94.47
	M 48.19 93.47
	L 48.64 94.36
	L 48.64 95.36
	L 48.19 96.26
	M 48.64 95.36
	L 48.64 96.36
	L 49.1 97.26
	M 48.64 96.36
	L 48.64 97.36
	M 48.64 94.36
	L 49.1 95.26
	L 49.91 95.84
	M 49.1 95.26
	L 49.55 96.15
	L 50.36 96.73
	L 51.35 96.89
	M 50.36 96.73
	L 51.17 97.32
	M 49.55 96.15
	L 50.01 97.04
	L 50.82 97.63
	M 50.01 97.04
	L 50.46 97.93
	M 47.74 92.58
	L 47.74 93.58
	L 47.28 94.47
	M 47.74 93.58
	L 47.74 94.58
	L 48.19 95.47
	M 47.74 94.58
	L 47.74 95.58
	L 47.28 96.47
	L 46.47 97.06
	M 47.28 96.47
	L 46.83 97.36
	M 47.74 95.58
	L 47.74 96.58
	L 47.28 97.47
	M 47.74 96.58
	L 47.74 97.58
	L 48.19 98.47
	M 47.74 97.58
	L 47.74 98.58
	L 48.19 99.47
	L 49 100.1
	M 48.19 99.47
	L 48.64 100.4
	M 47.74 98.58
	L 47.74 99.58
	L 47.28 100.5
	M 47.74 99.58
	L 47.74 100.6
	M 47.74 12.58
	L 48.74 12.58
	L 49.74 12.58
	L 50.74 12.58
	L 51.74 12.58
	L 52.72 12.43
	L 53.71 12.27
	L 54.7 12.11
	L 55.69 11.96
	L 56.69 11.96
	L 57.69 11.96
	L 58.69 11.96
	L 59.69 11.96
	L 60.68 11.8
	L 61.66 11.64
	L 62.65 11.49
	L 63.64 11.33
	L 64.59 11.02
	L 65.54 10.71
	L 66.49 10.4
	L 67.44 10.09
	L 68.33 9.641
	L 69.22 9.187
	L 70.12 8.733
	L 71.01 8.279
	L 71.82 7.691
	L 72.62 7.103
	L 73.43 6.515
	L 74.24 5.928
	L 74.83 6.737
	L 74.99 7.724
	M 74.83 6.737
	L 75.42 7.546
	L 76.31 8
	M 75.42 7.546
	L 76.01 8.355
	L 76.16 9.342
	L 76.75 10.15
	M 76.16 9.342
	L 76.32 10.33
	M 76.01 8.355
	L 76.59 9.164
	L 76.75 10.15
	M 76.59 9.164
	L 77.18 9.973
	L 78.07 10.43
	M 77.18 9.973
	L 77.77 10.78
	L 78.66 11.24
	L 79.25 12.04
	M 78.66 11.24
	L 79.55 11.69
	L 80.55 11.69
	L 81.44 11.24
	M 80.55 11.69
	L 81.55 11.69
	M 79.55 11.69
	L 80.44 12.14
	L 81.03 12.95
	M 80.44 12.14
	L 81.33 12.6
	L 82.33 12.6
	M 81.33 12.6
	L 82.22 13.05
	M 77.77 10.78
	L 78.36 11.59
	L 78.51 12.58
	M 78.36 11.59
	L 78.94 12.4
	L 79.84 12.85
	L 80.42 13.66
	M 79.84 12.85
	L 80.73 13.31
	L 81.73 13.31
	M 80.73 13.31
	L 81.62 13.76
	M 78.94 12.4
	L 79.53 13.21
	L 79.69 14.2
	M 79.53 13.21
	L 80.12 14.02
	L 81.01 14.47
	M 80.12 14.02
	L 80.71 14.83
	L 80.86 15.81
	L 81.45 16.62
	M 80.86 15.81
	L 81.02 16.8
	L 80.71 17.75
	L 80 18.46
	M 80.71 17.75
	L 80.4 18.7
	L 80.56 19.69
	M 80.4 18.7
	L 80.09 19.66
	M 81.02 16.8
	L 81.18 17.79
	L 80.87 18.74
	M 81.18 17.79
	L 81.33 18.78
	L 81.92 19.59
	L 82.08 20.57
	M 81.92 19.59
	L 82.51 20.4
	M 81.33 18.78
	L 81.49 19.77
	L 81.18 20.72
	M 81.49 19.77
	L 81.65 20.75
	L 81.34 21.7
	L 80.63 22.41
	M 81.34 21.7
	L 81.03 22.66
	L 81.19 23.64
	M 81.03 22.66
	L 80.72 23.61
	L 80.01 24.31
	L 79.06 24.62
	M 80.01 24.31
	L 79.31 25.02
	L 79 25.97
	M 79.31 25.02
	L 78.6 25.73
	M 80.72 23.61
	L 80.41 24.56
	L 79.7 25.26
	M 80.41 24.56
	L 80.1 25.51
	L 80.26 26.5
	L 79.95 27.45
	M 80.26 26.5
	L 80.41 27.48
	M 80.1 25.51
	L 79.79 26.46
	L 79.09 27.17
	M 79.79 26.46
	L 79.48 27.41
	M 81.65 20.75
	L 81.8 21.74
	L 82.39 22.55
	M 81.8 21.74
	L 81.96 22.73
	L 81.65 23.68
	L 81.81 24.67
	M 81.65 23.68
	L 81.34 24.63
	M 81.96 22.73
	L 82.12 23.72
	L 81.81 24.67
	M 82.12 23.72
	L 82.27 24.7
	L 82.86 25.51
	M 82.27 24.7
	L 82.43 25.69
	M 80.71 14.83
	L 81.3 15.64
	L 81.45 16.62
	M 81.3 15.64
	L 81.88 16.44
	L 82.04 17.43
	L 81.73 18.38
	M 82.04 17.43
	L 82.2 18.42
	M 81.88 16.44
	L 82.47 17.25
	L 82.63 18.24
	M 82.47 17.25
	L 83.06 18.06
	L 83.95 18.52
	M 83.06 18.06
	L 83.65 18.87
	L 83.8 19.86
	L 83.49 20.81
	M 83.8 19.86
	L 83.96 20.85
	L 83.65 21.8
	L 82.94 22.51
	M 83.65 21.8
	L 83.34 22.75
	M 83.96 20.85
	L 84.12 21.83
	L 83.81 22.79
	M 84.12 21.83
	L 84.27 22.82
	L 84.86 23.63
	M 84.27 22.82
	L 84.43 23.81
	M 83.65 18.87
	L 84.23 19.68
	L 85.13 20.13
	M 84.23 19.68
	L 84.82 20.49
	L 84.98 21.48
	L 84.67 22.43
	M 84.98 21.48
	L 85.14 22.47
	M 84.82 20.49
	L 85.41 21.3
	L 85.57 22.29
	M 85.41 21.3
	L 86 22.11
	L 86.89 22.56
	L 87.48 23.37
	M 86.89 22.56
	L 87.78 23.02
	L 88.78 23.02
	M 87.78 23.02
	L 88.67 23.47
	M 86 22.11
	L 86.59 22.92
	L 86.74 23.9
	M 86.59 22.92
	L 87.17 23.73
	L 88.06 24.18
	M 87.17 23.73
	L 87.76 24.53
	L 88.65 24.99
	L 89.24 25.8
	M 88.65 24.99
	L 89.54 25.44
	L 90.54 25.44
	M 89.54 25.44
	L 90.43 25.9
	L 91.02 26.71
	L 91.91 27.16
	M 91.02 26.71
	L 91.61 27.51
	M 90.43 25.9
	L 91.33 26.35
	L 91.91 27.16
	M 91.33 26.35
	L 92.22 26.8
	L 93.22 26.8
	L 94.11 27.26
	M 93.22 26.8
	L 94.22 26.8
	L 95.11 26.35
	M 94.22 26.8
	L 95.22 26.8
	M 92.22 26.8
	L 93.11 27.26
	L 93.7 28.07
	M 93.11 27.26
	L 94 27.71
	L 95 27.71
	L 95.89 27.26
	M 95 27.71
	L 96 27.71
	L 96.89 28.17
	L 97.89 28.17
	M 96.89 28.17
	L 97.78 28.62
	M 96 27.71
	L 97 27.71
	L 97.89 28.17
	M 97 27.71
	L 98 27.71
	L 98.89 27.26
	M 98 27.71
	L 99 27.71
	L 99.89 27.26
	L 100.9 27.26
	M 99.89 27.26
	L 100.8 26.8
	M 99 27.71
	L 100 27.71
	L 100.9 28.17
	M 100 27.71
	L 101 27.71
	M 94 27.71
	L 94.89 28.17
	L 95.48 28.98
	M 94.89 28.17
	L 95.78 28.62
	L 96.37 29.43
	L 96.52 30.42
	M 96.37 29.43
	L 96.96 30.24
	L 97.85 30.69
	M 96.96 30.24
	L 97.54 31.05
	M 95.78 28.62
	L 96.67 29.07
	L 97.67 29.07
	M 96.67 29.07
	L 97.56 29.53
	L 98.56 29.53
	L 99.45 29.98
	M 98.56 29.53
	L 99.56 29.53
	L 100.5 29.07
	M 99.56 29.53
	L 100.6 29.53
	M 97.56 29.53
	L 98.45 29.98
	L 99.04 30.79
	M 98.45 29.98
	L 99.34 30.44
	L 100.3 30.44
	M 99.34 30.44
	L 100.2 30.89
	M 87.76 24.53
	L 88.35 25.34
	L 89.24 25.8
	M 88.35 25.34
	L 88.94 26.15
	L 89.09 27.14
	L 88.78 28.09
	M 89.09 27.14
	L 89.25 28.13
	M 88.94 26.15
	L 89.52 26.96
	L 90.42 27.42
	M 89.52 26.96
	L 90.11 27.77
	L 90.27 28.76
	L 89.96 29.71
	M 90.27 28.76
	L 90.43 29.75
	L 91.01 30.56
	M 90.43 29.75
	L 90.58 30.73
	L 90.27 31.69
	L 89.57 32.39
	M 90.27 31.69
	L 89.96 32.64
	M 90.58 30.73
	L 90.74 31.72
	L 90.43 32.67
	M 90.74 31.72
	L 90.89 32.71
	M 90.11 27.77
	L 90.7 28.58
	L 91.59 29.03
	M 90.7 28.58
	L 91.29 29.39
	L 91.44 30.38
	L 91.14 31.33
	M 91.44 30.38
	L 91.6 31.36
	L 92.19 32.17
	M 91.6 31.36
	L 91.76 32.35
	M 91.29 29.39
	L 91.88 30.2
	L 92.03 31.19
	M 91.88 30.2
	L 92.46 31.01
	L 93.35 31.46
	M 92.46 31.01
	L 93.05 31.82
	L 93.94 32.27
	L 94.94 32.27
	M 93.94 32.27
	L 94.83 32.72
	L 95.83 32.72
	L 96.72 33.18
	M 95.83 32.72
	L 96.83 32.72
	L 97.72 32.27
	M 96.83 32.72
	L 97.83 32.72
	M 94.83 32.72
	L 95.72 33.18
	L 96.72 33.18
	M 95.72 33.18
	L 96.62 33.63
	M 93.05 31.82
	L 93.64 32.63
	L 93.8 33.61
	M 93.64 32.63
	L 94.23 33.43
	L 94.38 34.42
	L 94.07 35.37
	M 94.38 34.42
	L 94.54 35.41
	L 95.13 36.22
	M 94.54 35.41
	L 94.7 36.4
	M 94.23 33.43
	L 94.81 34.24
	L 94.97 35.23
	M 94.81 34.24
	L 95.4 35.05
	L 96.29 35.51
	L 96.88 36.32
	M 96.29 35.51
	L 97.18 35.96
	M 95.4 35.05
	L 95.99 35.86
	L 96.88 36.32
	M 95.99 35.86
	L 96.58 36.67
	L 96.73 37.66
	L 97.32 38.47
	M 96.73 37.66
	L 96.89 38.65
	L 97.48 39.45
	L 98.37 39.91
	M 97.48 39.45
	L 98.07 40.26
	M 96.89 38.65
	L 97.05 39.63
	L 97.64 40.44
	M 97.05 39.63
	L 97.2 40.62
	L 96.9 41.57
	L 96.19 42.28
	M 96.9 41.57
	L 96.59 42.52
	L 96.74 43.51
	L 96.43 44.46
	M 96.74 43.51
	L 96.9 44.5
	M 96.59 42.52
	L 96.28 43.47
	L 95.57 44.18
	M 96.28 43.47
	L 95.97 44.43
	L 96.12 45.41
	M 95.97 44.43
	L 95.66 45.38
	M 97.2 40.62
	L 97.36 41.61
	L 97.05 42.56
	M 97.36 41.61
	L 97.52 42.6
	L 98.1 43.41
	M 97.52 42.6
	L 97.67 43.58
	L 98.26 44.39
	L 98.42 45.38
	M 98.26 44.39
	L 98.85 45.2
	M 97.67 43.58
	L 97.83 44.57
	L 98.42 45.38
	M 97.83 44.57
	L 97.99 45.56
	L 98.57 46.37
	L 98.73 47.36
	M 98.57 46.37
	L 99.16 47.18
	L 100.1 47.63
	M 99.16 47.18
	L 99.75 47.99
	L 99.91 48.97
	L 99.6 49.93
	M 99.91 48.97
	L 100.1 49.96
	M 99.75 47.99
	L 100.3 48.8
	L 100.5 49.78
	M 100.3 48.8
	L 100.9 49.6
	L 101.8 50.06
	L 102.4 50.87
	M 101.8 50.06
	L 102.7 50.51
	L 103.7 50.51
	M 102.7 50.51
	L 103.6 50.97
	M 100.9 49.6
	L 101.5 50.41
	L 101.7 51.4
	M 101.5 50.41
	L 102.1 51.22
	L 103 51.68
	M 102.1 51.22
	L 102.7 52.03
	M 97.99 45.56
	L 98.14 46.55
	L 97.83 47.5
	M 98.14 46.55
	L 98.3 47.53
	L 97.99 48.49
	L 97.28 49.19
	M 97.99 48.49
	L 97.68 49.44
	M 98.3 47.53
	L 98.46 48.52
	L 98.15 49.47
	M 98.46 48.52
	L 98.61 49.51
	L 99.2 50.32
	M 98.61 49.51
	L 98.77 50.5
	L 99.36 51.31
	L 99.51 52.29
	M 99.36 51.31
	L 99.94 52.12
	L 100.1 53.1
	L 100.7 53.91
	M 100.1 53.1
	L 100.3 54.09
	M 99.94 52.12
	L 100.5 52.92
	L 100.7 53.91
	M 100.5 52.92
	L 101.1 53.73
	L 102 54.19
	M 101.1 53.73
	L 101.7 54.54
	L 101.9 55.53
	L 102.5 56.34
	M 101.9 55.53
	L 102 56.52
	L 101.7 57.47
	L 101.9 58.46
	M 101.7 57.47
	L 101.4 58.42
	M 102 56.52
	L 102.2 57.51
	L 102.8 58.32
	M 102.2 57.51
	L 102.3 58.49
	L 102.9 59.3
	L 103.8 59.76
	M 102.9 59.3
	L 103.5 60.11
	M 102.3 58.49
	L 102.5 59.48
	L 102.2 60.43
	M 102.5 59.48
	L 102.6 60.47
	M 101.7 54.54
	L 102.3 55.35
	L 102.5 56.34
	M 102.3 55.35
	L 102.9 56.16
	L 103 57.15
	L 102.7 58.1
	M 103 57.15
	L 103.2 58.14
	L 103.8 58.95
	M 103.2 58.14
	L 103.4 59.12
	M 102.9 56.16
	L 103.5 56.97
	L 103.6 57.96
	M 103.5 56.97
	L 104.1 57.78
	L 104.9 58.23
	L 105.5 59.04
	M 104.9 58.23
	L 105.8 58.69
	L 106.8 58.69
	M 105.8 58.69
	L 106.7 59.14
	L 107.3 59.95
	L 107.5 60.94
	M 107.3 59.95
	L 107.9 60.76
	M 106.7 59.14
	L 107.6 59.59
	L 108.2 60.4
	M 107.6 59.59
	L 108.5 60.05
	L 109.5 60.05
	M 108.5 60.05
	L 109.4 60.5
	M 104.1 57.78
	L 104.6 58.59
	L 105.5 59.04
	M 104.6 58.59
	L 105.2 59.4
	L 105.4 60.38
	L 105.1 61.34
	M 105.4 60.38
	L 105.5 61.37
	L 106.1 62.18
	M 105.5 61.37
	L 105.7 62.36
	M 105.2 59.4
	L 105.8 60.21
	L 106.7 60.66
	M 105.8 60.21
	L 106.4 61.02
	L 107.3 61.47
	L 108.3 61.47
	M 107.3 61.47
	L 108.2 61.92
	M 106.4 61.02
	L 107 61.82
	L 107.2 62.81
	M 107 61.82
	L 107.6 62.63
	L 108.5 63.09
	M 107.6 62.63
	L 108.2 63.44
	M 98.77 50.5
	L 98.92 51.49
	L 98.62 52.44
	M 98.92 51.49
	L 99.08 52.47
	L 98.77 53.42
	L 98.07 54.13
	M 98.77 53.42
	L 98.46 54.38
	M 99.08 52.47
	L 99.24 53.46
	L 99.83 54.27
	M 99.24 53.46
	L 99.39 54.45
	L 99.98 55.26
	L 100.1 56.25
	M 99.98 55.26
	L 100.6 56.07
	L 101.5 56.52
	M 100.6 56.07
	L 101.2 56.88
	M 99.39 54.45
	L 99.55 55.44
	L 99.24 56.39
	M 99.55 55.44
	L 99.71 56.42
	L 100.3 57.23
	M 99.71 56.42
	L 99.86 57.41
	L 99.55 58.36
	L 98.85 59.07
	M 99.55 58.36
	L 99.25 59.31
	L 99.4 60.3
	L 99.09 61.25
	M 99.4 60.3
	L 99.56 61.29
	M 99.25 59.31
	L 98.94 60.26
	L 98.23 60.97
	M 98.94 60.26
	L 98.63 61.22
	M 99.86 57.41
	L 100 58.4
	L 99.71 59.35
	M 100 58.4
	L 100.2 59.39
	L 100.8 60.2
	M 100.2 59.39
	L 100.3 60.37
	L 100.9 61.18
	L 101.1 62.17
	M 100.9 61.18
	L 101.5 61.99
	M 100.3 60.37
	L 100.5 61.36
	L 100.2 62.31
	M 100.5 61.36
	L 100.6 62.35
	M 96.58 36.67
	L 97.17 37.48
	L 97.32 38.47
	M 97.17 37.48
	L 97.75 38.29
	L 97.91 39.28
	L 97.6 40.23
	M 97.91 39.28
	L 98.07 40.26
	L 98.65 41.07
	M 98.07 40.26
	L 98.22 41.25
	M 97.75 38.29
	L 98.34 39.1
	L 99.23 39.55
	M 98.34 39.1
	L 98.93 39.91
	L 99.09 40.89
	L 98.78 41.85
	M 99.09 40.89
	L 99.24 41.88
	L 98.93 42.83
	L 99.09 43.82
	M 98.93 42.83
	L 98.62 43.78
	M 99.24 41.88
	L 99.4 42.87
	L 99.09 43.82
	M 99.4 42.87
	L 99.56 43.86
	M 98.93 39.91
	L 99.52 40.72
	L 99.67 41.7
	M 99.52 40.72
	L 100.1 41.52
	L 100.3 42.51
	L 99.95 43.46
	M 100.3 42.51
	L 100.4 43.5
	L 101 44.31
	M 100.4 43.5
	L 100.6 44.49
	M 100.1 41.52
	L 100.7 42.33
	L 100.8 43.32
	M 100.7 42.33
	L 101.3 43.14
	L 102.2 43.6
	L 102.8 44.41
	M 102.2 43.6
	L 103.1 44.05
	L 104.1 44.05
	M 103.1 44.05
	L 104 44.5
	M 101.3 43.14
	L 101.9 43.95
	L 102.8 44.41
	M 101.9 43.95
	L 102.5 44.76
	L 102.6 45.75
	L 102.3 46.7
	M 102.6 45.75
	L 102.8 46.74
	L 103.4 47.54
	M 102.8 46.74
	L 102.9 47.72
	L 102.6 48.67
	L 102.8 49.66
	M 102.6 48.67
	L 102.3 49.63
	M 102.9 47.72
	L 103.1 48.71
	L 102.8 49.66
	M 103.1 48.71
	L 103.2 49.7
	L 103.8 50.51
	M 103.2 49.7
	L 103.4 50.69
	L 104 51.5
	L 104.1 52.48
	M 104 51.5
	L 104.6 52.3
	L 105.5 52.76
	M 104.6 52.3
	L 105.2 53.11
	L 106 53.57
	L 106.6 54.38
	M 106 53.57
	L 106.9 54.02
	M 105.2 53.11
	L 105.7 53.92
	L 105.9 54.91
	M 105.7 53.92
	L 106.3 54.73
	M 103.4 50.69
	L 103.6 51.67
	L 103.2 52.63
	M 103.6 51.67
	L 103.7 52.66
	L 104.3 53.47
	M 103.7 52.66
	L 103.9 53.65
	L 103.6 54.6
	L 102.8 55.31
	M 103.6 54.6
	L 103.2 55.55
	M 103.9 53.65
	L 104 54.64
	L 104.6 55.45
	M 104 54.64
	L 104.2 55.62
	M 102.5 44.76
	L 103 45.57
	L 103.2 46.56
	M 103 45.57
	L 103.6 46.38
	L 104.5 46.83
	L 105.1 47.64
	M 104.5 46.83
	L 105.4 47.29
	L 106.4 47.29
	M 105.4 47.29
	L 106.3 47.74
	M 103.6 46.38
	L 104.2 47.19
	L 105.1 47.64
	M 104.2 47.19
	L 104.8 48
	L 105 48.98
	L 104.7 49.94
	M 105 48.98
	L 105.1 49.97
	L 105.7 50.78
	M 105.1 49.97
	L 105.3 50.96
	L 105.9 51.77
	L 106 52.76
	M 105.9 51.77
	L 106.5 52.58
	L 107.3 53.03
	M 106.5 52.58
	L 107 53.39
	M 105.3 50.96
	L 105.4 51.95
	L 106 52.76
	M 105.4 51.95
	L 105.6 52.93
	M 104.8 48
	L 105.4 48.81
	L 105.6 49.79
	M 105.4 48.81
	L 106 49.61
	L 106.1 50.6
	L 106.7 51.41
	M 106.1 50.6
	L 106.3 51.59
	M 106 49.61
	L 106.6 50.42
	L 106.7 51.41
	M 106.6 50.42
	L 107.2 51.23
	L 108 51.69
	M 107.2 51.23
	L 107.7 52.04
	L 108.6 52.5
	L 109.2 53.3
	M 108.6 52.5
	L 109.5 52.95
	L 110.1 53.76
	L 111 54.21
	M 110.1 53.76
	L 110.7 54.57
	M 109.5 52.95
	L 110.4 53.4
	L 111.4 53.4
	M 110.4 53.4
	L 111.3 53.86
	L 112.3 53.86
	L 113.2 54.31
	M 112.3 53.86
	L 113.3 53.86
	L 114.2 54.31
	L 114.8 55.12
	M 114.2 54.31
	L 115.1 54.77
	L 116.1 54.77
	M 115.1 54.77
	L 116 55.22
	M 113.3 53.86
	L 114.3 53.86
	L 115.2 53.4
	M 114.3 53.86
	L 115.3 53.86
	L 116.2 53.4
	L 116.8 52.59
	M 116.2 53.4
	L 117.1 52.95
	M 115.3 53.86
	L 116.3 53.86
	L 117.2 53.4
	M 116.3 53.86
	L 117.3 53.86
	M 111.3 53.86
	L 112.2 54.31
	L 112.8 55.12
	M 112.2 54.31
	L 113.1 54.77
	L 114.1 54.77
	M 113.1 54.77
	L 114 55.22
	L 115 55.22
	L 115.9 55.67
	M 115 55.22
	L 116 55.22
	L 116.9 54.77
	M 116 55.22
	L 117 55.22
	M 114 55.22
	L 114.9 55.67
	L 115.9 55.67
	M 114.9 55.67
	L 115.8 56.13
	L 116.4 56.94
	L 116.5 57.92
	M 116.4 56.94
	L 116.9 57.75
	L 117.1 58.73
	L 116.8 59.68
	M 117.1 58.73
	L 117.3 59.72
	M 116.9 57.75
	L 117.5 58.55
	L 118.4 59.01
	M 117.5 58.55
	L 118.1 59.36
	L 118.3 60.35
	L 118 61.3
	M 118.3 60.35
	L 118.4 61.34
	L 119 62.15
	M 118.4 61.34
	L 118.6 62.33
	L 118.3 63.28
	L 118.4 64.27
	M 118.3 63.28
	L 118 64.23
	M 118.6 62.33
	L 118.7 63.31
	L 118.4 64.27
	M 118.7 63.31
	L 118.9 64.3
	L 119.5 65.11
	M 118.9 64.3
	L 119.1 65.29
	L 119.6 66.1
	L 119.8 67.09
	M 119.6 66.1
	L 120.2 66.91
	L 121.1 67.36
	M 120.2 66.91
	L 120.8 67.72
	M 119.1 65.29
	L 119.2 66.28
	L 118.9 67.23
	M 119.2 66.28
	L 119.4 67.27
	M 118.1 59.36
	L 118.7 60.17
	L 118.9 61.16
	M 118.7 60.17
	L 119.3 60.98
	L 119.4 61.97
	L 119.1 62.92
	M 119.4 61.97
	L 119.6 62.96
	L 120.2 63.77
	M 119.6 62.96
	L 119.8 63.94
	M 119.3 60.98
	L 119.9 61.79
	L 120 62.78
	M 119.9 61.79
	L 120.5 62.6
	L 121.4 63.05
	L 122.4 63.05
	M 121.4 63.05
	L 122.2 63.51
	M 120.5 62.6
	L 121.1 63.41
	L 121.2 64.4
	M 121.1 63.41
	L 121.6 64.22
	L 122.5 64.67
	M 121.6 64.22
	L 122.2 65.03
	M 115.8 56.13
	L 116.7 56.58
	L 117.7 56.58
	M 116.7 56.58
	L 117.5 57.04
	L 118.1 57.84
	L 118.3 58.83
	M 118.1 57.84
	L 118.7 58.65
	M 117.5 57.04
	L 118.4 57.49
	L 119.4 57.49
	M 118.4 57.49
	L 119.3 57.94
	L 119.9 58.75
	L 120.8 59.21
	M 119.9 58.75
	L 120.5 59.56
	L 121.4 60.02
	L 122 60.82
	M 121.4 60.02
	L 122.3 60.47
	L 123.3 60.47
	M 122.3 60.47
	L 123.2 60.92
	M 120.5 59.56
	L 121.1 60.37
	L 121.2 61.36
	M 121.1 60.37
	L 121.7 61.18
	L 122.6 61.63
	M 121.7 61.18
	L 122.3 61.99
	M 119.3 57.94
	L 120.2 58.4
	L 121.2 58.4
	M 120.2 58.4
	L 121.1 58.85
	L 121.7 59.66
	L 122.6 60.11
	M 121.7 59.66
	L 122.3 60.47
	M 121.1 58.85
	L 122 59.31
	L 123 59.31
	M 122 59.31
	L 122.9 59.76
	L 123.9 59.76
	L 124.8 60.21
	M 123.9 59.76
	L 124.9 59.76
	M 122.9 59.76
	L 123.8 60.21
	L 124.4 61.02
	M 123.8 60.21
	L 124.7 60.67
	L 125.7 60.67
	M 124.7 60.67
	L 125.6 61.12
	L 126.6 61.12
	L 127.5 61.58
	M 126.6 61.12
	L 127.6 61.12
	L 128.5 61.58
	L 129.5 61.58
	M 128.5 61.58
	L 129.3 62.03
	M 127.6 61.12
	L 128.6 61.12
	L 129.5 61.58
	M 128.6 61.12
	L 129.6 61.12
	L 130.5 60.67
	M 129.6 61.12
	L 130.6 61.12
	L 131.5 60.67
	L 132.5 60.67
	M 131.5 60.67
	L 132.3 60.21
	M 130.6 61.12
	L 131.6 61.12
	L 132.5 61.58
	M 131.6 61.12
	L 132.6 61.12
	L 133.5 60.67
	M 132.6 61.12
	L 133.6 61.12
	L 134.5 61.58
	L 135 62.38
	M 134.5 61.58
	L 135.3 62.03
	L 135.9 62.84
	L 136.8 63.29
	M 135.9 62.84
	L 136.5 63.65
	M 135.3 62.03
	L 136.2 62.48
	L 136.8 63.29
	M 136.2 62.48
	L 137.1 62.94
	L 138.1 62.94
	M 137.1 62.94
	L 138 63.39
	M 133.6 61.12
	L 134.6 61.12
	L 135.5 60.67
	M 134.6 61.12
	L 135.6 61.12
	L 136.5 61.58
	L 137.5 61.58
	M 136.5 61.58
	L 137.3 62.03
	M 135.6 61.12
	L 136.6 61.12
	L 137.5 61.58
	M 136.6 61.12
	L 137.6 61.12
	L 138.5 60.67
	M 137.6 61.12
	L 138.6 61.12
	L 139.5 60.67
	L 140.5 60.67
	M 139.5 60.67
	L 140.3 60.21
	M 138.6 61.12
	L 139.6 61.12
	L 140.5 61.58
	M 139.6 61.12
	L 140.6 61.12
	L 141.5 60.67
	M 140.6 61.12
	L 141.6 61.12
	L 142.5 60.67
	L 143 59.86
	M 142.5 60.67
	L 143.3 60.21
	L 144.3 60.21
	L 145.2 60.67
	M 144.3 60.21
	L 145.3 60.21
	L 146.2 59.76
	M 145.3 60.21
	L 146.3 60.21
	M 143.3 60.21
	L 144.2 59.76
	L 145.2 59.76
	M 144.2 59.76
	L 145.1 59.31
	M 141.6 61.12
	L 142.6 61.12
	L 143.5 60.67
	M 142.6 61.12
	L 143.6 61.12
	L 144.5 60.67
	L 145.5 60.67
	M 144.5 60.67
	L 145.3 60.21
	M 143.6 61.12
	L 144.6 61.12
	L 145.5 61.58
	M 144.6 61.12
	L 145.6 61.12
	M 125.6 61.12
	L 126.5 61.58
	L 127.5 61.58
	M 126.5 61.58
	L 127.3 62.03
	L 128.3 62.03
	L 129.2 62.48
	M 128.3 62.03
	L 129.3 62.03
	M 127.3 62.03
	L 128.2 62.48
	L 128.8 63.29
	M 128.2 62.48
	L 129.1 62.94
	L 130.1 62.94
	M 129.1 62.94
	L 130 63.39
	L 130.6 64.2
	L 131.5 64.65
	M 130.6 64.2
	L 131.2 65.01
	L 131.4 66
	L 131.9 66.81
	M 131.4 66
	L 131.5 66.98
	M 131.2 65.01
	L 131.8 65.82
	L 131.9 66.81
	M 131.8 65.82
	L 132.4 66.63
	L 133.3 67.08
	M 132.4 66.63
	L 133 67.44
	M 130 63.39
	L 130.9 63.85
	L 131.9 63.85
	M 130.9 63.85
	L 131.8 64.3
	L 132.8 64.3
	L 133.7 64.75
	M 132.8 64.3
	L 133.8 64.3
	L 134.7 63.85
	M 133.8 64.3
	L 134.8 64.3
	M 131.8 64.3
	L 132.7 64.75
	L 133.3 65.56
	M 132.7 64.75
	L 133.6 65.21
	L 134.6 65.21
	M 133.6 65.21
	L 134.5 65.66
	M 107.7 52.04
	L 108.3 52.85
	L 108.5 53.84
	M 108.3 52.85
	L 108.9 53.66
	L 109.8 54.11
	M 108.9 53.66
	L 109.5 54.47
	L 110.4 54.92
	L 111 55.73
	M 110.4 54.92
	L 111.3 55.38
	L 112.3 55.38
	M 111.3 55.38
	L 112.2 55.83
	M 109.5 54.47
	L 110.1 55.28
	L 110.3 56.27
	M 110.1 55.28
	L 110.7 56.09
	L 110.8 57.07
	L 110.5 58.03
	M 110.8 57.07
	L 111 58.06
	L 111.6 58.87
	M 111 58.06
	L 111.2 59.05
	L 110.8 60
	L 111 60.99
	M 110.8 60
	L 110.5 60.95
	M 111.2 59.05
	L 111.3 60.04
	L 111 60.99
	M 111.3 60.04
	L 111.5 61.03
	L 112.1 61.83
	M 111.5 61.03
	L 111.6 62.01
	M 110.7 56.09
	L 111.3 56.9
	L 111.4 57.88
	M 111.3 56.9
	L 111.9 57.7
	L 112.8 58.16
	L 113.8 58.16
	M 112.8 58.16
	L 113.6 58.61
	M 111.9 57.7
	L 112.4 58.51
	L 113.3 58.97
	M 112.4 58.51
	L 113 59.32
	L 113.2 60.31
	L 112.9 61.26
	M 113.2 60.31
	L 113.3 61.3
	L 113 62.25
	L 112.3 62.96
	M 113 62.25
	L 112.7 63.2
	M 113.3 61.3
	L 113.5 62.29
	L 113.2 63.24
	M 113.5 62.29
	L 113.7 63.27
	L 114.2 64.08
	L 114.4 65.07
	M 114.2 64.08
	L 114.8 64.89
	L 115.7 65.35
	M 114.8 64.89
	L 115.4 65.7
	M 113.7 63.27
	L 113.8 64.26
	L 114.4 65.07
	M 113.8 64.26
	L 114 65.25
	L 114.6 66.06
	L 114.7 67.05
	M 114.6 66.06
	L 115.2 66.87
	L 115.3 67.85
	L 115 68.81
	M 115.3 67.85
	L 115.5 68.84
	L 116.1 69.65
	M 115.5 68.84
	L 115.6 69.83
	M 115.2 66.87
	L 115.7 67.68
	L 115.9 68.66
	M 115.7 67.68
	L 116.3 68.48
	L 117.2 68.94
	M 116.3 68.48
	L 116.9 69.29
	L 117.8 69.75
	L 118.4 70.56
	M 117.8 69.75
	L 118.7 70.2
	M 116.9 69.29
	L 117.5 70.1
	L 117.7 71.09
	M 117.5 70.1
	L 118.1 70.91
	M 114 65.25
	L 114.1 66.24
	L 113.8 67.19
	M 114.1 66.24
	L 114.3 67.22
	L 114.9 68.03
	M 114.3 67.22
	L 114.4 68.21
	L 115 69.02
	L 115.2 70.01
	M 115 69.02
	L 115.6 69.83
	M 114.4 68.21
	L 114.6 69.2
	L 114.3 70.15
	M 114.6 69.2
	L 114.8 70.19
	M 113 59.32
	L 113.6 60.13
	L 113.8 61.12
	M 113.6 60.13
	L 114.2 60.94
	L 114.4 61.93
	L 114.1 62.88
	M 114.4 61.93
	L 114.5 62.92
	L 115.1 63.73
	M 114.5 62.92
	L 114.7 63.9
	M 114.2 60.94
	L 114.8 61.75
	L 115 62.74
	M 114.8 61.75
	L 115.4 62.56
	L 116.3 63.01
	L 117.3 63.01
	M 116.3 63.01
	L 117.2 63.47
	M 115.4 62.56
	L 116 63.37
	L 116.1 64.36
	M 116 63.37
	L 116.6 64.18
	L 116.7 65.16
	L 116.4 66.12
	M 116.7 65.16
	L 116.9 66.15
	L 117.5 66.96
	M 116.9 66.15
	L 117 67.14
	L 117.6 67.95
	L 117.8 68.94
	M 117.6 67.95
	L 118.2 68.76
	L 119.1 69.21
	M 118.2 68.76
	L 118.8 69.57
	M 117 67.14
	L 117.2 68.13
	L 116.9 69.08
	M 117.2 68.13
	L 117.3 69.12
	L 117.9 69.92
	M 117.3 69.12
	L 117.5 70.1
	M 116.6 64.18
	L 117.2 64.99
	L 118 65.44
	M 117.2 64.99
	L 117.7 65.79
	L 118.6 66.25
	L 119.6 66.25
	M 118.6 66.25
	L 119.5 66.7
	M 117.7 65.79
	L 118.3 66.6
	L 119.2 67.06
	M 118.3 66.6
	L 118.9 67.41
	L 119.8 67.87
	L 120.8 67.87
	M 119.8 67.87
	L 120.7 68.32
	L 121.3 69.13
	L 121.4 70.12
	M 121.3 69.13
	L 121.9 69.94
	L 122.8 70.39
	M 121.9 69.94
	L 122.5 70.75
	M 120.7 68.32
	L 121.6 68.77
	L 122.6 68.77
	M 121.6 68.77
	L 122.5 69.23
	L 123.1 70.04
	L 123.2 71.03
	M 123.1 70.04
	L 123.7 70.85
	L 124.5 71.3
	M 123.7 70.85
	L 124.2 71.66
	L 125.1 72.11
	L 125.7 72.92
	M 125.1 72.11
	L 126 72.56
	M 124.2 71.66
	L 124.8 72.46
	L 125 73.45
	M 124.8 72.46
	L 125.4 73.27
	L 126.3 73.73
	M 125.4 73.27
	L 126 74.08
	M 122.5 69.23
	L 123.4 69.68
	L 124 70.49
	M 123.4 69.68
	L 124.3 70.14
	L 125.3 70.14
	M 124.3 70.14
	L 125.2 70.59
	L 125.7 71.4
	L 125.9 72.39
	M 125.7 71.4
	L 126.3 72.21
	L 127.2 72.66
	M 126.3 72.21
	L 126.9 73.02
	M 125.2 70.59
	L 126 71.04
	L 126.6 71.85
	M 126 71.04
	L 126.9 71.5
	L 127.9 71.5
	M 126.9 71.5
	L 127.8 71.95
	L 128.8 71.95
	L 129.7 72.41
	M 128.8 71.95
	L 129.8 71.95
	L 130.7 71.5
	M 129.8 71.95
	L 130.8 71.95
	M 127.8 71.95
	L 128.7 72.41
	L 129.3 73.22
	M 128.7 72.41
	L 129.6 72.86
	L 130.6 72.86
	M 129.6 72.86
	L 130.5 73.31
	L 131.5 73.31
	L 132.4 72.86
	M 131.5 73.31
	L 132.5 73.31
	L 133.4 73.77
	L 134.4 73.77
	M 133.4 73.77
	L 134.3 74.22
	M 132.5 73.31
	L 133.5 73.31
	L 134.4 73.77
	M 133.5 73.31
	L 134.5 73.31
	L 135.4 72.86
	M 134.5 73.31
	L 135.5 73.31
	M 130.5 73.31
	L 131.4 73.77
	L 132 74.58
	M 131.4 73.77
	L 132.3 74.22
	L 133.3 74.22
	M 132.3 74.22
	L 133.2 74.68
	L 133.8 75.49
	L 133.9 76.47
	M 133.8 75.49
	L 134.3 76.29
	L 135.2 76.75
	M 134.3 76.29
	L 134.9 77.1
	M 133.2 74.68
	L 134.1 75.13
	L 134.6 75.94
	M 134.1 75.13
	L 135 75.58
	L 136 75.58
	M 135 75.58
	L 135.8 76.04
	L 136.8 76.04
	L 137.7 75.58
	M 136.8 76.04
	L 137.8 76.04
	M 135.8 76.04
	L 136.7 76.49
	L 137.3 77.3
	M 136.7 76.49
	L 137.6 76.95
	M 118.9 67.41
	L 119.5 68.22
	L 119.7 69.21
	M 119.5 68.22
	L 120.1 69.03
	L 121 69.48
	M 120.1 69.03
	L 120.7 69.84
	L 120.8 70.83
	L 120.5 71.78
	M 120.8 70.83
	L 121 71.82
	L 121.6 72.62
	M 121 71.82
	L 121.1 72.8
	M 120.7 69.84
	L 121.3 70.65
	L 121.4 71.64
	M 121.3 70.65
	L 121.9 71.46
	L 122.7 71.91
	M 121.9 71.46
	L 122.4 72.27
	L 123.3 72.72
	L 123.9 73.53
	M 123.3 72.72
	L 124.2 73.17
	M 122.4 72.27
	L 123 73.08
	L 123.9 73.53
	M 123 73.08
	L 123.6 73.89
	L 123.8 74.87
	L 123.5 75.82
	M 123.8 74.87
	L 123.9 75.86
	L 124.5 76.67
	M 123.9 75.86
	L 124.1 76.85
	L 124.7 77.66
	L 125.6 78.11
	M 124.7 77.66
	L 125.3 78.47
	M 124.1 76.85
	L 124.2 77.84
	L 123.9 78.79
	M 124.2 77.84
	L 124.4 78.82
	L 125 79.63
	M 124.4 78.82
	L 124.6 79.81
	M 123.6 73.89
	L 124.2 74.69
	L 124.4 75.68
	M 124.2 74.69
	L 124.8 75.5
	L 125.7 75.96
	M 124.8 75.5
	L 125.4 76.31
	L 125.5 77.3
	L 125.2 78.25
	M 125.5 77.3
	L 125.7 78.29
	M 125.4 76.31
	L 126 77.12
	L 126.1 78.11
	M 126 77.12
	L 126.6 77.93
	L 127.4 78.38
	L 128.4 78.38
	M 127.4 78.38
	L 128.3 78.84
	M 126.6 77.93
	L 127.1 78.74
	L 127.3 79.73
	M 127.1 78.74
	L 127.7 79.55
	M 74.24 5.928
	L 75.05 5.34
	L 75.86 4.752
	L 76.67 4.164
	L 77.48 3.576
	L 78.37 3.122
	L 79.26 2.668
	L 80.15 2.214
	L 81.04 1.76
	L 81.99 1.451
	L 82.94 1.142
	L 83.9 0.8334
	L 84.85 0.5244
	L 85.83 0.368
	L 86.82 0.2116
	L 87.81 0.05512
	L 88.8 -0.1013
	L 89.8 -0.1013
	L 90.8 -0.1013
	L 91.8 -0.1013
	L 92.8 -0.1013
	L 93.79 -0.2577
	L 94.77 -0.4142
	L 95.76 -0.5706
	L 96.75 -0.7271
	L 97.7 -1.036
	L 98.65 -1.345
	L 99.6 -1.654
	L 100.6 -1.963
	L 101.4 -2.417
	L 102.3 -2.871
	L 103.2 -3.325
	L 104.1 -3.779
	L 104.9 -4.367
	L 105.7 -4.955
	L 106.5 -5.542
	L 107.4 -6.13
	L 108.2 -6.584
	L 109.1 -7.038
	L 110 -7.492
	L 110.9 -7.946
	L 111.9 -8.255
	L 112.8 -8.564
	L 113.8 -8.873
	L 114.7 -9.182
	L 115.7 -9.339
	L 116.7 -9.495
	L 117.7 -9.652
	L 118.7 -9.808
	L 119.6 -10.12
	L 120.6 -10.43
	L 121.5 -10.74
	L 122.5 -11.04
	L 123.4 -11.5
	L 124.3 -11.95
	L 125.1 -12.41
	L 126 -12.86
	L 127 -13.17
	L 127.9 -13.48
	L 128.9 -13.79
	L 129.8 -14.1
	L 130.7 -14.55
	L 131.6 -15
	L 132.5 -15.46
	L 133.4 -15.91
	L 134.4 -16.22
	L 135.3 -16.53
	L 136.3 -16.84
	L 137.2 -17.15
	L 138.2 -17.3
	L 139.2 -17.46
	L 140.2 -17.62
	L 141.2 -17.77
	L 142.1 -18.08
	L 143.1 -18.39
	L 144 -18.7
	L 145 -19.01
	L 145.9 -19.46
	L 146.7 -19.92
	L 147.6 -20.37
	L 148.5 -20.83
	L 149.5 -21.13
	L 150.4 -21.44
	L 151.4 -21.75
	L 152.3 -22.06
	L 153.2 -22.52
	L 154.1 -22.97
	L 155 -23.42
	L 155.9 -23.88
	L 156.7 -24.47
	L 157.5 -25.05
	L 158.3 -25.64
	L 159.1 -26.23
	L 160 -26.68
	L 160.9 -27.14
	L 161.8 -27.59
	L 162.7 -28.05
	L 163.7 -28.35
	L 164.6 -28.66
	L 165.6 -28.97
	L 166.5 -29.28
	L 167.5 -29.44
	L 168.5 -29.59
	L 169.5 -29.75
	L 170.5 -29.91
	L 171.5 -29.91
	L 172.5 -29.91
	L 173.5 -29.91
	L 174.5 -29.91
	L 175.4 -30.06
	L 176.4 -30.22
	L 177.4 -30.38
	L 178.4 -30.53
	L 179.4 -30.84
	L 180.3 -31.15
	L 181.3 -31.46
	L 182.2 -31.77
	L 183.2 -31.93
	L 184.2 -32.08
	L 185.2 -32.24
	L 186.2 -32.39
	L 186.3 -31.41
	L 186 -30.46
	M 186.3 -31.41
	L 186.5 -30.42
	L 186.2 -29.47
	L 186.3 -28.48
	M 186.2 -29.47
	L 185.9 -28.52
	M 186.5 -30.42
	L 186.6 -29.43
	L 187.2 -28.62
	M 186.6 -29.43
	L 186.8 -28.44
	L 187.4 -27.63
	L 187.5 -26.65
	M 187.4 -27.63
	L 188 -26.83
	L 188.9 -26.37
	M 188 -26.83
	L 188.5 -26.02
	L 188.7 -25.03
	L 188.4 -24.08
	M 188.7 -25.03
	L 188.9 -24.04
	M 188.5 -26.02
	L 189.1 -25.21
	L 189.3 -24.22
	M 189.1 -25.21
	L 189.7 -24.4
	L 190.6 -23.94
	M 189.7 -24.4
	L 190.3 -23.59
	L 191.2 -23.14
	L 192.2 -23.14
	M 191.2 -23.14
	L 192.1 -22.68
	M 190.3 -23.59
	L 190.9 -22.78
	L 191.1 -21.79
	M 190.9 -22.78
	L 191.5 -21.97
	M 186.8 -28.44
	L 186.9 -27.46
	L 187.5 -26.65
	M 186.9 -27.46
	L 187.1 -26.47
	L 186.8 -25.52
	L 186.1 -24.81
	M 186.8 -25.52
	L 186.5 -24.57
	L 186.6 -23.58
	M 186.5 -24.57
	L 186.2 -23.62
	M 187.1 -26.47
	L 187.3 -25.48
	L 186.9 -24.53
	M 187.3 -25.48
	L 187.4 -24.49
	L 187.1 -23.54
	L 186.4 -22.83
	M 187.1 -23.54
	L 186.8 -22.59
	L 187 -21.6
	M 186.8 -22.59
	L 186.5 -21.64
	L 185.8 -20.93
	L 184.8 -20.62
	M 185.8 -20.93
	L 185.1 -20.23
	M 186.5 -21.64
	L 186.2 -20.69
	L 185.5 -19.98
	M 186.2 -20.69
	L 185.9 -19.74
	L 186 -18.75
	M 185.9 -19.74
	L 185.6 -18.79
	L 185.7 -17.8
	L 186.3 -16.99
	M 185.7 -17.8
	L 185.9 -16.81
	M 185.6 -18.79
	L 185.2 -17.84
	L 185.4 -16.85
	M 185.2 -17.84
	L 184.9 -16.88
	L 185.1 -15.9
	L 184.8 -14.95
	M 185.1 -15.9
	L 185.3 -14.91
	L 185.8 -14.1
	M 185.3 -14.91
	L 185.4 -13.92
	L 186 -13.11
	L 186.2 -12.12
	M 186 -13.11
	L 186.6 -12.3
	L 187.5 -11.85
	M 186.6 -12.3
	L 187.2 -11.49
	M 185.4 -13.92
	L 185.6 -12.93
	L 185.3 -11.98
	M 185.6 -12.93
	L 185.7 -11.95
	M 184.9 -16.88
	L 184.6 -15.93
	L 183.9 -15.23
	M 184.6 -15.93
	L 184.3 -14.98
	L 183.6 -14.28
	L 182.7 -13.97
	M 183.6 -14.28
	L 182.9 -13.57
	L 182.6 -12.62
	M 182.9 -13.57
	L 182.2 -12.86
	M 184.3 -14.98
	L 184 -14.03
	L 184.2 -13.04
	M 184 -14.03
	L 183.7 -13.08
	M 187.4 -24.49
	L 187.6 -23.51
	L 188.2 -22.7
	M 187.6 -23.51
	L 187.7 -22.52
	L 187.4 -21.57
	L 187.6 -20.58
	M 187.4 -21.57
	L 187.1 -20.62
	M 187.7 -22.52
	L 187.9 -21.53
	L 187.6 -20.58
	M 187.9 -21.53
	L 188 -20.54
	L 188.6 -19.73
	M 188 -20.54
	L 188.2 -19.55
	L 187.9 -18.6
	L 188 -17.62
	M 187.9 -18.6
	L 187.6 -17.65
	L 187.7 -16.66
	L 187.4 -15.71
	M 187.7 -16.66
	L 187.9 -15.68
	L 188.5 -14.87
	M 187.9 -15.68
	L 188 -14.69
	M 187.6 -17.65
	L 187.3 -16.7
	L 187.4 -15.71
	M 187.3 -16.7
	L 187 -15.75
	M 188.2 -19.55
	L 188.4 -18.57
	L 188.9 -17.76
	M 188.4 -18.57
	L 188.5 -17.58
	L 188.2 -16.63
	L 187.5 -15.92
	M 188.2 -16.63
	L 187.9 -15.68
	M 188.5 -17.58
	L 188.7 -16.59
	L 188.4 -15.64
	M 188.7 -16.59
	L 188.8 -15.6
	L 189.4 -14.79
	M 188.8 -15.6
	L 189 -14.62
	L 189.6 -13.81
	L 189.7 -12.82
	M 189.6 -13.81
	L 190.2 -13
	M 189 -14.62
	L 189.1 -13.63
	L 189.7 -12.82
	M 189.1 -13.63
	L 189.3 -12.64
	L 189.9 -11.83
	L 190 -10.84
	M 189.9 -11.83
	L 190.5 -11.02
	L 191.4 -10.57
	M 190.5 -11.02
	L 191.1 -10.21
	L 191.9 -9.76
	L 192.5 -8.951
	M 191.9 -9.76
	L 192.8 -9.306
	L 193.8 -9.306
	M 192.8 -9.306
	L 193.7 -8.852
	M 191.1 -10.21
	L 191.6 -9.405
	L 191.8 -8.417
	M 191.6 -9.405
	L 192.2 -8.596
	L 193.1 -8.142
	M 192.2 -8.596
	L 192.8 -7.787
	M 189.3 -12.64
	L 189.4 -11.65
	L 189.1 -10.7
	M 189.4 -11.65
	L 189.6 -10.67
	L 190.2 -9.856
	M 189.6 -10.67
	L 189.8 -9.678
	L 189.4 -8.726
	L 188.7 -8.019
	M 189.4 -8.726
	L 189.1 -7.775
	M 189.8 -9.678
	L 189.9 -8.69
	L 189.6 -7.739
	M 189.9 -8.69
	L 190.1 -7.702
	L 190.7 -6.893
	M 190.1 -7.702
	L 190.2 -6.714
	L 190.8 -5.905
	L 191 -4.918
	M 190.8 -5.905
	L 191.4 -5.096
	L 191.6 -4.109
	L 191.3 -3.158
	M 191.6 -4.109
	L 191.7 -3.121
	M 191.4 -5.096
	L 192 -4.287
	L 192.1 -3.3
	M 192 -4.287
	L 192.6 -3.478
	L 193.5 -3.024
	L 194.1 -2.215
	M 193.5 -3.024
	L 194.4 -2.57
	L 195.4 -2.57
	M 194.4 -2.57
	L 195.3 -2.116
	M 192.6 -3.478
	L 193.2 -2.669
	L 193.3 -1.682
	M 193.2 -2.669
	L 193.8 -1.86
	L 193.9 -0.8727
	L 193.6 0.07837
	M 193.9 -0.8727
	L 194.1 0.115
	L 193.8 1.066
	L 193.9 2.054
	M 193.8 1.066
	L 193.4 2.017
	M 194.1 0.115
	L 194.2 1.103
	L 193.9 2.054
	M 194.2 1.103
	L 194.4 2.09
	M 193.8 -1.86
	L 194.3 -1.051
	L 194.5 -0.06367
	M 194.3 -1.051
	L 194.9 -0.2423
	L 195.8 0.2117
	M 194.9 -0.2423
	L 195.5 0.5667
	L 195.7 1.554
	L 196.3 2.363
	M 195.7 1.554
	L 195.8 2.542
	M 195.5 0.5667
	L 196.1 1.376
	L 196.3 2.363
	M 196.1 1.376
	L 196.7 2.185
	L 197.6 2.639
	M 196.7 2.185
	L 197.3 2.994
	M 190.2 -6.714
	L 190.4 -5.727
	L 190.1 -4.776
	M 190.4 -5.727
	L 190.5 -4.739
	L 190.2 -3.788
	L 189.5 -3.081
	M 190.2 -3.788
	L 189.9 -2.837
	L 190.1 -1.849
	M 189.9 -2.837
	L 189.6 -1.886
	M 190.5 -4.739
	L 190.7 -3.751
	L 190.4 -2.8
	M 190.7 -3.751
	L 190.9 -2.764
	L 191.4 -1.955
	M 190.9 -2.764
	L 191 -1.776
	L 191.6 -0.967
	L 191.8 0.02067
	M 191.6 -0.967
	L 192.2 -0.158
	L 192.3 0.8297
	L 192 1.781
	M 192.3 0.8297
	L 192.5 1.817
	L 193.1 2.626
	M 192.5 1.817
	L 192.7 2.805
	M 192.2 -0.158
	L 192.8 0.651
	L 192.9 1.639
	M 192.8 0.651
	L 193.4 1.46
	L 194.3 1.914
	M 193.4 1.46
	L 193.9 2.269
	M 191 -1.776
	L 191.2 -0.7883
	L 190.9 0.1627
	M 191.2 -0.7883
	L 191.3 0.1993
	L 191 1.15
	L 190.3 1.858
	M 191 1.15
	L 190.7 2.101
	M 191.3 0.1993
	L 191.5 1.187
	L 191.2 2.138
	M 191.5 1.187
	L 191.6 2.175
	L 191.3 3.126
	L 191.5 4.113
	M 191.3 3.126
	L 191 4.077
	L 190.3 4.784
	L 189.4 5.093
	M 190.3 4.784
	L 189.6 5.491
	L 189.3 6.442
	M 189.6 5.491
	L 188.9 6.198
	M 191 4.077
	L 190.7 5.028
	L 190 5.735
	M 190.7 5.028
	L 190.4 5.979
	L 190.6 6.967
	L 191.1 7.776
	M 190.6 6.967
	L 190.7 7.954
	L 190.4 8.905
	L 189.7 9.612
	M 190.4 8.905
	L 190.1 9.856
	L 190.3 10.84
	M 190.1 9.856
	L 189.8 10.81
	M 190.7 7.954
	L 190.9 8.942
	L 190.6 9.893
	M 190.9 8.942
	L 191 9.93
	L 191.6 10.74
	M 191 9.93
	L 191.2 10.92
	M 190.4 5.979
	L 190.1 6.93
	L 190.2 7.918
	M 190.1 6.93
	L 189.8 7.881
	L 189.1 8.588
	L 188.1 8.897
	M 189.1 8.588
	L 188.4 9.295
	M 189.8 7.881
	L 189.5 8.832
	L 188.8 9.539
	M 189.5 8.832
	L 189.2 9.783
	L 189.3 10.77
	L 189 11.72
	M 189.3 10.77
	L 189.5 11.76
	L 190.1 12.57
	M 189.5 11.76
	L 189.6 12.75
	M 189.2 9.783
	L 188.9 10.73
	L 189 11.72
	M 188.9 10.73
	L 188.5 11.69
	L 187.8 12.39
	L 186.9 12.7
	M 187.8 12.39
	L 187.1 13.1
	L 186.8 14.05
	L 186.1 14.76
	M 186.8 14.05
	L 186.5 15
	L 186.7 15.99
	M 186.5 15
	L 186.2 15.95
	M 187.1 13.1
	L 186.4 13.81
	L 185.5 14.12
	M 186.4 13.81
	L 185.7 14.51
	L 184.8 14.82
	L 183.8 14.67
	M 184.8 14.82
	L 183.8 15.13
	L 183.1 15.84
	L 182.8 16.79
	M 183.1 15.84
	L 182.4 16.55
	M 183.8 15.13
	L 182.9 15.44
	L 181.9 15.28
	M 182.9 15.44
	L 181.9 15.75
	L 181.2 16.46
	M 181.9 15.75
	L 181 16.06
	M 185.7 14.51
	L 185 15.22
	L 184.1 15.53
	M 185 15.22
	L 184.3 15.93
	L 184 16.88
	M 184.3 15.93
	L 183.6 16.64
	L 182.6 16.94
	L 181.7 16.79
	M 182.6 16.94
	L 181.7 17.25
	L 181 17.96
	M 181.7 17.25
	L 180.7 17.56
	M 183.6 16.64
	L 182.9 17.34
	L 182.6 18.29
	M 182.9 17.34
	L 182.2 18.05
	L 181.9 19
	L 181.2 19.71
	M 181.9 19
	L 181.6 19.95
	M 182.2 18.05
	L 181.5 18.76
	L 180.5 19.07
	M 181.5 18.76
	L 180.8 19.46
	L 180.5 20.41
	M 180.8 19.46
	L 180.1 20.17
	M 188.5 11.69
	L 188.2 12.64
	L 188.4 13.62
	M 188.2 12.64
	L 187.9 13.59
	L 187.2 14.29
	L 186.3 14.6
	M 187.2 14.29
	L 186.5 15
	L 186.2 15.95
	M 186.5 15
	L 185.8 15.71
	M 187.9 13.59
	L 187.6 14.54
	L 186.9 15.25
	M 187.6 14.54
	L 187.3 15.49
	L 186.6 16.2
	L 185.7 16.51
	M 186.6 16.2
	L 185.9 16.9
	L 184.9 17.21
	L 184 17.06
	M 184.9 17.21
	L 184 17.52
	M 185.9 16.9
	L 185.2 17.61
	L 184.2 17.92
	M 185.2 17.61
	L 184.5 18.32
	L 184.2 19.27
	M 184.5 18.32
	L 183.8 19.03
	L 183.5 19.98
	L 182.8 20.68
	M 183.5 19.98
	L 183.2 20.93
	L 183.3 21.91
	M 183.2 20.93
	L 182.8 21.88
	M 183.8 19.03
	L 183.1 19.73
	L 182.1 20.04
	M 183.1 19.73
	L 182.4 20.44
	M 187.3 15.49
	L 187 16.44
	L 186.3 17.15
	M 187 16.44
	L 186.7 17.39
	L 186.8 18.38
	L 187.4 19.19
	M 186.8 18.38
	L 187 19.37
	M 186.7 17.39
	L 186.4 18.34
	L 185.7 19.05
	M 186.4 18.34
	L 186.1 19.29
	L 186.2 20.28
	L 185.9 21.23
	M 186.2 20.28
	L 186.4 21.27
	L 187 22.08
	L 187.1 23.07
	M 187 22.08
	L 187.6 22.89
	L 188.5 23.34
	M 187.6 22.89
	L 188.1 23.7
	M 186.4 21.27
	L 186.5 22.26
	L 186.2 23.21
	M 186.5 22.26
	L 186.7 23.24
	L 187.3 24.05
	M 186.7 23.24
	L 186.9 24.23
	L 187.4 25.04
	L 187.6 26.03
	M 187.4 25.04
	L 188 25.85
	L 188.9 26.3
	L 189.5 27.11
	M 188.9 26.3
	L 189.8 26.76
	M 188 25.85
	L 188.6 26.66
	L 188.8 27.65
	M 188.6 26.66
	L 189.2 27.47
	L 190.1 27.92
	M 189.2 27.47
	L 189.8 28.28
	M 186.9 24.23
	L 187 25.22
	L 186.7 26.17
	M 187 25.22
	L 187.2 26.21
	L 187.8 27.02
	M 187.2 26.21
	L 187.3 27.2
	L 187 28.15
	L 186.3 28.85
	M 187 28.15
	L 186.7 29.1
	L 186.9 30.09
	M 186.7 29.1
	L 186.4 30.05
	M 187.3 27.2
	L 187.5 28.18
	L 187.2 29.13
	M 187.5 28.18
	L 187.6 29.17
	L 188.2 29.98
	L 188.4 30.97
	M 188.2 29.98
	L 188.8 30.79
	M 187.6 29.17
	L 187.8 30.16
	L 187.5 31.11
	M 187.8 30.16
	L 188 31.15
	L 188.5 31.96
	M 188 31.15
	L 188.1 32.13
	M 186.1 19.29
	L 185.8 20.24
	L 185.9 21.23
	M 185.8 20.24
	L 185.5 21.2
	L 184.7 21.9
	L 183.8 22.21
	M 184.7 21.9
	L 184 22.61
	L 183.7 23.56
	M 184 22.61
	L 183.3 23.32
	M 185.5 21.2
	L 185.1 22.15
	L 185.3 23.13
	M 185.1 22.15
	L 184.8 23.1
	L 185 24.09
	L 184.7 25.04
	M 185 24.09
	L 185.2 25.07
	M 184.8 23.1
	L 184.5 24.05
	L 183.8 24.76
	M 184.5 24.05
	L 184.2 25
	L 183.5 25.71
	L 182.6 26.02
	M 183.5 25.71
	L 182.8 26.41
	L 181.9 26.72
	L 181.1 27.43
	M 181.9 26.72
	L 180.9 27.03
	M 182.8 26.41
	L 182.1 27.12
	L 181.1 27.43
	M 182.1 27.12
	L 181.4 27.83
	L 181.1 28.78
	M 181.4 27.83
	L 180.7 28.54
	L 180.4 29.49
	L 179.7 30.19
	M 180.4 29.49
	L 180.1 30.44
	M 180.7 28.54
	L 180 29.24
	L 179 29.55
	M 180 29.24
	L 179.3 29.95
	L 179 30.9
	M 179.3 29.95
	L 178.6 30.66
	M 184.2 25
	L 183.9 25.95
	L 184.1 26.94
	M 183.9 25.95
	L 183.6 26.9
	L 182.9 27.61
	L 181.9 27.92
	M 182.9 27.61
	L 182.2 28.32
	L 181.9 29.27
	M 182.2 28.32
	L 181.5 29.02
	M 183.6 26.9
	L 183.3 27.85
	L 183.4 28.84
	M 183.3 27.85
	L 183 28.8
	L 183.1 29.79
	L 183.7 30.6
	M 183.1 29.79
	L 183.3 30.78
	M 183 28.8
	L 182.7 29.76
	L 182.8 30.74
	M 182.7 29.76
	L 182.4 30.71
	L 182.5 31.69
	L 183.1 32.5
	M 182.5 31.69
	L 182.7 32.68
	L 183.3 33.49
	L 183.4 34.48
	M 183.3 33.49
	L 183.9 34.3
	L 184.7 34.75
	M 183.9 34.3
	L 184.4 35.11
	M 182.7 32.68
	L 182.8 33.67
	L 183.4 34.48
	M 182.8 33.67
	L 183 34.66
	M 182.4 30.71
	L 182.1 31.66
	L 181.3 32.36
	M 182.1 31.66
	L 181.7 32.61
	L 181.9 33.6
	M 181.7 32.61
	L 181.4 33.56
	L 180.7 34.27
	L 179.8 34.58
	M 180.7 34.27
	L 180 34.97
	M 181.4 33.56
	L 181.1 34.51
	L 181.3 35.5
	M 181.1 34.51
	L 180.8 35.46
	L 181 36.45
	L 181.6 37.26
	M 181 36.45
	L 181.1 37.44
	M 180.8 35.46
	L 180.5 36.41
	L 180.7 37.4
	M 180.5 36.41
	L 180.2 37.36
	M 191.6 2.175
	L 191.8 3.162
	L 191.5 4.113
	M 191.8 3.162
	L 191.9 4.15
	L 191.6 5.101
	L 190.9 5.808
	M 191.6 5.101
	L 191.3 6.052
	L 191.5 7.04
	M 191.3 6.052
	L 191 7.003
	M 191.9 4.15
	L 192.1 5.138
	L 191.8 6.089
	M 192.1 5.138
	L 192.3 6.125
	L 192.8 6.934
	L 193 7.922
	M 192.8 6.934
	L 193.4 7.744
	L 194.3 8.198
	M 193.4 7.744
	L 194 8.553
	L 194.2 9.54
	L 193.9 10.49
	M 194.2 9.54
	L 194.3 10.53
	L 194.9 11.34
	M 194.3 10.53
	L 194.5 11.52
	M 194 8.553
	L 194.6 9.362
	L 194.8 10.35
	M 194.6 9.362
	L 195.2 10.17
	M 192.3 6.125
	L 192.4 7.113
	L 193 7.922
	M 192.4 7.113
	L 192.6 8.101
	L 192.3 9.052
	L 191.6 9.759
	M 192.3 9.052
	L 192 10
	L 192.1 10.99
	M 192 10
	L 191.6 10.95
	M 192.6 8.101
	L 192.7 9.089
	L 193.3 9.898
	M 192.7 9.089
	L 192.9 10.08
	L 193.5 10.89
	L 194.4 11.34
	M 193.5 10.89
	L 194.1 11.69
	M 192.9 10.08
	L 193 11.06
	L 192.7 12.01
	M 193 11.06
	L 193.2 12.05
	L 193.8 12.86
	M 193.2 12.05
	L 193.4 13.04
	L 193 13.99
	L 193.2 14.98
	M 193 13.99
	L 192.7 14.94
	L 192 15.65
	L 191.1 15.96
	M 192 15.65
	L 191.3 16.36
	L 191 17.31
	M 191.3 16.36
	L 190.6 17.06
	M 192.7 14.94
	L 192.4 15.89
	L 191.7 16.6
	M 192.4 15.89
	L 192.1 16.84
	L 192.3 17.83
	M 192.1 16.84
	L 191.8 17.79
	L 192 18.78
	L 192.6 19.59
	M 192 18.78
	L 192.1 19.77
	M 191.8 17.79
	L 191.5 18.75
	L 191.7 19.73
	M 191.5 18.75
	L 191.2 19.7
	L 190.5 20.4
	L 189.5 20.71
	M 190.5 20.4
	L 189.8 21.11
	L 188.8 21.42
	L 188.1 22.13
	M 188.8 21.42
	L 187.9 21.73
	M 189.8 21.11
	L 189.1 21.82
	L 188.1 22.13
	M 189.1 21.82
	L 188.4 22.53
	L 188.1 23.48
	L 187.3 24.18
	M 188.1 23.48
	L 187.7 24.43
	M 188.4 22.53
	L 187.7 23.23
	L 186.7 23.54
	M 187.7 23.23
	L 187 23.94
	M 191.2 19.7
	L 190.9 20.65
	L 191 21.64
	M 190.9 20.65
	L 190.6 21.6
	L 189.9 22.31
	L 188.9 22.61
	M 189.9 22.31
	L 189.2 23.01
	M 190.6 21.6
	L 190.3 22.55
	L 190.4 23.54
	M 190.3 22.55
	L 190 23.5
	L 190.1 24.49
	L 190.7 25.3
	M 190.1 24.49
	L 190.3 25.48
	M 190 23.5
	L 189.6 24.45
	L 188.9 25.16
	M 189.6 24.45
	L 189.3 25.4
	L 189.5 26.39
	M 189.3 25.4
	L 189 26.35
	L 189.2 27.34
	L 189.8 28.15
	M 189.2 27.34
	L 189.3 28.33
	L 189 29.28
	L 188.3 29.99
	M 189 29.28
	L 188.7 30.23
	L 188.9 31.22
	M 188.7 30.23
	L 188.4 31.18
	M 189.3 28.33
	L 189.5 29.32
	L 189.2 30.27
	M 189.5 29.32
	L 189.7 30.3
	M 189 26.35
	L 188.7 27.31
	L 188.9 28.29
	M 188.7 27.31
	L 188.4 28.26
	L 187.7 28.96
	L 186.8 29.27
	M 187.7 28.96
	L 187 29.67
	M 188.4 28.26
	L 188.1 29.21
	L 187.4 29.91
	M 188.1 29.21
	L 187.8 30.16
	M 193.4 13.04
	L 193.5 14.03
	L 194.1 14.84
	M 193.5 14.03
	L 193.7 15.01
	L 193.4 15.97
	L 193.5 16.95
	M 193.4 15.97
	L 193.1 16.92
	M 193.7 15.01
	L 193.8 16
	L 193.5 16.95
	M 193.8 16
	L 194 16.99
	L 194.6 17.8
	L 195.5 18.25
	M 194.6 17.8
	L 195.2 18.61
	M 194 16.99
	L 194.1 17.98
	L 194.7 18.79
	M 194.1 17.98
	L 194.3 18.97
	L 194 19.92
	L 194.1 20.9
	M 194 19.92
	L 193.7 20.87
	L 193.8 21.86
	L 193.5 22.81
	M 193.8 21.86
	L 194 22.84
	L 194.6 23.65
	M 194 22.84
	L 194.1 23.83
	M 193.7 20.87
	L 193.4 21.82
	L 192.7 22.53
	M 193.4 21.82
	L 193.1 22.77
	L 193.2 23.76
	M 193.1 22.77
	L 192.7 23.72
	M 194.3 18.97
	L 194.5 19.95
	L 194.1 20.9
	M 194.5 19.95
	L 194.6 20.94
	L 195.2 21.75
	M 194.6 20.94
	L 194.8 21.93
	L 194.5 22.88
	L 193.7 23.59
	M 194.5 22.88
	L 194.1 23.83
	M 194.8 21.93
	L 194.9 22.92
	L 194.6 23.87
	M 194.9 22.92
	L 195.1 23.9
	L 195.7 24.71
	M 195.1 23.9
	L 195.2 24.89
	L 195.8 25.7
	L 196 26.69
	M 195.8 25.7
	L 196.4 26.51
	L 197.3 26.96
	M 196.4 26.51
	L 197 27.32
	L 197.2 28.31
	L 197.7 29.12
	M 197.2 28.31
	L 197.3 29.29
	M 197 27.32
	L 197.6 28.13
	L 198.5 28.58
	M 197.6 28.13
	L 198.2 28.94
	L 199.1 29.39
	L 199.7 30.2
	M 199.1 29.39
	L 200 29.84
	M 198.2 28.94
	L 198.8 29.75
	L 199.7 30.2
	M 198.8 29.75
	L 199.3 30.55
	L 200.2 31.01
	L 200.8 31.82
	M 200.2 31.01
	L 201.1 31.46
	L 202.1 31.46
	L 203 31.92
	M 202.1 31.46
	L 203.1 31.46
	M 201.1 31.46
	L 202 31.92
	L 202.6 32.73
	M 202 31.92
	L 202.9 32.37
	M 199.3 30.55
	L 199.9 31.36
	L 200.8 31.82
	M 199.9 31.36
	L 200.5 32.17
	L 200.7 33.16
	L 200.4 34.11
	M 200.7 33.16
	L 200.8 34.15
	M 200.5 32.17
	L 201.1 32.98
	L 201.3 33.97
	M 201.1 32.98
	L 201.7 33.79
	M 195.2 24.89
	L 195.4 25.88
	L 195.1 26.83
	M 195.4 25.88
	L 195.5 26.87
	L 195.2 27.82
	L 194.5 28.53
	M 195.2 27.82
	L 194.9 28.77
	L 195.1 29.76
	M 194.9 28.77
	L 194.6 29.72
	M 195.5 26.87
	L 195.7 27.85
	L 195.4 28.81
	M 195.7 27.85
	L 195.9 28.84
	L 195.6 29.79
	L 195.7 30.78
	M 195.6 29.79
	L 195.2 30.74
	L 194.5 31.45
	L 193.6 31.76
	M 194.5 31.45
	L 193.8 32.16
	M 195.2 30.74
	L 194.9 31.7
	L 194.2 32.4
	M 194.9 31.7
	L 194.6 32.65
	L 194.8 33.63
	M 194.6 32.65
	L 194.3 33.6
	M 195.9 28.84
	L 196 29.83
	L 195.7 30.78
	M 196 29.83
	L 196.2 30.82
	L 195.9 31.77
	L 195.2 32.48
	M 195.9 31.77
	L 195.6 32.72
	L 195.7 33.71
	M 195.6 32.72
	L 195.2 33.67
	M 196.2 30.82
	L 196.3 31.81
	L 196 32.76
	M 196.3 31.81
	L 196.5 32.79
	L 197.1 33.6
	L 197.2 34.59
	M 197.1 33.6
	L 197.7 34.41
	M 196.5 32.79
	L 196.6 33.78
	L 196.3 34.73
	M 196.6 33.78
	L 196.8 34.77
	L 197.4 35.58
	M 196.8 34.77
	L 197 35.76
	M 186.2 -32.39
	L 187.1 -32.55
	L 188.1 -32.71
	L 189.1 -32.86
	L 190.1 -33.02
	L 191.1 -33.02
	L 192.1 -33.02
	L 193.1 -33.02
	L 194.1 -33.02
	L 195.1 -33.18
	L 196.1 -33.33
	L 197.1 -33.49
	L 198.1 -33.65
	L 199 -33.95
	L 200 -34.26
	L 200.9 -34.57
	L 201.9 -34.88
	L 202.9 -35.04
	L 203.8 -35.19
	L 204.8 -35.35
	L 205.8 -35.51
	L 206.8 -35.51
	L 207.8 -35.51
"/>
</svg>
