<svg version="1.1" baseProfile="full" xmlns="http://www.w3.org/2000/svg"
width="1024" height="1024"
viewBox="-7 -32 39 39"
>
<rect x="-7" y="-32" width="100%" height="100%" fill="white" />
<path stroke="green" stroke-width="0.04" stroke-linecap="round" fill="none"
transform="scale(1 -1)"
d="	M 0 0
	L 0 1
	L 1 1
	L 1 2
	L 2 2
	L 2 1
	L 1 1
	L 1 2
	L -3.59e-09 2
	L -1.077e-08 3
	L 1 3
	L 1 4
	L 2 4
	L 2 5
	L 3 5
	L 3 4
	L 2 4
	L 2 5
	L 1 5
	L 1 6
	L 2 6
	L 2 5
	L 1 5
	L 1 4
	L -7.18e-09 4
	L -2.872e-08 5
	L 1 5
	L 1 4
	L 2 4
	L 2 3
	L 1 3
	L 1 4
	L 2 4
	L 2 5
	L 3 5
	L 3 4
	L 4 4
	L 4 3
	L 5 3
	L 5 2
	L 4 2
	L 4 3
	L 5 3
	L 5 4
	L 6 4
	L 6 3
	L 5 3
	L 5 4
	L 4 4
	L 4 5
	L 5 5
	L 5 6
	L 6 6
	L 6 7
	L 7 7
	L 7 6
	L 6 6
	L 6 7
	L 5 7
	L 5 8
	L 6 8
	L 6 9
	L 7 9
	L 7 10
	L 8 10
	L 8 9
	L 7 9
	L 7 10
	L 6 10
	L 6 11
	L 7 11
	L 7 10
	L 6 10
	L 6 9
	L 5 9
	L 5 10
	L 6 10
	L 6 9
	L 7 9
	L 7 8
	L 6 8
	L 6 9
	L 7 9
	L 7 10
	L 8 10
	L 8 9
	L 9 9
	L 9 8
	L 10 8
	L 10 7
	L 9 7
	L 9 8
	L 10 8
	L 10 9
	L 11 9
	L 11 8
	L 10 8
	L 10 9
	L 9 9
	L 9 10
	L 10 10
	L 10 9
	L 9 9
	L 9 8
	L 8 8
	L 8 9
	L 9 9
	L 9 8
	L 10 8
	L 10 7
	L 9 7
	L 9 6
	L 8 6
	L 8 5
	L 7 5
	L 7 6
	L 8 6
	L 8 5
	L 9 5
	L 9 4
	L 8 4
	L 8 5
	L 9 5
	L 9 6
	L 10 6
	L 10 5
	L 9 5
	L 9 6
	L 8 6
	L 8 7
	L 9 7
	L 9 6
	L 8 6
	L 8 5
	L 7 5
	L 7 6
	L 6 6
	L 6 7
	L 5 7
	L 5 8
	L 6 8
	L 6 7
	L 5 7
	L 5 6
	L 4 6
	L 4 7
	L 5 7
	L 5 6
	L 6 6
	L 6 5
	L 5 5
	L 5 6
	L 6 6
	L 6 7
	L 7 7
	L 7 6
	L 6 6
	L 6 7
	L 5 7
	L 5 8
	L 6 8
	L 6 9
	L 7 9
	L 7 10
	L 8 10
	L 8 9
	L 7 9
	L 7 10
	L 6 10
	L 6 11
	L 7 11
	L 7 10
	L 6 10
	L 6 9
	L 5 9
	L 5 10
	L 4 10
	L 4 11
	L 3 11
	L 3 12
	L 4 12
	L 4 11
	L 3 11
	L 3 10
	L 2 10
	L 2 11
	L 1 11
	L 1 12
	L -8.58e-07 12
	L -1.023e-06 13
	L 1 13
	L 1 12
	L -8.544e-07 12
	L -6.857e-07 11
	L -1 11
	L -1 12
	L -8.58e-07 12
	L -6.821e-07 11
	L 1 11
	L 1 10
	L -5.062e-07 10
	L -6.857e-07 11
	L 1 11
	L 1 12
	L 2 12
	L 2 11
	L 1 11
	L 1 12
	L -8.687e-07 12
	L -1.055e-06 13
	L 1 13
	L 1 14
	L 2 14
	L 2 15
	L 3 15
	L 3 14
	L 2 14
	L 2 15
	L 1 15
	L 1 16
	L 2 16
	L 2 15
	L 1 15
	L 1 14
	L -1.231e-06 14
	L -1.432e-06 15
	L 1 15
	L 1 14
	L 2 14
	L 2 13
	L 1 13
	L 1 14
	L 2 14
	L 2 15
	L 3 15
	L 3 14
	L 4 14
	L 4 13
	L 5 13
	L 5 12
	L 4 12
	L 4 13
	L 5 13
	L 5 14
	L 6 14
	L 6 13
	L 5 13
	L 5 14
	L 4 14
	L 4 15
	L 5 15
	L 5 16
	L 6 16
	L 6 17
	L 7 17
	L 7 16
	L 6 16
	L 6 17
	L 5 17
	L 5 18
	L 6 18
	L 6 19
	L 7 19
	L 7 20
	L 8 20
	L 8 19
	L 7 19
	L 7 20
	L 6 20
	L 6 21
	L 7 21
	L 7 20
	L 6 20
	L 6 19
	L 5 19
	L 5 20
	L 6 20
	L 6 19
	L 7 19
	L 7 18
	L 6 18
	L 6 19
	L 7 19
	L 7 20
	L 8 20
	L 8 19
	L 9 19
	L 9 18
	L 10 18
	L 10 17
	L 9 17
	L 9 18
	L 10 18
	L 10 19
	L 11 19
	L 11 18
	L 10 18
	L 10 19
	L 9 19
	L 9 20
	L 10 20
	L 10 21
	L 11 21
	L 11 22
	L 12 22
	L 12 21
	L 11 21
	L 11 22
	L 10 22
	L 10 23
	L 11 23
	L 11 24
	L 12 24
	L 12 25
	L 13 25
	L 13 24
	L 12 24
	L 12 25
	L 11 25
	L 11 26
	L 12 26
	L 12 25
	L 11 25
	L 11 24
	L 10 24
	L 10 25
	L 11 25
	L 11 24
	L 12 24
	L 12 23
	L 11 23
	L 11 24
	L 12 24
	L 12 25
	L 13 25
	L 13 24
	L 14 24
	L 14 23
	L 15 23
	L 15 22
	L 14 22
	L 14 23
	L 15 23
	L 15 24
	L 16 24
	L 16 23
	L 15 23
	L 15 24
	L 14 24
	L 14 25
	L 15 25
	L 15 24
	L 14 24
	L 14 23
	L 13 23
	L 13 24
	L 14 24
	L 14 23
	L 15 23
	L 15 22
	L 14 22
	L 14 21
	L 13 21
	L 13 20
	L 12 20
	L 12 21
	L 13 21
	L 13 20
	L 14 20
	L 14 19
	L 13 19
	L 13 20
	L 14 20
	L 14 21
	L 15 21
	L 15 20
	L 14 20
	L 14 21
	L 13 21
	L 13 22
	L 14 22
	L 14 21
	L 13 21
	L 13 20
	L 12 20
	L 12 21
	L 11 21
	L 11 22
	L 10 22
	L 10 23
	L 11 23
	L 11 22
	L 10 22
	L 10 21
	L 9 21
	L 9 22
	L 10 22
	L 10 21
	L 11 21
	L 11 20
	L 10 20
	L 10 21
	L 11 21
	L 11 22
	L 12 22
	L 12 21
	L 11 21
	L 11 22
	L 10 22
	L 10 23
	L 11 23
	L 11 24
	L 12 24
	L 12 25
	L 13 25
	L 13 24
	L 12 24
	L 12 25
	L 11 25
	L 11 26
	L 12 26
	L 12 25
	L 11 25
	L 11 24
	L 10 24
	L 10 25
	L 9 25
	L 9 26
	L 8 26
	L 8 27
	L 9 27
	L 9 26
	L 8 26
	L 8 25
	L 7 25
	L 7 26
	L 6 26
	L 6 27
	L 5 27
	L 5 28
	L 6 28
	L 6 27
	L 5 27
	L 5 26
	L 4 26
	L 4 27
	L 5 27
	L 5 26
	L 6 26
	L 6 25
	L 5 25
	L 5 26
	L 6 26
	L 6 27
	L 7 27
	L 7 26
	L 6 26
	L 6 27
	L 5 27
	L 5 28
	L 6 28
	L 6 29
	L 7 29
	L 7 30
	L 8 30
	L 8 29
	L 7 29
	L 7 30
	L 6 30
	L 6 31
	L 7 31
	L 7 30
	L 6 30
	L 6 29
	L 5 29
	L 5 30
	L 6 30
	L 6 29
	L 7 29
	L 7 28
	L 6 28
	L 6 29
	L 7 29
	L 7 30
	L 8 30
	L 8 29
	L 9 29
	L 9 28
	L 10 28
	L 10 27
	L 9 27
	L 9 28
	L 10 28
	L 10 29
	L 11 29
	L 11 28
	L 10 28
	L 10 29
	L 9 29
	L 9 30
	L 10 30
	L 10 29
	L 9 29
	L 9 28
	L 8 28
	L 8 29
	L 9 29
	L 9 28
	L 10 28
	L 10 27
	L 9 27
	L 9 26
	L 8 26
	L 8 25
	L 7 25
	L 7 26
	L 8 26
	L 8 25
	L 9 25
	L 9 24
	L 8 24
	L 8 25
	L 9 25
	L 9 26
	L 10 26
	L 10 25
	L 9 25
	L 9 26
	L 8 26
	L 8 27
	L 9 27
	L 9 26
	L 8 26
	L 8 25
	L 7 25
	L 7 26
	L 6 26
	L 6 27
	L 5 27
	L 5 28
	L 6 28
	L 6 27
	L 5 27
	L 5 26
	L 4 26
	L 4 27
	L 5 27
	L 5 26
	L 6 26
	L 6 25
	L 5 25
	L 5 24
	L 4 24
	L 4 23
	L 3 23
	L 3 24
	L 4 24
	L 4 23
	L 5 23
	L 5 22
	L 4 22
	L 4 21
	L 3 21
	L 3 20
	L 2 20
	L 2 21
	L 3 21
	L 3 20
	L 4 20
	L 4 19
	L 3 19
	L 3 20
	L 4 20
	L 4 21
	L 5 21
	L 5 20
	L 4 20
	L 4 21
	L 3 21
	L 3 22
	L 4 22
	L 4 21
	L 3 21
	L 3 20
	L 2 20
	L 2 21
	L 1 21
	L 1 22
	L -2.513e-06 22
	L -3.037e-06 23
	L 1 23
	L 1 22
	L -2.509e-06 22
	L -1.982e-06 21
	L -1 21
	L -1 22
	L -2.513e-06 22
	L -1.978e-06 21
	L 1 21
	L 1 20
	L -1.443e-06 20
	L -1.982e-06 21
	L 1 21
	L 1 22
	L 2 22
	L 2 21
	L 1 21
	L 1 22
	L -2.524e-06 22
	L -3.069e-06 23
	L 1 23
	L 1 24
	L 2 24
	L 2 25
	L 3 25
	L 3 24
	L 2 24
	L 2 25
	L 1 25
	L 1 26
	L 2 26
	L 2 25
	L 1 25
	L 1 24
	L -3.604e-06 24
	L -4.164e-06 25
	L 1 25
	L 1 24
	L 2 24
	L 2 23
	L 1 23
	L 1 24
	L 2 24
	L 2 25
	L 3 25
	L 3 24
	L 4 24
	L 4 23
	L 5 23
	L 5 22
	L 4 22
	L 4 23
	L 5 23
	L 5 24
	L 6 24
	L 6 23
	L 5 23
	L 5 24
	L 4 24
	L 4 25
	L 5 25
	L 5 24
	L 4 24
	L 4 23
	L 3 23
	L 3 24
	L 4 24
	L 4 23
	L 5 23
	L 5 22
	L 4 22
	L 4 21
	L 3 21
	L 3 20
	L 2 20
	L 2 21
	L 3 21
	L 3 20
	L 4 20
	L 4 19
	L 3 19
	L 3 20
	L 4 20
	L 4 21
	L 5 21
	L 5 20
	L 6 20
	L 6 19
	L 7 19
	L 7 18
	L 6 18
	L 6 19
	L 7 19
	L 7 20
	L 8 20
	L 8 19
	L 9 19
	L 9 18
	L 10 18
	L 10 17
	L 9 17
	L 9 18
	L 10 18
	L 10 19
	L 11 19
	L 11 18
	L 10 18
	L 10 19
	L 9 19
	L 9 20
	L 10 20
	L 10 19
	L 9 19
	L 9 18
	L 8 18
	L 8 19
	L 9 19
	L 9 18
	L 10 18
	L 10 17
	L 9 17
	L 9 16
	L 8 16
	L 8 15
	L 7 15
	L 7 16
	L 8 16
	L 8 15
	L 9 15
	L 9 14
	L 8 14
	L 8 15
	L 9 15
	L 9 16
	L 10 16
	L 10 15
	L 9 15
	L 9 16
	L 8 16
	L 8 17
	L 9 17
	L 9 16
	L 8 16
	L 8 15
	L 7 15
	L 7 16
	L 6 16
	L 6 17
	L 5 17
	L 5 18
	L 6 18
	L 6 17
	L 5 17
	L 5 16
	L 4 16
	L 4 17
	L 5 17
	L 5 16
	L 6 16
	L 6 15
	L 5 15
	L 5 16
	L 6 16
	L 6 17
	L 7 17
	L 7 16
	L 6 16
	L 6 17
	L 5 17
	L 5 18
	L 6 18
	L 6 19
	L 7 19
	L 7 20
	L 8 20
	L 8 19
	L 7 19
	L 7 20
	L 6 20
	L 6 21
	L 7 21
	L 7 20
	L 6 20
	L 6 19
	L 5 19
	L 5 20
	L 6 20
	L 6 19
	L 7 19
	L 7 18
	L 6 18
	L 6 19
	L 7 19
	L 7 20
	L 8 20
	L 8 19
	L 9 19
	L 9 18
	L 10 18
	L 10 17
	L 9 17
	L 9 18
	L 10 18
	L 10 19
	L 11 19
	L 11 18
	L 10 18
	L 10 19
	L 9 19
	L 9 20
	L 10 20
	L 10 21
	L 11 21
	L 11 22
	L 12 22
	L 12 21
	L 11 21
	L 11 22
	L 10 22
	L 10 23
	L 11 23
	L 11 24
	L 12 24
	L 12 25
	L 13 25
	L 13 24
	L 12 24
	L 12 25
	L 11 25
	L 11 26
	L 12 26
	L 12 25
	L 11 25
	L 11 24
	L 10 24
	L 10 25
	L 11 25
	L 11 24
	L 12 24
	L 12 23
	L 11 23
	L 11 24
	L 12 24
	L 12 25
	L 13 25
	L 13 24
	L 14 24
	L 14 23
	L 15 23
	L 15 22
	L 14 22
	L 14 23
	L 15 23
	L 15 24
	L 16 24
	L 16 23
	L 15 23
	L 15 24
	L 14 24
	L 14 25
	L 15 25
	L 15 24
	L 14 24
	L 14 23
	L 13 23
	L 13 24
	L 14 24
	L 14 23
	L 15 23
	L 15 22
	L 14 22
	L 14 21
	L 13 21
	L 13 20
	L 12 20
	L 12 21
	L 13 21
	L 13 20
	L 14 20
	L 14 19
	L 13 19
	L 13 20
	L 14 20
	L 14 21
	L 15 21
	L 15 20
	L 16 20
	L 16 19
	L 17 19
	L 17 18
	L 16 18
	L 16 19
	L 17 19
	L 17 20
	L 18 20
	L 18 19
	L 19 19
	L 19 18
	L 20 18
	L 20 17
	L 19 17
	L 19 18
	L 20 18
	L 20 19
	L 21 19
	L 21 18
	L 20 18
	L 20 19
	L 19 19
	L 19 20
	L 20 20
	L 20 19
	L 19 19
	L 19 18
	L 18 18
	L 18 19
	L 19 19
	L 19 18
	L 20 18
	L 20 17
	L 19 17
	L 19 16
	L 18 16
	L 18 15
	L 17 15
	L 17 16
	L 18 16
	L 18 15
	L 19 15
	L 19 14
	L 18 14
	L 18 15
	L 19 15
	L 19 16
	L 20 16
	L 20 15
	L 21 15
	L 21 14
	L 22 14
	L 22 13
	L 21 13
	L 21 14
	L 22 14
	L 22 15
	L 23 15
	L 23 14
	L 24 14
	L 24 13
	L 25 13
	L 25 12
	L 24 12
	L 24 13
	L 25 13
	L 25 14
	L 26 14
	L 26 13
	L 25 13
	L 25 14
	L 24 14
	L 24 15
	L 25 15
	L 25 14
	L 24 14
	L 24 13
	L 23 13
	L 23 14
	L 24 14
	L 24 13
	L 25 13
	L 25 12
	L 24 12
	L 24 11
	L 23 11
	L 23 10
	L 22 10
	L 22 11
	L 23 11
	L 23 10
	L 24 10
	L 24 9
	L 23 9
	L 23 10
	L 24 10
	L 24 11
	L 25 11
	L 25 10
	L 24 10
	L 24 11
	L 23 11
	L 23 12
	L 24 12
	L 24 11
	L 23 11
	L 23 10
	L 22 10
	L 22 11
	L 21 11
	L 21 12
	L 20 12
	L 20 13
	L 21 13
	L 21 12
	L 20 12
	L 20 11
	L 19 11
	L 19 12
	L 20 12
	L 20 11
	L 21 11
	L 21 10
	L 20 10
	L 20 11
	L 21 11
	L 21 12
	L 22 12
	L 22 11
	L 21 11
	L 21 12
	L 20 12
	L 20 13
	L 21 13
	L 21 14
	L 22 14
	L 22 15
	L 23 15
	L 23 14
	L 22 14
	L 22 15
	L 21 15
	L 21 16
	L 22 16
	L 22 15
	L 21 15
	L 21 14
	L 20 14
	L 20 15
	L 21 15
	L 21 14
	L 22 14
	L 22 13
	L 21 13
	L 21 14
	L 22 14
	L 22 15
	L 23 15
	L 23 14
	L 24 14
	L 24 13
	L 25 13
	L 25 12
	L 24 12
	L 24 13
	L 25 13
	L 25 14
	L 26 14
	L 26 13
	L 25 13
	L 25 14
	L 24 14
	L 24 15
	L 25 15
	L 25 16
	L 26 16
	L 26 17
	L 27 17
	L 27 16
	L 26 16
	L 26 17
	L 25 17
	L 25 18
	L 26 18
	L 26 19
	L 27 19
	L 27 20
	L 28 20
	L 28 19
	L 27 19
	L 27 20
	L 26 20
	L 26 21
	L 27 21
	L 27 20
	L 26 20
	L 26 19
	L 25 19
	L 25 20
	L 26 20
	L 26 19
	L 27 19
	L 27 18
	L 26 18
	L 26 19
	L 27 19
	L 27 20
	L 28 20
	L 28 19
	L 29 19
	L 29 18
	L 30 18
	L 30 17
	L 29 17
	L 29 18
	L 30 18
	L 30 19
	L 31 19
	L 31 18
	L 30 18
	L 30 19
	L 29 19
	L 29 20
	L 30 20
	L 30 19
	L 29 19
	L 29 18
	L 28 18
	L 28 19
	L 29 19
	L 29 18
	L 30 18
	L 30 17
	L 29 17
	L 29 16
	L 28 16
	L 28 15
	L 27 15
	L 27 16
	L 28 16
	L 28 15
	L 29 15
	L 29 14
	L 28 14
	L 28 15
	L 29 15
	L 29 16
	L 30 16
	L 30 15
	L 29 15
	L 29 16
	L 28 16
	L 28 17
	L 29 17
	L 29 16
	L 28 16
	L 28 15
	L 27 15
	L 27 16
	L 26 16
	L 26 17
	L 25 17
	L 25 18
	L 26 18
	L 26 17
	L 25 17
	L 25 16
	L 24 16
	L 24 17
	L 25 17
	L 25 16
	L 26 16
	L 26 15
	L 25 15
	L 25 16
	L 26 16
	L 26 17
	L 27 17
	L 27 16
	L 26 16
	L 26 17
	L 25 17
	L 25 18
	L 26 18
	L 26 19
	L 27 19
	L 27 20
	L 28 20
	L 28 19
	L 27 19
	L 27 20
	L 26 20
	L 26 21
	L 27 21
	L 27 20
	L 26 20
	L 26 19
	L 25 19
	L 25 20
	L 24 20
	L 24 21
	L 23 21
	L 23 22
	L 24 22
	L 24 21
	L 23 21
	L 23 20
	L 22 20
	L 22 21
	L 21 21
	L 21 22
	L 20 22
	L 20 23
	L 21 23
	L 21 22
	L 20 22
	L 20 21
	L 19 21
	L 19 22
	L 20 22
	L 20 21
	L 21 21
	L 21 20
	L 20 20
	L 20 21
	L 21 21
	L 21 22
	L 22 22
	L 22 21
	L 21 21
	L 21 22
	L 20 22
	L 20 23
	L 21 23
	L 21 24
	L 22 24
	L 22 25
	L 23 25
	L 23 24
	L 22 24
	L 22 25
	L 21 25
	L 21 26
	L 22 26
	L 22 25
	L 21 25
	L 21 24
	L 20 24
	L 20 25
	L 21 25
	L 21 24
	L 22 24
	L 22 23
	L 21 23
	L 21 24
	L 22 24
	L 22 25
	L 23 25
	L 23 24
	L 24 24
	L 24 23
	L 25 23
	L 25 22
	L 24 22
	L 24 23
	L 25 23
	L 25 24
	L 26 24
	L 26 23
	L 25 23
	L 25 24
	L 24 24
	L 24 25
	L 25 25
	L 25 24
	L 24 24
	L 24 23
	L 23 23
	L 23 24
	L 24 24
	L 24 23
	L 25 23
	L 25 22
	L 24 22
	L 24 21
	L 23 21
	L 23 20
	L 22 20
	L 22 21
	L 23 21
	L 23 20
	L 24 20
	L 24 19
	L 23 19
	L 23 20
	L 24 20
	L 24 21
	L 25 21
	L 25 20
	L 24 20
	L 24 21
	L 23 21
	L 23 22
	L 24 22
	L 24 21
	L 23 21
	L 23 20
	L 22 20
	L 22 21
	L 21 21
	L 21 22
	L 20 22
	L 20 23
	L 21 23
	L 21 22
	L 20 22
	L 20 21
	L 19 21
	L 19 22
	L 20 22
	L 20 21
	L 21 21
	L 21 20
	L 20 20
	L 20 19
	L 19 19
	L 19 18
	L 18 18
	L 18 19
	L 19 19
	L 19 18
	L 20 18
	L 20 17
	L 19 17
	L 19 16
	L 18 16
	L 18 15
	L 17 15
	L 17 16
	L 18 16
	L 18 15
	L 19 15
	L 19 14
	L 18 14
	L 18 15
	L 19 15
	L 19 16
	L 20 16
	L 20 15
	L 19 15
	L 19 16
	L 18 16
	L 18 17
	L 19 17
	L 19 16
	L 18 16
	L 18 15
	L 17 15
	L 17 16
	L 16 16
	L 16 17
	L 15 17
	L 15 18
	L 16 18
	L 16 17
	L 15 17
	L 15 16
	L 14 16
	L 14 17
	L 15 17
	L 15 16
	L 16 16
	L 16 15
	L 15 15
	L 15 16
	L 16 16
	L 16 17
	L 17 17
	L 17 16
	L 16 16
	L 16 17
	L 15 17
	L 15 18
	L 16 18
	L 16 19
	L 17 19
	L 17 20
	L 18 20
	L 18 19
	L 17 19
	L 17 20
	L 16 20
	L 16 21
	L 17 21
	L 17 20
	L 16 20
	L 16 19
	L 15 19
	L 15 20
	L 16 20
	L 16 19
	L 17 19
	L 17 18
	L 16 18
	L 16 19
	L 17 19
	L 17 20
	L 18 20
	L 18 19
	L 19 19
	L 19 18
	L 20 18
	L 20 17
	L 19 17
	L 19 18
	L 20 18
	L 20 19
	L 21 19
	L 21 18
	L 20 18
	L 20 19
	L 19 19
	L 19 20
	L 20 20
	L 20 19
	L 19 19
	L 19 18
	L 18 18
	L 18 19
	L 19 19
	L 19 18
	L 20 18
	L 20 17
	L 19 17
	L 19 16
	L 18 16
	L 18 15
	L 17 15
	L 17 16
	L 18 16
	L 18 15
	L 19 15
	L 19 14
	L 18 14
	L 18 15
	L 19 15
	L 19 16
	L 20 16
	L 20 15
	L 21 15
	L 21 14
	L 22 14
	L 22 13
	L 21 13
	L 21 14
	L 22 14
	L 22 15
	L 23 15
	L 23 14
	L 24 14
	L 24 13
	L 25 13
	L 25 12
	L 24 12
	L 24 13
	L 25 13
	L 25 14
	L 26 14
	L 26 13
	L 25 13
	L 25 14
	L 24 14
	L 24 15
	L 25 15
	L 25 14
	L 24 14
	L 24 13
	L 23 13
	L 23 14
	L 24 14
	L 24 13
	L 25 13
	L 25 12
	L 24 12
	L 24 11
	L 23 11
	L 23 10
	L 22 10
	L 22 11
	L 23 11
	L 23 10
	L 24 10
	L 24 9
	L 23 9
	L 23 10
	L 24 10
	L 24 11
	L 25 11
	L 25 10
	L 24 10
	L 24 11
	L 23 11
	L 23 12
	L 24 12
	L 24 11
	L 23 11
	L 23 10
	L 22 10
	L 22 11
	L 21 11
	L 21 12
	L 20 12
	L 20 13
	L 21 13
	L 21 12
	L 20 12
	L 20 11
	L 19 11
	L 19 12
	L 20 12
	L 20 11
	L 21 11
	L 21 10
	L 20 10
	L 20 9
	L 19 9
	L 19 8
	L 18 8
	L 18 9
	L 19 9
	L 19 8
	L 20 8
	L 20 7
	L 19 7
	L 19 6
	L 18 6
	L 18 5
	L 17 5
	L 17 6
	L 18 6
	L 18 5
	L 19 5
	L 19 4
	L 18 4
	L 18 5
	L 19 5
	L 19 6
	L 20 6
	L 20 5
	L 19 5
	L 19 6
	L 18 6
	L 18 7
	L 19 7
	L 19 6
	L 18 6
	L 18 5
	L 17 5
	L 17 6
	L 16 6
	L 16 7
	L 15 7
	L 15 8
	L 16 8
	L 16 7
	L 15 7
	L 15 6
	L 14 6
	L 14 7
	L 15 7
	L 15 6
	L 16 6
	L 16 5
	L 15 5
	L 15 4
	L 14 4
	L 14 3
	L 13 3
	L 13 4
	L 14 4
	L 14 3
	L 15 3
	L 15 2
	L 14 2
	L 14 1
	L 13 1
	L 13 -8.382e-07
	L 12 -2.236e-06
	L 12 1
	L 13 1
	L 13 -8.346e-07
	L 14 5.672e-07
	L 14 -1
	L 13 -1
	L 13 -8.382e-07
	L 14 5.708e-07
	L 14 1
	L 15 1
	L 15 1.98e-06
	L 14 5.672e-07
	L 14 1
	L 13 1
	L 13 2
	L 14 2
	L 14 1
	L 13 1
	L 13 -8.49e-07
	L 12 -2.269e-06
	L 12 1
	L 11 1
	L 11 2
	L 10 2
	L 10 3
	L 11 3
	L 11 2
	L 10 2
	L 10 1
	L 9 1
	L 9 2
	L 10 2
	L 10 1
	L 11 1
	L 11 -3.678e-06
	L 10 -5.112e-06
	L 10 1
	L 11 1
	L 11 2
	L 12 2
	L 12 1
	L 11 1
	L 11 2
	L 10 2
	L 10 3
	L 11 3
	L 11 4
	L 12 4
	L 12 5
	L 13 5
	L 13 4
	L 12 4
	L 12 5
	L 11 5
	L 11 6
	L 12 6
	L 12 5
	L 11 5
	L 11 4
	L 10 4
	L 10 5
	L 11 5
	L 11 4
	L 12 4
	L 12 3
	L 11 3
	L 11 4
	L 12 4
	L 12 5
	L 13 5
	L 13 4
	L 14 4
	L 14 3
	L 15 3
	L 15 2
	L 14 2
	L 14 3
	L 15 3
	L 15 4
	L 16 4
	L 16 3
	L 15 3
	L 15 4
	L 14 4
	L 14 5
	L 15 5
	L 15 4
	L 14 4
	L 14 3
	L 13 3
	L 13 4
	L 14 4
	L 14 3
	L 15 3
	L 15 2
	L 14 2
	L 14 1
	L 13 1
	L 13 -7.915e-07
	L 12 -2.283e-06
	L 12 1
	L 13 1
	L 13 -7.879e-07
	L 14 7.072e-07
	L 14 -1
	L 13 -1
	L 13 -7.915e-07
	L 14 7.108e-07
	L 14 1
	L 15 1
	L 15 2.213e-06
	L 16 3.715e-06
	L 16 -1
	L 17 -1
	L 17 -2
	L 16 -2
	L 16 -1
	L 17 -1
	L 17 5.221e-06
	L 18 6.731e-06
	L 18 -1
	L 19 -1
	L 19 -2
	L 20 -2
	L 20 -3
	L 19 -3
	L 19 -2
	L 20 -2
	L 20 -1
	L 21 -1
	L 21 -2
	L 20 -2
	L 20 -1
	L 19 -1
	L 19 8.23e-06
	L 20 9.753e-06
	L 20 -1
	L 19 -1
	L 19 -2
	L 18 -2
	L 18 -1
	L 19 -1
	L 19 -2
	L 20 -2
	L 20 -3
	L 19 -3
	L 19 -4
	L 18 -4
	L 18 -5
	L 17 -5
	L 17 -4
	L 18 -4
	L 18 -5
	L 19 -5
	L 19 -6
	L 18 -6
	L 18 -5
	L 19 -5
	L 19 -4
	L 20 -4
	L 20 -5
	L 19 -5
	L 19 -4
	L 18 -4
	L 18 -3
	L 19 -3
	L 19 -4
	L 18 -4
	L 18 -5
	L 17 -5
	L 17 -4
	L 16 -4
	L 16 -3
	L 15 -3
	L 15 -2
	L 16 -2
	L 16 -3
	L 15 -3
	L 15 -4
	L 14 -4
	L 14 -3
	L 15 -3
	L 15 -4
	L 16 -4
	L 16 -5
	L 15 -5
	L 15 -4
	L 16 -4
	L 16 -3
	L 17 -3
	L 17 -4
	L 16 -4
	L 16 -3
	L 15 -3
	L 15 -2
	L 16 -2
	L 16 -1
	L 17 -1
	L 17 5.164e-06
	L 18 6.745e-06
	L 18 -1
	L 17 -1
	L 17 5.16e-06
	L 16 3.575e-06
	L 16 1
	L 17 1
	L 17 5.164e-06
	L 16 3.572e-06
	L 16 -1
	L 15 -1
	L 15 1.98e-06
	L 16 3.575e-06
	L 16 -1
	L 17 -1
	L 17 -2
	L 16 -2
	L 16 -1
	L 17 -1
	L 17 5.175e-06
	L 18 6.778e-06
	L 18 -1
	L 19 -1
	L 19 -2
	L 20 -2
	L 20 -3
	L 19 -3
	L 19 -2
	L 20 -2
	L 20 -1
	L 21 -1
	L 21 -2
	L 20 -2
	L 20 -1
	L 19 -1
	L 19 8.37e-06
	L 20 9.987e-06
	L 20 1
	L 21 1
	L 21 2
	L 22 2
	L 22 1
	L 21 1
	L 21 2
	L 20 2
	L 20 3
	L 21 3
	L 21 4
	L 22 4
	L 22 5
	L 23 5
	L 23 4
	L 22 4
	L 22 5
	L 21 5
	L 21 6
	L 22 6
	L 22 5
	L 21 5
	L 21 4
	L 20 4
	L 20 5
	L 21 5
	L 21 4
	L 22 4
	L 22 3
	L 21 3
	L 21 4
	L 22 4
	L 22 5
	L 23 5
	L 23 4
	L 24 4
	L 24 3
	L 25 3
	L 25 2
	L 24 2
	L 24 3
	L 25 3
	L 25 4
	L 26 4
	L 26 3
	L 25 3
	L 25 4
	L 24 4
	L 24 5
	L 25 5
	L 25 4
	L 24 4
	L 24 3
	L 23 3
	L 23 4
	L 24 4
	L 24 3
	L 25 3
	L 25 2
	L 24 2
	L 24 1
	L 23 1
	L 23 1.485e-05
	L 22 1.317e-05
	L 22 1
	L 23 1
	L 23 1.485e-05
	L 24 1.652e-05
	L 24 -1
	L 23 -1
	L 23 1.485e-05
	L 24 1.653e-05
	L 24 1
	L 25 1
	L 25 1.821e-05
	L 24 1.652e-05
	L 24 1
	L 23 1
	L 23 2
	L 24 2
	L 24 1
	L 23 1
	L 23 1.483e-05
	L 22 1.314e-05
	L 22 1
	L 21 1
	L 21 2
	L 20 2
	L 20 3
	L 21 3
	L 21 2
	L 20 2
	L 20 1
	L 19 1
	L 19 2
	L 20 2
	L 20 1
	L 21 1
	L 21 1.146e-05
	L 20 9.753e-06
	L 20 1
	L 21 1
	L 21 2
	L 22 2
	L 22 1
	L 21 1
	L 21 2
	L 20 2
	L 20 3
	L 21 3
	L 21 4
	L 22 4
	L 22 5
	L 23 5
	L 23 4
	L 22 4
	L 22 5
	L 21 5
	L 21 6
	L 22 6
	L 22 5
	L 21 5
	L 21 4
	L 20 4
	L 20 5
	L 19 5
	L 19 6
	L 18 6
	L 18 7
	L 19 7
	L 19 6
	L 18 6
	L 18 5
	L 17 5
	L 17 6
	L 16 6
	L 16 7
	L 15 7
	L 15 8
	L 16 8
	L 16 7
	L 15 7
	L 15 6
	L 14 6
	L 14 7
	L 15 7
	L 15 6
	L 16 6
	L 16 5
	L 15 5
	L 15 6
	L 16 6
	L 16 7
	L 17 7
	L 17 6
	L 16 6
	L 16 7
	L 15 7
	L 15 8
	L 16 8
	L 16 9
	L 17 9
	L 17 10
	L 18 10
	L 18 9
	L 17 9
	L 17 10
	L 16 10
	L 16 11
	L 17 11
	L 17 10
	L 16 10
	L 16 9
	L 15 9
	L 15 10
	L 16 10
	L 16 9
	L 17 9
	L 17 8
	L 16 8
	L 16 9
	L 17 9
	L 17 10
	L 18 10
	L 18 9
	L 19 9
	L 19 8
	L 20 8
	L 20 7
	L 19 7
	L 19 8
	L 20 8
	L 20 9
	L 21 9
	L 21 8
	L 20 8
	L 20 9
	L 19 9
	L 19 10
	L 20 10
	L 20 9
	L 19 9
	L 19 8
	L 18 8
	L 18 9
	L 19 9
	L 19 8
	L 20 8
	L 20 7
	L 19 7
	L 19 6
	L 18 6
	L 18 5
	L 17 5
	L 17 6
	L 18 6
	L 18 5
	L 19 5
	L 19 4
	L 18 4
	L 18 5
	L 19 5
	L 19 6
	L 20 6
	L 20 5
	L 19 5
	L 19 6
	L 18 6
	L 18 7
	L 19 7
	L 19 6
	L 18 6
	L 18 5
	L 17 5
	L 17 6
	L 16 6
	L 16 7
	L 15 7
	L 15 8
	L 16 8
	L 16 7
	L 15 7
	L 15 6
	L 14 6
	L 14 7
	L 15 7
	L 15 6
	L 16 6
	L 16 5
	L 15 5
	L 15 4
	L 14 4
	L 14 3
	L 13 3
	L 13 4
	L 14 4
	L 14 3
	L 15 3
	L 15 2
	L 14 2
	L 14 1
	L 13 1
	L 13 -2.874e-06
	L 12 -4.724e-06
	L 12 1
	L 13 1
	L 13 -2.87e-06
	L 14 -1.016e-06
	L 14 -1
	L 13 -1
	L 13 -2.874e-06
	L 14 -1.012e-06
	L 14 1
	L 15 1
	L 15 8.49e-07
	L 14 -1.016e-06
	L 14 1
	L 13 1
	L 13 2
	L 14 2
	L 14 1
	L 13 1
	L 13 -2.884e-06
	L 12 -4.756e-06
	L 12 1
	L 11 1
	L 11 2
	L 10 2
	L 10 3
	L 11 3
	L 11 2
	L 10 2
	L 10 1
	L 9 1
	L 9 2
	L 10 2
	L 10 1
	L 11 1
	L 11 -6.618e-06
	L 10 -8.504e-06
	L 10 1
	L 11 1
	L 11 2
	L 12 2
	L 12 1
	L 11 1
	L 11 2
	L 10 2
	L 10 3
	L 11 3
	L 11 4
	L 12 4
	L 12 5
	L 13 5
	L 13 4
	L 12 4
	L 12 5
	L 11 5
	L 11 6
	L 12 6
	L 12 5
	L 11 5
	L 11 4
	L 10 4
	L 10 5
	L 9 5
	L 9 6
	L 8 6
	L 8 7
	L 9 7
	L 9 6
	L 8 6
	L 8 5
	L 7 5
	L 7 6
	L 6 6
	L 6 7
	L 5 7
	L 5 8
	L 6 8
	L 6 7
	L 5 7
	L 5 6
	L 4 6
	L 4 7
	L 5 7
	L 5 6
	L 6 6
	L 6 5
	L 5 5
	L 5 6
	L 6 6
	L 6 7
	L 7 7
	L 7 6
	L 6 6
	L 6 7
	L 5 7
	L 5 8
	L 6 8
	L 6 9
	L 7 9
	L 7 10
	L 8 10
	L 8 9
	L 7 9
	L 7 10
	L 6 10
	L 6 11
	L 7 11
	L 7 10
	L 6 10
	L 6 9
	L 5 9
	L 5 10
	L 4 10
	L 4 11
	L 3 11
	L 3 12
	L 4 12
	L 4 11
	L 3 11
	L 3 10
	L 2 10
	L 2 11
	L 1 11
	L 1 12
	L 2.301e-06 12
	L 3.411e-07 13
	L 1 13
	L 1 12
	L 2.305e-06 12
	L 4.268e-06 11
	L -1 11
	L -1 12
	L 2.301e-06 12
	L 4.272e-06 11
	L 1 11
	L 1 10
	L 6.243e-06 10
	L 4.268e-06 11
	L 1 11
	L 1 12
	L 2 12
	L 2 11
	L 1 11
	L 1 12
	L 2.29e-06 12
	L 3.088e-07 13
	L 1 13
	L 1 14
	L 2 14
	L 2 15
	L 3 15
	L 3 14
	L 2 14
	L 2 15
	L 1 15
	L 1 16
	L 2 16
	L 2 15
	L 1 15
	L 1 14
	L -1.662e-06 14
	L -3.658e-06 15
	L 1 15
	L 1 14
	L 2 14
	L 2 13
	L 1 13
	L 1 14
	L 2 14
	L 2 15
	L 3 15
	L 3 14
	L 4 14
	L 4 13
	L 5 13
	L 5 12
	L 4 12
	L 4 13
	L 5 13
	L 5 14
	L 6 14
	L 6 13
	L 5 13
	L 5 14
	L 4 14
	L 4 15
	L 5 15
	L 5 14
	L 4 14
	L 4 13
	L 3 13
	L 3 14
	L 4 14
	L 4 13
	L 5 13
	L 5 12
	L 4 12
	L 4 11
	L 3 11
	L 3 10
	L 2 10
	L 2 11
	L 3 11
	L 3 10
	L 4 10
	L 4 9
	L 3 9
	L 3 10
	L 4 10
	L 4 11
	L 5 11
	L 5 10
	L 4 10
	L 4 11
	L 3 11
	L 3 12
	L 4 12
	L 4 11
	L 3 11
	L 3 10
	L 2 10
	L 2 11
	L 1 11
	L 1 12
	L 2.348e-06 12
	L 2.944e-07 13
	L 1 13
	L 1 12
	L 2.351e-06 12
	L 4.408e-06 11
	L -1 11
	L -1 12
	L 2.348e-06 12
	L 4.412e-06 11
	L 1 11
	L 1 10
	L 6.476e-06 10
	L 8.54e-06 9
	L -1 9
	L -1 8
	L -2 8
	L -2 9
	L -1 9
	L -1 8
	L 1.061e-05 8
	L 1.268e-05 7
	L -1 7
	L -1 6
	L -2 6
	L -2 5
	L -3 5
	L -3 6
	L -2 6
	L -2 5
	L -1 5
	L -1 4
	L -2 4
	L -2 5
	L -1 5
	L -1 6
	L 1.474e-05 6
	L 1.683e-05 5
	L -1 5
	L -1 6
	L -2 6
	L -2 7
	L -1 7
	L -1 6
	L -2 6
	L -2 5
	L -3 5
	L -3 6
	L -4 6
	L -4 7
	L -5 7
	L -5 8
	L -4 8
	L -4 7
	L -5 7
	L -5 6
	L -6 6
	L -6 7
	L -5 7
	L -5 6
	L -4 6
	L -4 5
	L -5 5
	L -5 6
	L -4 6
	L -4 7
	L -3 7
	L -3 6
	L -4 6
	L -4 7
	L -5 7
	L -5 8
	L -4 8
	L -4 9
	L -3 9
	L -3 10
	L -2 10
	L -2 9
	L -3 9
	L -3 10
	L -4 10
	L -4 11
	L -3 11
	L -3 10
	L -4 10
	L -4 9
	L -5 9
	L -5 10
	L -4 10
	L -4 9
	L -3 9
	L -3 8
	L -4 8
	L -4 9
	L -3 9
	L -3 10
	L -2 10
	L -2 9
	L -1 9
	L -1 8
	L 1.055e-05 8
	L 1.269e-05 7
	L -1 7
	L -1 8
	L 1.055e-05 8
	L 8.4e-06 9
	L 1 9
	L 1 8
	L 1.055e-05 8
	L 8.397e-06 9
	L -1 9
	L -1 10
	L 6.243e-06 10
	L 8.4e-06 9
	L -1 9
	L -1 8
	L -2 8
	L -2 9
	L -1 9
	L -1 8
	L 1.056e-05 8
	L 1.273e-05 7
	L -1 7
	L -1 6
	L -2 6
	L -2 5
	L -3 5
	L -3 6
	L -2 6
	L -2 5
	L -1 5
	L -1 4
	L -2 4
	L -2 5
	L -1 5
	L -1 6
	L 1.488e-05 6
	L 1.706e-05 5
	L 1 5
	L 1 4
	L 2 4
	L 2 3
	L 1 3
	L 1 4
	L 2 4
	L 2 5
	L 3 5
	L 3 4
	L 4 4
	L 4 3
	L 5 3
	L 5 2
	L 4 2
	L 4 3
	L 5 3
	L 5 4
	L 6 4
	L 6 3
	L 5 3
	L 5 4
	L 4 4
	L 4 5
	L 5 5
	L 5 4
	L 4 4
	L 4 3
	L 3 3
	L 3 4
	L 4 4
	L 4 3
	L 5 3
	L 5 2
	L 4 2
	L 4 1
	L 3 1
	L 3 -2.138e-05
	L 2 -2.359e-05
	L 2 1
	L 3 1
	L 3 -2.138e-05
	L 4 -1.917e-05
	L 4 -1
	L 3 -1
	L 3 -2.138e-05
	L 4 -1.916e-05
	L 4 1
	L 5 1
	L 5 -1.694e-05
	L 4 -1.917e-05
	L 4 1
	L 3 1
	L 3 2
	L 4 2
	L 4 1
	L 3 1
	L 3 -2.139e-05
	L 2 -2.362e-05
	L 2 1
	L 1 1
	L 1 2
	L 2.36e-05 2
	L 2.137e-05 3
	L 1 3
	L 1 2
	L 2.361e-05 2
	L 2.584e-05 1
	L -1 1
	L -1 2
	L 2.36e-05 2
	L 2.585e-05 1
	L 1 1
	L 1 -2.584e-05
	L 2.809e-05 -2.809e-05
"/>
</svg>
