<svg version="1.1" baseProfile="full" xmlns="http://www.w3.org/2000/svg"
width="685.5" height="1024"
viewBox="-14.26 -28.06 39.28 58.67"
>
<rect x="-14.26" y="-28.06" width="100%" height="100%" fill="white" />
<path stroke="green" stroke-width="0.04" stroke-linecap="round" fill="none"
transform="scale(1 -1)"
d="	M 0 0
	L 0 1
	L 0.3827 1.924
	L 0.3827 2.924
	L 0.7654 3.848
	L 0.7654 4.848
	L 0.3827 5.772
	L -0.3244 6.479
	L -0.7071 7.403
	L -1.414 8.11
	L -2.338 8.492
	L -3.045 9.2
	L -3.428 10.12
	L -3.428 11.12
	L -3.811 12.05
	L -4.518 12.75
	L -4.9 13.68
	L -5.607 14.39
	L -5.99 15.31
	L -6.697 16.02
	L -7.08 16.94
	L -7.08 17.94
	L -7.463 18.86
	L -8.17 19.57
	L -9.094 19.95
	L -9.801 20.66
	L -10.18 21.58
	L -10.89 22.29
	L -11.27 23.22
	L -11.27 24.22
	L -10.89 25.14
	L -10.89 26.14
	L -11.27 27.06
	M 0 0
	L 1 1.795e-09
	L 1.924 -0.3827
	L 2.631 -1.09
	L 3.014 -2.014
	L 3.721 -2.721
	L 4.103 -3.645
	L 4.103 -4.645
	L 4.486 -5.569
	L 4.486 -6.569
	L 4.869 -7.492
	L 5.576 -8.2
	L 6.5 -8.582
	L 7.5 -8.582
	L 8.424 -8.2
	L 9.424 -8.2
	L 10.35 -7.817
	L 11.35 -7.817
	L 12.27 -7.434
	L 13.27 -7.434
	L 14.2 -7.817
	L 15.2 -7.817
	L 16.12 -7.434
	L 16.83 -6.727
	L 17.21 -5.803
	L 17.92 -5.096
	L 18.84 -4.713
	L 19.55 -4.006
	L 20.47 -3.624
	L 21.18 -2.916
	L 22.1 -2.534
	L 23.1 -2.534
	L 24.03 -2.151
	M 0 0
	L -1 1.795e-09
	L -1.924 0.3827
	L -2.631 1.09
	L -3.014 2.014
	L -3.014 3.014
	L -3.396 3.938
	L -3.396 4.938
	L -3.779 5.861
	L -4.486 6.569
	L -5.41 6.951
	L -6.117 7.658
	L -6.5 8.582
	L -6.5 9.582
	L -6.882 10.51
	L -7.59 11.21
	L -7.972 12.14
	L -8.679 12.84
	L -9.062 13.77
	L -9.062 14.77
	L -9.445 15.69
	L -10.15 16.4
	L -10.53 17.32
	L -11.24 18.03
	L -12.17 18.41
	L -12.87 19.12
	L -13.26 20.04
	L -13.26 21.04
	L -12.87 21.97
	L -12.17 22.67
	L -11.78 23.6
	L -11.78 24.6
	L -12.17 25.52
	M 0 0
	L -3.59e-09 -1
	L 0.3827 -1.924
	L 0.3827 -2.924
	L 0.7654 -3.848
	L 1.472 -4.555
	L 1.855 -5.479
	L 1.855 -6.479
	L 2.238 -7.403
	L 2.238 -8.403
	L 2.621 -9.327
	L 2.621 -10.33
	L 2.238 -11.25
	L 1.531 -11.96
	L 1.148 -12.88
	L 1.148 -13.88
	L 1.531 -14.81
	L 1.531 -15.81
	L 1.148 -16.73
	L 1.148 -17.73
	L 1.531 -18.65
	L 2.238 -19.36
	L 2.621 -20.28
	L 2.621 -21.28
	L 2.238 -22.21
	L 1.531 -22.91
	L 1.148 -23.84
	L 1.148 -24.84
	L 1.531 -25.76
	L 1.531 -26.76
	L 1.913 -27.69
	L 1.913 -28.69
	L 2.296 -29.61
"/>
</svg>
