<svg version="1.1" baseProfile="full" xmlns="http://www.w3.org/2000/svg"
width="207.3" height="1024"
viewBox="-8.575 -56.34 11.61 57.34"
>
<rect x="-8.575" y="-56.34" width="100%" height="100%" fill="white" />
<path stroke="green" stroke-width="0.04" stroke-linecap="round" fill="none"
transform="scale(1 -1)"
d="	M 0 0
	L 0 1
	L 0.2079 1.978
	M 0 1
	L 0 2
	L 0.2079 2.978
	L 0.6146 3.892
	M 0.2079 2.978
	L 0.4158 3.956
	M 0 2
	L 0 3
	L -0.2079 3.978
	M 0 3
	L 0 4
	L -0.2079 4.978
	L -0.2079 5.978
	M -0.2079 4.978
	L -0.4158 5.956
	L -0.4158 6.956
	L -0.6237 7.934
	M -0.4158 6.956
	L -0.4158 7.956
	L -0.2079 8.934
	M -0.4158 7.956
	L -0.4158 8.956
	M -0.4158 5.956
	L -0.6237 6.934
	L -0.6237 7.934
	M -0.6237 6.934
	L -0.8316 7.913
	M 0 4
	L 0 5
	L -0.2079 5.978
	M 0 5
	L 0 6
	L 0.2079 6.978
	L 0.2079 7.978
	M 0.2079 6.978
	L 0.4158 7.956
	L 0.8226 8.87
	M 0.4158 7.956
	L 0.6237 8.934
	M 0 6
	L 0 7
	L 0.2079 7.978
	M 0 7
	L 0 8
	L -0.2079 8.978
	L -0.6146 9.892
	M -0.2079 8.978
	L -0.4158 9.956
	L -0.8226 10.87
	L -1.41 11.68
	M -0.8226 10.87
	L -1.229 11.78
	M -0.4158 9.956
	L -0.6237 10.93
	L -0.6237 11.93
	M -0.6237 10.93
	L -0.8316 11.91
	L -0.8316 12.91
	L -1.04 13.89
	M -0.8316 12.91
	L -0.8316 13.91
	M -0.8316 11.91
	L -1.04 12.89
	L -1.446 13.8
	M -1.04 12.89
	L -1.247 13.87
	L -1.247 14.87
	M -1.247 13.87
	L -1.455 14.85
	L -1.455 15.85
	L -1.663 16.83
	M -1.455 15.85
	L -1.455 16.85
	L -1.663 17.83
	L -1.663 18.83
	M -1.663 17.83
	L -1.871 18.8
	M -1.455 16.85
	L -1.455 17.85
	L -1.663 18.83
	M -1.455 17.85
	L -1.455 18.85
	L -1.247 19.83
	M -1.455 18.85
	L -1.455 19.85
	M -1.455 14.85
	L -1.663 15.83
	L -1.663 16.83
	M -1.663 15.83
	L -1.871 16.8
	L -2.278 17.72
	L -2.486 18.7
	M -2.278 17.72
	L -2.685 18.63
	M -1.871 16.8
	L -2.079 17.78
	L -2.486 18.7
	M -2.079 17.78
	L -2.287 18.76
	L -2.287 19.76
	M -2.287 18.76
	L -2.495 19.74
	M 0 8
	L 0 9
	L -0.2079 9.978
	M 0 9
	L 0 10
	L 0.2079 10.98
	M 0 10
	L 0 11
	L -0.2079 11.98
	L -0.6146 12.89
	M -0.2079 11.98
	L -0.4158 12.96
	M 0 11
	L 0 12
	L -0.2079 12.98
	M 0 12
	L 0 13
	L -0.2079 13.98
	L -0.6146 14.89
	M -0.2079 13.98
	L -0.4158 14.96
	L -0.4158 15.96
	M -0.4158 14.96
	L -0.6237 15.93
	L -1.03 16.85
	L -1.618 17.66
	M -1.03 16.85
	L -1.437 17.76
	M -0.6237 15.93
	L -0.8316 16.91
	L -1.238 17.83
	M -0.8316 16.91
	L -1.04 17.89
	L -1.04 18.89
	L -0.8316 19.87
	M -1.04 18.89
	L -1.04 19.89
	M -1.04 17.89
	L -1.247 18.87
	L -1.654 19.78
	M -1.247 18.87
	L -1.455 19.85
	L -1.455 20.85
	M -1.455 19.85
	L -1.663 20.83
	M 0 13
	L 0 14
	L 0.2079 14.98
	M 0 14
	L 0 15
	L -0.2079 15.98
	L -0.6146 16.89
	M -0.2079 15.98
	L -0.4158 16.96
	M 0 15
	L 0 16
	L -0.2079 16.98
	M 0 16
	L 0 17
	L 0.2079 17.98
	M 0 17
	L 0 18
	L 0.2079 18.98
	L 0.2079 19.98
	M 0.2079 18.98
	L 0.4158 19.96
	M 0 18
	L 0 19
	L -0.2079 19.98
	M 0 19
	L 0 20
	L -0.2079 20.98
	L -0.6146 21.89
	M -0.2079 20.98
	L -0.4158 21.96
	L -0.8226 22.87
	L -1.41 23.68
	M -0.8226 22.87
	L -1.229 23.78
	M -0.4158 21.96
	L -0.6237 22.93
	L -1.03 23.85
	M -0.6237 22.93
	L -0.8316 23.91
	L -0.8316 24.91
	L -1.04 25.89
	M -0.8316 24.91
	L -0.8316 25.91
	L -0.6237 26.89
	M -0.8316 25.91
	L -0.8316 26.91
	L -1.04 27.89
	L -1.446 28.8
	M -1.04 27.89
	L -1.247 28.87
	L -1.247 29.87
	M -1.247 28.87
	L -1.455 29.85
	M -0.8316 26.91
	L -0.8316 27.91
	L -1.04 28.89
	M -0.8316 27.91
	L -0.8316 28.91
	L -0.6237 29.89
	M -0.8316 28.91
	L -0.8316 29.91
	L -0.6237 30.89
	L -0.217 31.8
	M -0.6237 30.89
	L -0.4158 31.87
	M -0.8316 29.91
	L -0.8316 30.91
	L -1.04 31.89
	M -0.8316 30.91
	L -0.8316 31.91
	M -0.8316 23.91
	L -1.04 24.89
	L -1.04 25.89
	M -1.04 24.89
	L -1.247 25.87
	L -1.654 26.78
	L -1.862 27.76
	M -1.654 26.78
	L -2.061 27.7
	M -1.247 25.87
	L -1.455 26.85
	L -1.862 27.76
	M -1.455 26.85
	L -1.663 27.83
	L -1.663 28.83
	M -1.663 27.83
	L -1.871 28.8
	L -2.278 29.72
	L -2.866 30.53
	M -2.278 29.72
	L -2.685 30.63
	L -3.272 31.44
	L -3.679 32.35
	M -3.272 31.44
	L -3.86 32.25
	M -2.685 30.63
	L -3.091 31.54
	L -3.679 32.35
	M -3.091 31.54
	L -3.498 32.46
	L -4.086 33.27
	L -4.829 33.94
	M -4.086 33.27
	L -4.674 34.08
	L -5.08 34.99
	M -4.674 34.08
	L -5.262 34.88
	L -5.668 35.8
	L -6.256 36.61
	M -5.668 35.8
	L -6.075 36.71
	L -6.283 37.69
	M -6.075 36.71
	L -6.482 37.63
	M -5.262 34.88
	L -5.849 35.69
	L -6.592 36.36
	M -5.849 35.69
	L -6.437 36.5
	M -3.498 32.46
	L -3.905 33.37
	L -4.493 34.18
	M -3.905 33.37
	L -4.312 34.28
	L -4.899 35.09
	L -5.643 35.76
	M -4.899 35.09
	L -5.487 35.9
	M -4.312 34.28
	L -4.718 35.2
	L -5.306 36.01
	M -4.718 35.2
	L -5.125 36.11
	L -5.333 37.09
	L -5.74 38
	M -5.333 37.09
	L -5.541 38.07
	L -5.541 39.07
	M -5.541 38.07
	L -5.749 39.05
	M -5.125 36.11
	L -5.532 37.03
	L -6.12 37.83
	M -5.532 37.03
	L -5.939 37.94
	L -6.146 38.92
	L -6.553 39.83
	M -6.146 38.92
	L -6.354 39.9
	L -6.761 40.81
	L -7.349 41.62
	M -6.761 40.81
	L -7.168 41.72
	L -7.376 42.7
	M -7.168 41.72
	L -7.575 42.64
	M -6.354 39.9
	L -6.562 40.87
	L -6.562 41.87
	M -6.562 40.87
	L -6.77 41.85
	M -5.939 37.94
	L -6.345 38.85
	L -6.933 39.66
	M -6.345 38.85
	L -6.752 39.77
	L -6.96 40.74
	L -7.367 41.66
	M -6.96 40.74
	L -7.168 41.72
	L -7.168 42.72
	M -7.168 41.72
	L -7.376 42.7
	M -6.752 39.77
	L -7.159 40.68
	L -7.367 41.66
	M -7.159 40.68
	L -7.566 41.59
	M -1.871 28.8
	L -2.079 29.78
	L -2.079 30.78
	M -2.079 29.78
	L -2.287 30.76
	L -2.694 31.67
	L -3.282 32.48
	M -2.694 31.67
	L -3.101 32.59
	M -2.287 30.76
	L -2.495 31.74
	L -2.902 32.65
	M -2.495 31.74
	L -2.703 32.72
	L -2.703 33.72
	L -2.911 34.69
	M -2.703 33.72
	L -2.703 34.72
	M -2.703 32.72
	L -2.911 33.69
	L -3.318 34.61
	M -2.911 33.69
	L -3.119 34.67
	L -3.119 35.67
	L -3.327 36.65
	M -3.119 35.67
	L -3.119 36.67
	L -2.911 37.65
	M -3.119 36.67
	L -3.119 37.67
	L -3.327 38.65
	L -3.733 39.56
	M -3.327 38.65
	L -3.534 39.63
	M -3.119 37.67
	L -3.119 38.67
	L -2.911 39.65
	M -3.119 38.67
	L -3.119 39.67
	M -3.119 34.67
	L -3.327 35.65
	L -3.733 36.56
	M -3.327 35.65
	L -3.534 36.63
	L -3.534 37.63
	M -3.534 36.63
	L -3.742 37.61
	L -4.149 38.52
	L -4.357 39.5
	M -4.149 38.52
	L -4.556 39.43
	M -3.742 37.61
	L -3.95 38.58
	L -4.357 39.5
	M -3.95 38.58
	L -4.158 39.56
	L -4.158 40.56
	L -4.366 41.54
	M -4.158 40.56
	L -4.158 41.56
	L -4.366 42.54
	L -4.773 43.45
	M -4.366 42.54
	L -4.574 43.52
	M -4.158 41.56
	L -4.158 42.56
	L -4.366 43.54
	M -4.158 42.56
	L -4.158 43.56
	L -3.95 44.54
	L -3.544 45.45
	M -3.95 44.54
	L -3.742 45.52
	M -4.158 43.56
	L -4.158 44.56
	L -4.366 45.54
	M -4.158 44.56
	L -4.158 45.56
	L -3.95 46.54
	M -4.158 45.56
	L -4.158 46.56
	L -3.95 47.54
	L -3.95 48.54
	M -3.95 47.54
	L -3.742 48.52
	L -3.336 49.43
	M -3.742 48.52
	L -3.534 49.5
	L -3.534 50.5
	L -3.742 51.48
	M -3.534 50.5
	L -3.534 51.5
	L -3.327 52.48
	M -3.534 51.5
	L -3.534 52.5
	M -3.534 49.5
	L -3.327 50.48
	L -2.92 51.39
	M -3.327 50.48
	L -3.119 51.45
	L -2.712 52.37
	L -2.504 53.35
	M -2.712 52.37
	L -2.305 53.28
	M -3.119 51.45
	L -2.911 52.43
	L -2.911 53.43
	M -2.911 52.43
	L -2.703 53.41
	L -2.296 54.32
	M -2.703 53.41
	L -2.495 54.39
	M -4.158 46.56
	L -4.158 47.56
	L -3.95 48.54
	M -4.158 47.56
	L -4.158 48.56
	L -4.366 49.54
	L -4.773 50.45
	M -4.366 49.54
	L -4.574 50.52
	L -4.574 51.52
	M -4.574 50.52
	L -4.782 51.5
	M -4.158 48.56
	L -4.158 49.56
	L -3.95 50.54
	M -4.158 49.56
	L -4.158 50.56
	M -4.158 39.56
	L -4.366 40.54
	L -4.366 41.54
	M -4.366 40.54
	L -4.574 41.52
	L -4.981 42.43
	L -5.569 43.24
	M -4.981 42.43
	L -5.388 43.35
	L -5.595 44.32
	M -5.388 43.35
	L -5.794 44.26
	M -4.574 41.52
	L -4.782 42.5
	L -5.189 43.41
	M -4.782 42.5
	L -4.99 43.48
	L -4.99 44.48
	L -5.198 45.45
	M -4.99 44.48
	L -4.99 45.48
	M -4.99 43.48
	L -5.198 44.45
	L -5.198 45.45
	M -5.198 44.45
	L -5.406 45.43
	L -5.812 46.35
	L -6.02 47.32
	M -5.812 46.35
	L -6.219 47.26
	L -6.807 48.07
	L -7.214 48.98
	M -6.807 48.07
	L -7.395 48.88
	M -6.219 47.26
	L -6.626 48.17
	L -7.214 48.98
	M -6.626 48.17
	L -7.033 49.09
	L -7.241 50.06
	M -7.033 49.09
	L -7.439 50
	M -5.406 45.43
	L -5.614 46.41
	L -5.614 47.41
	M -5.614 46.41
	L -5.822 47.39
	L -6.228 48.3
	L -6.436 49.28
	M -6.228 48.3
	L -6.635 49.22
	M -5.822 47.39
	L -6.029 48.37
	L -6.029 49.37
	M -6.029 48.37
	L -6.237 49.34
	L -6.237 50.34
	L -6.445 51.32
	M -6.237 50.34
	L -6.237 51.34
	L -6.029 52.32
	M -6.237 51.34
	L -6.237 52.34
	L -6.029 53.32
	L -6.029 54.32
	M -6.029 53.32
	L -5.822 54.3
	M -6.237 52.34
	L -6.237 53.34
	L -6.445 54.32
	M -6.237 53.34
	L -6.237 54.34
	L -6.029 55.32
	M -6.237 54.34
	L -6.237 55.34
	M -6.237 49.34
	L -6.445 50.32
	L -6.445 51.32
	M -6.445 50.32
	L -6.653 51.3
	L -6.653 52.3
	L -6.861 53.28
	M -6.653 52.3
	L -6.653 53.3
	M -6.653 51.3
	L -6.861 52.28
	L -6.861 53.28
	M -6.861 52.28
	L -7.069 53.26
	M 0 20
	L 0 21
	L -0.2079 21.98
	M 0 21
	L 0 22
	L 0.2079 22.98
	L 0.2079 23.98
	M 0.2079 22.98
	L 0.4158 23.96
	L 0.8226 24.87
	M 0.4158 23.96
	L 0.6237 24.93
	M 0 22
	L 0 23
	L -0.2079 23.98
	M 0 23
	L 0 24
	L -0.2079 24.98
	L -0.6146 25.89
	M -0.2079 24.98
	L -0.4158 25.96
	L -0.4158 26.96
	L -0.6237 27.93
	M -0.4158 26.96
	L -0.4158 27.96
	L -0.2079 28.93
	M -0.4158 27.96
	L -0.4158 28.96
	M -0.4158 25.96
	L -0.6237 26.93
	L -1.03 27.85
	M -0.6237 26.93
	L -0.8316 27.91
	L -0.8316 28.91
	M -0.8316 27.91
	L -1.04 28.89
	M 0 24
	L 0 25
	L -0.2079 25.98
	M 0 25
	L 0 26
	L 0.2079 26.98
	L 0.2079 27.98
	M 0.2079 26.98
	L 0.4158 27.96
	M 0 26
	L 0 27
	L -0.2079 27.98
	M 0 27
	L 0 28
	L -0.2079 28.98
	L -0.6146 29.89
	M -0.2079 28.98
	L -0.4158 29.96
	L -0.4158 30.96
	M -0.4158 29.96
	L -0.6237 30.93
	L -0.6237 31.93
	L -0.4158 32.91
	M -0.6237 31.93
	L -0.6237 32.93
	M -0.6237 30.93
	L -0.8316 31.91
	L -1.238 32.83
	M -0.8316 31.91
	L -1.04 32.89
	L -1.04 33.89
	M -1.04 32.89
	L -1.247 33.87
	L -1.247 34.87
	L -1.455 35.85
	M -1.247 34.87
	L -1.247 35.87
	L -1.04 36.85
	L -1.04 37.85
	M -1.04 36.85
	L -0.8316 37.83
	L -0.4249 38.74
	M -0.8316 37.83
	L -0.6237 38.8
	M -1.247 35.87
	L -1.247 36.87
	L -1.455 37.85
	M -1.247 36.87
	L -1.247 37.87
	M -1.247 33.87
	L -1.455 34.85
	L -1.862 35.76
	M -1.455 34.85
	L -1.663 35.83
	L -2.07 36.74
	L -2.278 37.72
	M -2.07 36.74
	L -2.477 37.65
	M -1.663 35.83
	L -1.871 36.8
	L -2.278 37.72
	M -1.871 36.8
	L -2.079 37.78
	L -2.079 38.78
	L -1.871 39.76
	M -2.079 38.78
	L -2.079 39.78
	M -2.079 37.78
	L -2.287 38.76
	L -2.694 39.67
	M -2.287 38.76
	L -2.495 39.74
	M 0 28
	L 0 29
	L -0.2079 29.98
	M 0 29
	L 0 30
	L -0.2079 30.98
	L -0.2079 31.98
	M -0.2079 30.98
	L -0.4158 31.96
	M 0 30
	L 0 31
	L -0.2079 31.98
	M 0 31
	L 0 32
	L -0.2079 32.98
	L -0.6146 33.89
	M -0.2079 32.98
	L -0.4158 33.96
	L -0.8226 34.87
	L -1.41 35.68
	M -0.8226 34.87
	L -1.229 35.78
	M -0.4158 33.96
	L -0.6237 34.93
	L -1.03 35.85
	M -0.6237 34.93
	L -0.8316 35.91
	M 0 32
	L 0 33
	L 0.2079 33.98
	M 0 33
	L 0 34
	L 0.2079 34.98
	L 0.2079 35.98
	M 0.2079 34.98
	L 0.4158 35.96
	M 0 34
	L 0 35
	L 0.2079 35.98
	M 0 35
	L 0 36
	L 0.2079 36.98
	L 0.2079 37.98
	M 0.2079 36.98
	L 0.4158 37.96
	L 0.8226 38.87
	M 0.4158 37.96
	L 0.6237 38.93
	L 0.6237 39.93
	L 0.4158 40.91
	M 0.6237 39.93
	L 0.6237 40.93
	L 0.8316 41.91
	M 0.6237 40.93
	L 0.6237 41.93
	M 0.6237 38.93
	L 0.8316 39.91
	L 0.8316 40.91
	M 0.8316 39.91
	L 1.04 40.89
	L 1.446 41.8
	L 2.034 42.61
	M 1.446 41.8
	L 1.853 42.72
	M 1.04 40.89
	L 1.247 41.87
	L 1.654 42.78
	M 1.247 41.87
	L 1.455 42.85
	M 0 36
	L 0 37
	L -0.2079 37.98
	M 0 37
	L 0 38
	L -0.2079 38.98
	L -0.6146 39.89
	M -0.2079 38.98
	L -0.4158 39.96
	M 0 38
	L 0 39
	L 0.2079 39.98
	M 0 39
	L 0 40
"/>
</svg>
